CooperHewitt-BookItalic.ufo
<glyph name="exclam" format="1">
  <advance width="217"/>
  <unicode hex="0021"/>
  <outline>
    <contour>
      <point x="119" y="780" type="line"/>
      <point x="61" y="189" type="line"/>
      <point x="108" y="189" type="line"/>
      <point x="204" y="780" type="line"/>
    </contour>
    <contour>
      <point x="116" y="90" type="line"/>
      <point x="26" y="90" type="line"/>
      <point x="14" y="0" type="line"/>
      <point x="104" y="0" type="line"/>
    </contour>
  </outline>
</glyph>
<glyph name="quotedbl" format="1">
  <advance width="338"/>
  <unicode hex="0022"/>
  <outline>
    <contour>
      <point x="122" y="780" type="line"/>
      <point x="101" y="511" type="line"/>
      <point x="151" y="511" type="line"/>
      <point x="201" y="780" type="line"/>
    </contour>
    <contour>
      <point x="243" y="780" type="line"/>
      <point x="222" y="511" type="line"/>
      <point x="272" y="511" type="line"/>
      <point x="322" y="780" type="line"/>
    </contour>
  </outline>
</glyph>
<glyph name="numbersign" format="1">
  <advance width="600"/>
  <unicode hex="0023"/>
  <outline>
    <contour>
      <point x="232" y="0" type="line"/>
      <point x="300" y="0" type="line"/>
      <point x="383" y="235" type="line"/>
      <point x="490" y="235" type="line"/>
      <point x="499" y="301" type="line"/>
      <point x="407" y="301" type="line"/>
      <point x="470" y="479" type="line"/>
      <point x="580" y="479" type="line"/>
      <point x="588" y="545" type="line"/>
      <point x="493" y="545" type="line"/>
      <point x="577" y="780" type="line"/>
      <point x="509" y="780" type="line"/>
      <point x="425" y="545" type="line"/>
      <point x="287" y="545" type="line"/>
      <point x="371" y="780" type="line"/>
      <point x="303" y="780" type="line"/>
      <point x="219" y="545" type="line"/>
      <point x="113" y="545" type="line"/>
      <point x="104" y="479" type="line"/>
      <point x="196" y="479" type="line"/>
      <point x="133" y="301" type="line"/>
      <point x="23" y="301" type="line"/>
      <point x="15" y="235" type="line"/>
      <point x="109" y="235" type="line"/>
      <point x="26" y="0" type="line"/>
      <point x="94" y="0" type="line"/>
      <point x="177" y="235" type="line"/>
      <point x="315" y="235" type="line"/>
    </contour>
    <contour>
      <point x="264" y="479" type="line"/>
      <point x="402" y="479" type="line"/>
      <point x="339" y="301" type="line"/>
      <point x="201" y="301" type="line"/>
    </contour>
  </outline>
</glyph>
<glyph name="dollar" format="1">
  <advance width="600"/>
  <unicode hex="0024"/>
  <outline>
    <contour>
      <point x="496" y="840" type="line"/>
      <point x="434" y="840" type="line"/>
      <point x="391" y="724" type="line"/>
      <point x="377" y="726"/>
      <point x="362" y="727"/>
      <point x="346" y="727" type="curve" smooth="yes"/>
      <point x="210" y="727"/>
      <point x="110" y="669"/>
      <point x="95" y="553" type="curve" smooth="yes"/>
      <point x="94" y="545" type="line" smooth="yes"/>
      <point x="83" y="458"/>
      <point x="125" y="394"/>
      <point x="261" y="372" type="curve"/>
      <point x="174" y="136" type="line"/>
      <point x="120" y="164"/>
      <point x="109" y="202"/>
      <point x="119" y="274" type="curve"/>
      <point x="50" y="274" type="line"/>
      <point x="48" y="261" type="line" smooth="yes"/>
      <point x="35" y="179"/>
      <point x="72" y="107"/>
      <point x="151" y="73" type="curve"/>
      <point x="102" y="-60" type="line"/>
      <point x="163" y="-60" type="line"/>
      <point x="206" y="57" type="line"/>
      <point x="224" y="54"/>
      <point x="243" y="53"/>
      <point x="274" y="53" type="curve" smooth="yes"/>
      <point x="408" y="53"/>
      <point x="504" y="118"/>
      <point x="518" y="233" type="curve" smooth="yes"/>
      <point x="519" y="241" type="line" smooth="yes"/>
      <point x="532" y="343"/>
      <point x="469" y="401"/>
      <point x="341" y="422" type="curve"/>
      <point x="426" y="650" type="line"/>
      <point x="470" y="625"/>
      <point x="488" y="577"/>
      <point x="476" y="496" type="curve"/>
      <point x="546" y="496" type="line"/>
      <point x="548" y="509" type="line" smooth="yes"/>
      <point x="562" y="602"/>
      <point x="530" y="682"/>
      <point x="448" y="711" type="curve"/>
    </contour>
    <contour>
      <point x="271" y="115" type="line" smooth="yes"/>
      <point x="255" y="115"/>
      <point x="243" y="116"/>
      <point x="229" y="119" type="curve"/>
      <point x="319" y="362" type="line"/>
      <point x="406" y="344"/>
      <point x="456" y="316"/>
      <point x="447" y="242" type="curve" smooth="yes"/>
      <point x="446" y="234" type="line" smooth="yes"/>
      <point x="436" y="157"/>
      <point x="369" y="115"/>
      <point x="277" y="115" type="curve" smooth="yes"/>
    </contour>
    <contour>
      <point x="166" y="553" type="line" smooth="yes"/>
      <point x="175" y="624"/>
      <point x="250" y="665"/>
      <point x="336" y="665" type="curve" smooth="yes"/>
      <point x="340" y="665" type="line" smooth="yes"/>
      <point x="350" y="665"/>
      <point x="363" y="664"/>
      <point x="369" y="663" type="curve"/>
      <point x="283" y="431" type="line"/>
      <point x="190" y="446"/>
      <point x="157" y="484"/>
      <point x="165" y="545" type="curve" smooth="yes"/>
    </contour>
  </outline>
</glyph>
<glyph name="percent" format="1">
  <advance width="921"/>
  <unicode hex="0025"/>
  <outline>
    <contour>
      <point x="580" y="170" type="line" smooth="yes"/>
      <point x="588" y="241"/>
      <point x="627" y="283"/>
      <point x="696" y="283" type="curve" smooth="yes"/>
      <point x="704" y="283" type="line" smooth="yes"/>
      <point x="773" y="283"/>
      <point x="806" y="238"/>
      <point x="798" y="170" type="curve" smooth="yes"/>
      <point x="797" y="161" type="line" smooth="yes"/>
      <point x="789" y="90"/>
      <point x="750" y="48"/>
      <point x="681" y="48" type="curve" smooth="yes"/>
      <point x="673" y="48" type="line" smooth="yes"/>
      <point x="604" y="48"/>
      <point x="571" y="93"/>
      <point x="579" y="161" type="curve" smooth="yes"/>
    </contour>
    <contour>
      <point x="519" y="163" type="line" smooth="yes"/>
      <point x="507" y="53"/>
      <point x="573" y="-11"/>
      <point x="677" y="-11" type="curve" smooth="yes"/>
      <point x="779" y="-11"/>
      <point x="846" y="58"/>
      <point x="857" y="159" type="curve" smooth="yes"/>
      <point x="858" y="168" type="line" smooth="yes"/>
      <point x="870" y="278"/>
      <point x="804" y="342"/>
      <point x="700" y="342" type="curve" smooth="yes"/>
      <point x="598" y="342"/>
      <point x="531" y="273"/>
      <point x="520" y="172" type="curve" smooth="yes"/>
    </contour>
    <contour>
      <point x="129" y="619" type="line" smooth="yes"/>
      <point x="137" y="690"/>
      <point x="176" y="732"/>
      <point x="245" y="732" type="curve" smooth="yes"/>
      <point x="253" y="732" type="line" smooth="yes"/>
      <point x="322" y="732"/>
      <point x="355" y="687"/>
      <point x="347" y="619" type="curve" smooth="yes"/>
      <point x="346" y="610" type="line" smooth="yes"/>
      <point x="338" y="539"/>
      <point x="299" y="497"/>
      <point x="230" y="497" type="curve" smooth="yes"/>
      <point x="222" y="497" type="line" smooth="yes"/>
      <point x="153" y="497"/>
      <point x="120" y="542"/>
      <point x="128" y="610" type="curve" smooth="yes"/>
    </contour>
    <contour>
      <point x="249" y="791" type="curve" smooth="yes"/>
      <point x="147" y="791"/>
      <point x="80" y="722"/>
      <point x="69" y="621" type="curve" smooth="yes"/>
      <point x="68" y="612" type="line" smooth="yes"/>
      <point x="56" y="502"/>
      <point x="122" y="438"/>
      <point x="226" y="438" type="curve" smooth="yes"/>
      <point x="328" y="438"/>
      <point x="395" y="507"/>
      <point x="406" y="608" type="curve" smooth="yes"/>
      <point x="407" y="617" type="line" smooth="yes"/>
      <point x="411" y="653"/>
      <point x="407" y="680"/>
      <point x="396" y="699" type="curve"/>
      <point x="422" y="694"/>
      <point x="451" y="688"/>
      <point x="490" y="688" type="curve" smooth="yes"/>
      <point x="546" y="688"/>
      <point x="596" y="701"/>
      <point x="601" y="703" type="curve"/>
      <point x="216" y="0" type="line"/>
      <point x="284" y="0" type="line"/>
      <point x="684" y="732" type="line"/>
      <point x="691" y="781" type="line"/>
      <point x="663" y="769"/>
      <point x="569" y="749"/>
      <point x="497" y="749" type="curve" smooth="yes"/>
      <point x="438" y="749"/>
      <point x="378" y="755"/>
      <point x="325" y="777" type="curve" smooth="yes"/>
      <point x="306" y="785"/>
      <point x="283" y="791"/>
    </contour>
  </outline>
</glyph>
<glyph name="ampersand" format="1">
  <advance width="661"/>
  <unicode hex="0026"/>
  <outline>
    <contour>
      <point x="231" y="-11" type="curve" smooth="yes"/>
      <point x="312" y="-11"/>
      <point x="387" y="13"/>
      <point x="449" y="75" type="curve"/>
      <point x="510" y="0" type="line"/>
      <point x="601" y="0" type="line"/>
      <point x="499" y="129" type="line"/>
      <point x="551" y="195"/>
      <point x="587" y="280"/>
      <point x="601" y="395" type="curve"/>
      <point x="527" y="395" type="line"/>
      <point x="526" y="386" type="line" smooth="yes"/>
      <point x="516" y="294"/>
      <point x="488" y="237"/>
      <point x="456" y="186" type="curve"/>
      <point x="278" y="410" type="line"/>
      <point x="370" y="465"/>
      <point x="459" y="515"/>
      <point x="472" y="613" type="curve" smooth="yes"/>
      <point x="474" y="628" type="line" smooth="yes"/>
      <point x="486" y="719"/>
      <point x="423" y="791"/>
      <point x="296" y="791" type="curve" smooth="yes"/>
      <point x="172" y="791"/>
      <point x="113" y="724"/>
      <point x="101" y="633" type="curve" smooth="yes"/>
      <point x="99" y="618" type="line" smooth="yes"/>
      <point x="90" y="552"/>
      <point x="123" y="493"/>
      <point x="177" y="424" type="curve"/>
      <point x="98" y="378"/>
      <point x="35" y="322"/>
      <point x="21" y="218" type="curve" smooth="yes"/>
      <point x="19" y="203" type="line" smooth="yes"/>
      <point x="1" y="68"/>
      <point x="90" y="-11"/>
    </contour>
    <contour>
      <point x="227" y="54" type="line" smooth="yes"/>
      <point x="121" y="54"/>
      <point x="80" y="111"/>
      <point x="92" y="201" type="curve" smooth="yes"/>
      <point x="94" y="216" type="line" smooth="yes"/>
      <point x="104" y="294"/>
      <point x="158" y="336"/>
      <point x="217" y="372" type="curve"/>
      <point x="408" y="129" type="line"/>
      <point x="356" y="73"/>
      <point x="293" y="54"/>
      <point x="235" y="54" type="curve" smooth="yes"/>
    </contour>
    <contour>
      <point x="174" y="631" type="line" smooth="yes"/>
      <point x="181" y="684"/>
      <point x="214" y="727"/>
      <point x="292" y="727" type="curve" smooth="yes"/>
      <point x="300" y="727" type="line" smooth="yes"/>
      <point x="372" y="727"/>
      <point x="408" y="685"/>
      <point x="401" y="630" type="curve" smooth="yes"/>
      <point x="399" y="615" type="line" smooth="yes"/>
      <point x="390" y="546"/>
      <point x="315" y="509"/>
      <point x="238" y="462" type="curve"/>
      <point x="195" y="515"/>
      <point x="165" y="562"/>
      <point x="172" y="616" type="curve" smooth="yes"/>
    </contour>
  </outline>
</glyph>
<glyph name="quotesingle" format="1">
  <advance width="217"/>
  <unicode hex="0027"/>
  <outline>
    <contour>
      <point x="122" y="780" type="line"/>
      <point x="101" y="511" type="line"/>
      <point x="151" y="511" type="line"/>
      <point x="201" y="780" type="line"/>
    </contour>
  </outline>
</glyph>
<glyph name="parenleft" format="1">
  <advance width="317"/>
  <unicode hex="0028"/>
  <outline>
    <contour>
      <point x="47" y="348" type="line" smooth="yes"/>
      <point x="22" y="146"/>
      <point x="83" y="1"/>
      <point x="145" y="-120" type="curve"/>
      <point x="220" y="-120" type="line"/>
      <point x="151" y="9"/>
      <point x="95" y="159"/>
      <point x="119" y="348" type="curve" smooth="yes"/>
      <point x="122" y="372" type="line" smooth="yes"/>
      <point x="149" y="591"/>
      <point x="235" y="726"/>
      <point x="346" y="840" type="curve"/>
      <point x="271" y="840" type="line"/>
      <point x="167" y="734"/>
      <point x="79" y="604"/>
      <point x="50" y="372" type="curve" smooth="yes"/>
    </contour>
  </outline>
</glyph>
<glyph name="parenright" format="1">
  <advance width="317"/>
  <unicode hex="0029"/>
  <outline>
    <contour>
      <point x="266" y="372" type="line" smooth="yes"/>
      <point x="291" y="574"/>
      <point x="230" y="719"/>
      <point x="168" y="840" type="curve"/>
      <point x="93" y="840" type="line"/>
      <point x="162" y="711"/>
      <point x="218" y="561"/>
      <point x="194" y="372" type="curve" smooth="yes"/>
      <point x="191" y="348" type="line" smooth="yes"/>
      <point x="164" y="129"/>
      <point x="78" y="-6"/>
      <point x="-33" y="-120" type="curve"/>
      <point x="42" y="-120" type="line"/>
      <point x="146" y="-14"/>
      <point x="234" y="116"/>
      <point x="263" y="348" type="curve" smooth="yes"/>
    </contour>
  </outline>
</glyph>
<glyph name="asterisk" format="1">
  <advance width="389"/>
  <unicode hex="002A"/>
  <outline>
    <contour>
      <point x="224" y="800" type="line"/>
      <point x="210" y="654" type="line"/>
      <point x="252" y="654" type="line"/>
      <point x="277" y="800" type="line"/>
    </contour>
    <contour>
      <point x="46" y="648" type="line"/>
      <point x="182" y="608" type="line"/>
      <point x="200" y="648" type="line"/>
      <point x="69" y="698" type="line"/>
    </contour>
    <contour>
      <point x="117" y="451" type="line"/>
      <point x="214" y="572" type="line"/>
      <point x="183" y="596" type="line"/>
      <point x="79" y="482" type="line"/>
    </contour>
    <contour>
      <point x="404" y="698" type="line"/>
      <point x="260" y="648" type="line"/>
      <point x="268" y="608" type="line"/>
      <point x="414" y="648" type="line"/>
    </contour>
    <contour>
      <point x="338" y="482" type="line"/>
      <point x="263" y="596" type="line"/>
      <point x="226" y="572" type="line"/>
      <point x="292" y="451" type="line"/>
    </contour>
  </outline>
</glyph>
<glyph name="plus" format="1">
  <advance width="600"/>
  <unicode hex="002B"/>
  <outline>
    <contour>
      <point x="301" y="642" type="line"/>
      <point x="272" y="423" type="line"/>
      <point x="53" y="423" type="line"/>
      <point x="44" y="357" type="line"/>
      <point x="263" y="357" type="line"/>
      <point x="234" y="138" type="line"/>
      <point x="301" y="138" type="line"/>
      <point x="330" y="357" type="line"/>
      <point x="549" y="357" type="line"/>
      <point x="558" y="423" type="line"/>
      <point x="339" y="423" type="line"/>
      <point x="368" y="642" type="line"/>
    </contour>
  </outline>
</glyph>
<glyph name="hyphen" format="1">
  <advance width="329"/>
  <unicode hex="002D"/>
  <outline>
    <contour>
      <point x="280" y="318" type="line"/>
      <point x="289" y="382" type="line"/>
      <point x="41" y="382" type="line"/>
      <point x="32" y="318" type="line"/>
    </contour>
  </outline>
</glyph>
<glyph name="period" format="1">
  <advance width="217"/>
  <unicode hex="002E"/>
  <outline>
    <contour>
      <point x="116" y="90" type="line"/>
      <point x="26" y="90" type="line"/>
      <point x="14" y="0" type="line"/>
      <point x="104" y="0" type="line"/>
    </contour>
  </outline>
</glyph>
<glyph name="slash" format="1">
  <advance width="330"/>
  <unicode hex="002F"/>
  <outline>
    <contour>
      <point x="377" y="840" type="line"/>
      <point x="306" y="840" type="line"/>
      <point x="-50" y="-120" type="line"/>
      <point x="21" y="-120" type="line"/>
    </contour>
  </outline>
</glyph>
<glyph name="zero" format="1">
  <advance width="600"/>
  <unicode hex="0030"/>
  <outline>
    <contour>
      <point x="343" y="791" type="curve" smooth="yes"/>
      <point x="177" y="791"/>
      <point x="106" y="708"/>
      <point x="86" y="558" type="curve" smooth="yes"/>
      <point x="42" y="222" type="line" smooth="yes"/>
      <point x="23" y="76"/>
      <point x="93" y="-11"/>
      <point x="261" y="-11" type="curve" smooth="yes"/>
      <point x="427" y="-11"/>
      <point x="498" y="72"/>
      <point x="518" y="222" type="curve" smooth="yes"/>
      <point x="562" y="558" type="line" smooth="yes"/>
      <point x="581" y="704"/>
      <point x="511" y="791"/>
    </contour>
    <contour>
      <point x="260" y="53" type="line" smooth="yes"/>
      <point x="139" y="53"/>
      <point x="98" y="110"/>
      <point x="114" y="231" type="curve" smooth="yes"/>
      <point x="155" y="543" type="line" smooth="yes"/>
      <point x="171" y="663"/>
      <point x="217" y="727"/>
      <point x="338" y="727" type="curve" smooth="yes"/>
      <point x="344" y="727" type="line" smooth="yes"/>
      <point x="465" y="727"/>
      <point x="506" y="670"/>
      <point x="490" y="549" type="curve" smooth="yes"/>
      <point x="449" y="237" type="line" smooth="yes"/>
      <point x="433" y="117"/>
      <point x="387" y="53"/>
      <point x="266" y="53" type="curve" smooth="yes"/>
    </contour>
  </outline>
</glyph>
<glyph name="one" format="1">
  <advance width="600"/>
  <unicode hex="0031"/>
  <outline>
    <contour>
      <point x="500" y="0" type="line"/>
      <point x="509" y="66" type="line"/>
      <point x="305" y="66" type="line"/>
      <point x="399" y="784" type="line"/>
      <point x="354" y="784" type="line"/>
      <point x="87" y="618" type="line"/>
      <point x="116" y="563" type="line"/>
      <point x="315" y="687" type="line"/>
      <point x="234" y="66" type="line"/>
      <point x="30" y="66" type="line"/>
      <point x="22" y="0" type="line"/>
    </contour>
  </outline>
</glyph>
<glyph name="two" format="1">
  <advance width="600"/>
  <unicode hex="0032"/>
  <outline>
    <contour>
      <point x="201" y="66" type="line"/>
      <point x="125" y="65" type="line"/>
      <point x="455" y="369" type="line" smooth="yes"/>
      <point x="532" y="441"/>
      <point x="559" y="478"/>
      <point x="570" y="569" type="curve" smooth="yes"/>
      <point x="571" y="577" type="line" smooth="yes"/>
      <point x="586" y="700"/>
      <point x="500" y="791"/>
      <point x="342" y="791" type="curve" smooth="yes"/>
      <point x="174" y="791"/>
      <point x="99" y="697"/>
      <point x="78" y="542" type="curve" smooth="yes"/>
      <point x="75" y="520" type="line"/>
      <point x="146" y="520" type="line"/>
      <point x="165" y="664"/>
      <point x="223" y="727"/>
      <point x="336" y="727" type="curve" smooth="yes"/>
      <point x="343" y="727" type="line" smooth="yes"/>
      <point x="444" y="727"/>
      <point x="510" y="666"/>
      <point x="498" y="570" type="curve" smooth="yes"/>
      <point x="497" y="562" type="line" smooth="yes"/>
      <point x="489" y="500"/>
      <point x="458" y="461"/>
      <point x="396" y="403" type="curve" smooth="yes"/>
      <point x="13" y="49" type="line"/>
      <point x="7" y="0" type="line"/>
      <point x="495" y="0" type="line"/>
      <point x="504" y="66" type="line"/>
    </contour>
  </outline>
</glyph>
<glyph name="three" format="1">
  <advance width="600"/>
  <unicode hex="0033"/>
  <outline>
    <contour>
      <point x="105" y="250" type="curve"/>
      <point x="34" y="250" type="line"/>
      <point x="32" y="236" type="line" smooth="yes"/>
      <point x="11" y="90"/>
      <point x="88" y="-11"/>
      <point x="266" y="-11" type="curve" smooth="yes"/>
      <point x="405" y="-11"/>
      <point x="511" y="78"/>
      <point x="526" y="202" type="curve" smooth="yes"/>
      <point x="527" y="210" type="line" smooth="yes"/>
      <point x="539" y="308"/>
      <point x="494" y="376"/>
      <point x="418" y="397" type="curve"/>
      <point x="496" y="417"/>
      <point x="558" y="478"/>
      <point x="570" y="571" type="curve" smooth="yes"/>
      <point x="571" y="579" type="line" smooth="yes"/>
      <point x="586" y="701"/>
      <point x="502" y="791"/>
      <point x="342" y="791" type="curve" smooth="yes"/>
      <point x="175" y="791"/>
      <point x="99" y="697"/>
      <point x="78" y="542" type="curve" smooth="yes"/>
      <point x="75" y="520" type="line"/>
      <point x="146" y="520" type="line"/>
      <point x="165" y="664"/>
      <point x="222" y="727"/>
      <point x="336" y="727" type="curve" smooth="yes"/>
      <point x="343" y="727" type="line" smooth="yes"/>
      <point x="443" y="727"/>
      <point x="510" y="670"/>
      <point x="498" y="577" type="curve" smooth="yes"/>
      <point x="497" y="569" type="line" smooth="yes"/>
      <point x="485" y="470"/>
      <point x="411" y="430"/>
      <point x="316" y="430" type="curve" smooth="yes"/>
      <point x="207" y="430" type="line"/>
      <point x="198" y="366" type="line"/>
      <point x="312" y="366" type="line" smooth="yes"/>
      <point x="408" y="366"/>
      <point x="467" y="315"/>
      <point x="454" y="214" type="curve" smooth="yes"/>
      <point x="453" y="206" type="line" smooth="yes"/>
      <point x="440" y="103"/>
      <point x="358" y="53"/>
      <point x="268" y="53" type="curve" smooth="yes"/>
      <point x="262" y="53" type="line" smooth="yes"/>
      <point x="149" y="53"/>
      <point x="81" y="114"/>
    </contour>
  </outline>
</glyph>
<glyph name="four" format="1">
  <advance width="600"/>
  <unicode hex="0034"/>
  <outline>
    <contour>
      <point x="389" y="0" type="line"/>
      <point x="416" y="207" type="line"/>
      <point x="544" y="207" type="line"/>
      <point x="554" y="273" type="line"/>
      <point x="424" y="273" type="line"/>
      <point x="491" y="780" type="line"/>
      <point x="422" y="780" type="line"/>
      <point x="17" y="255" type="line"/>
      <point x="11" y="207" type="line"/>
      <point x="345" y="207" type="line"/>
      <point x="318" y="0" type="line"/>
    </contour>
    <contour>
      <point x="405" y="661" type="line"/>
      <point x="391" y="559" type="line"/>
      <point x="353" y="273" type="line"/>
      <point x="191" y="273" type="line"/>
      <point x="105" y="272" type="line"/>
    </contour>
  </outline>
</glyph>
<glyph name="five" format="1">
  <advance width="600"/>
  <unicode hex="0035"/>
  <outline>
    <contour>
      <point x="34" y="250" type="line"/>
      <point x="32" y="236" type="line" smooth="yes"/>
      <point x="11" y="90"/>
      <point x="88" y="-11"/>
      <point x="266" y="-11" type="curve" smooth="yes"/>
      <point x="406" y="-11"/>
      <point x="511" y="74"/>
      <point x="531" y="234" type="curve" smooth="yes"/>
      <point x="532" y="242" type="line" smooth="yes"/>
      <point x="552" y="402"/>
      <point x="453" y="494"/>
      <point x="311" y="494" type="curve" smooth="yes"/>
      <point x="233" y="494"/>
      <point x="166" y="467"/>
      <point x="133" y="428" type="curve"/>
      <point x="183" y="714" type="line"/>
      <point x="584" y="714" type="line"/>
      <point x="592" y="780" type="line"/>
      <point x="129" y="780" type="line"/>
      <point x="53" y="347" type="line"/>
      <point x="111" y="328" type="line"/>
      <point x="150" y="400"/>
      <point x="220" y="430"/>
      <point x="295" y="430" type="curve" smooth="yes"/>
      <point x="304" y="430" type="line" smooth="yes"/>
      <point x="401" y="430"/>
      <point x="476" y="368"/>
      <point x="460" y="242" type="curve" smooth="yes"/>
      <point x="459" y="234" type="line" smooth="yes"/>
      <point x="443" y="108"/>
      <point x="362" y="53"/>
      <point x="268" y="53" type="curve" smooth="yes"/>
      <point x="262" y="53" type="line" smooth="yes"/>
      <point x="149" y="53"/>
      <point x="81" y="114"/>
      <point x="105" y="250" type="curve"/>
    </contour>
  </outline>
</glyph>
<glyph name="six" format="1">
  <advance width="600"/>
  <unicode hex="0036"/>
  <outline>
    <contour>
      <point x="572" y="791" type="line"/>
      <point x="445" y="783"/>
      <point x="318" y="756"/>
      <point x="202" y="640" type="curve" smooth="yes"/>
      <point x="102" y="540"/>
      <point x="59" y="404"/>
      <point x="43" y="289" type="curve" smooth="yes"/>
      <point x="41" y="275" type="line" smooth="yes"/>
      <point x="16" y="97"/>
      <point x="113" y="-11"/>
      <point x="269" y="-11" type="curve" smooth="yes"/>
      <point x="411" y="-11"/>
      <point x="515" y="71"/>
      <point x="535" y="235" type="curve" smooth="yes"/>
      <point x="536" y="243" type="line" smooth="yes"/>
      <point x="556" y="407"/>
      <point x="464" y="490"/>
      <point x="320" y="490" type="curve" smooth="yes"/>
      <point x="252" y="490"/>
      <point x="176" y="454"/>
      <point x="139" y="408" type="curve"/>
      <point x="156" y="469"/>
      <point x="195" y="542"/>
      <point x="254" y="597" type="curve" smooth="yes"/>
      <point x="354" y="691"/>
      <point x="459" y="714"/>
      <point x="563" y="725" type="curve"/>
    </contour>
    <contour>
      <point x="312" y="425" type="line" smooth="yes"/>
      <point x="415" y="425"/>
      <point x="477" y="357"/>
      <point x="463" y="241" type="curve" smooth="yes"/>
      <point x="462" y="233" type="line" smooth="yes"/>
      <point x="448" y="119"/>
      <point x="379" y="55"/>
      <point x="273" y="55" type="curve" smooth="yes"/>
      <point x="267" y="55" type="line" smooth="yes"/>
      <point x="170" y="55"/>
      <point x="93" y="117"/>
      <point x="112" y="266" type="curve" smooth="yes"/>
      <point x="116" y="298"/>
      <point x="121" y="319"/>
      <point x="121" y="319" type="curve"/>
      <point x="162" y="382"/>
      <point x="227" y="425"/>
      <point x="307" y="425" type="curve" smooth="yes"/>
    </contour>
  </outline>
</glyph>
<glyph name="seven" format="1">
  <advance width="600"/>
  <unicode hex="0037"/>
  <outline>
    <contour>
      <point x="74" y="500" type="line"/>
      <point x="139" y="500" type="line"/>
      <point x="168" y="714" type="line"/>
      <point x="400" y="714" type="line"/>
      <point x="512" y="716" type="line"/>
      <point x="124" y="0" type="line"/>
      <point x="202" y="0" type="line"/>
      <point x="598" y="736" type="line"/>
      <point x="603" y="780" type="line"/>
      <point x="111" y="780" type="line"/>
    </contour>
  </outline>
</glyph>
<glyph name="eight" format="1">
  <advance width="600"/>
  <unicode hex="0038"/>
  <outline>
    <contour>
      <point x="262" y="-11" type="curve" smooth="yes"/>
      <point x="406" y="-11"/>
      <point x="511" y="78"/>
      <point x="526" y="202" type="curve" smooth="yes"/>
      <point x="527" y="210" type="line" smooth="yes"/>
      <point x="539" y="308"/>
      <point x="495" y="375"/>
      <point x="418" y="397" type="curve"/>
      <point x="496" y="417"/>
      <point x="558" y="478"/>
      <point x="570" y="571" type="curve" smooth="yes"/>
      <point x="571" y="579" type="line" smooth="yes"/>
      <point x="586" y="701"/>
      <point x="500" y="791"/>
      <point x="340" y="791" type="curve" smooth="yes"/>
      <point x="182" y="791"/>
      <point x="98" y="707"/>
      <point x="83" y="585" type="curve" smooth="yes"/>
      <point x="82" y="577" type="line" smooth="yes"/>
      <point x="71" y="486"/>
      <point x="125" y="415"/>
      <point x="188" y="399" type="curve"/>
      <point x="113" y="376"/>
      <point x="45" y="325"/>
      <point x="31" y="212" type="curve" smooth="yes"/>
      <point x="30" y="204" type="line" smooth="yes"/>
      <point x="14" y="76"/>
      <point x="111" y="-11"/>
    </contour>
    <contour>
      <point x="311" y="366" type="line" smooth="yes"/>
      <point x="406" y="366"/>
      <point x="467" y="315"/>
      <point x="454" y="214" type="curve" smooth="yes"/>
      <point x="453" y="206" type="line" smooth="yes"/>
      <point x="440" y="103"/>
      <point x="371" y="53"/>
      <point x="268" y="53" type="curve" smooth="yes"/>
      <point x="262" y="53" type="line" smooth="yes"/>
      <point x="166" y="53"/>
      <point x="90" y="103"/>
      <point x="103" y="207" type="curve" smooth="yes"/>
      <point x="104" y="215" type="line" smooth="yes"/>
      <point x="116" y="315"/>
      <point x="191" y="366"/>
      <point x="289" y="366" type="curve" smooth="yes"/>
    </contour>
    <contour>
      <point x="343" y="727" type="line" smooth="yes"/>
      <point x="442" y="727"/>
      <point x="510" y="670"/>
      <point x="498" y="577" type="curve" smooth="yes"/>
      <point x="497" y="569" type="line" smooth="yes"/>
      <point x="485" y="470"/>
      <point x="411" y="430"/>
      <point x="316" y="430" type="curve" smooth="yes"/>
      <point x="296" y="430" type="line" smooth="yes"/>
      <point x="207" y="430"/>
      <point x="142" y="480"/>
      <point x="154" y="573" type="curve" smooth="yes"/>
      <point x="155" y="581" type="line" smooth="yes"/>
      <point x="167" y="676"/>
      <point x="234" y="727"/>
      <point x="336" y="727" type="curve" smooth="yes"/>
    </contour>
  </outline>
</glyph>
<glyph name="nine" format="1">
  <advance width="600"/>
  <unicode hex="0039"/>
  <outline>
    <contour>
      <point x="32" y="-11" type="line"/>
      <point x="159" y="-3"/>
      <point x="286" y="24"/>
      <point x="402" y="140" type="curve" smooth="yes"/>
      <point x="502" y="240"/>
      <point x="545" y="376"/>
      <point x="561" y="491" type="curve" smooth="yes"/>
      <point x="563" y="505" type="line" smooth="yes"/>
      <point x="588" y="683"/>
      <point x="491" y="791"/>
      <point x="335" y="791" type="curve" smooth="yes"/>
      <point x="193" y="791"/>
      <point x="89" y="709"/>
      <point x="69" y="545" type="curve" smooth="yes"/>
      <point x="68" y="537" type="line" smooth="yes"/>
      <point x="48" y="373"/>
      <point x="140" y="290"/>
      <point x="284" y="290" type="curve" smooth="yes"/>
      <point x="352" y="290"/>
      <point x="428" y="326"/>
      <point x="465" y="372" type="curve"/>
      <point x="448" y="311"/>
      <point x="409" y="238"/>
      <point x="350" y="183" type="curve" smooth="yes"/>
      <point x="250" y="89"/>
      <point x="145" y="66"/>
      <point x="41" y="55" type="curve"/>
    </contour>
    <contour>
      <point x="292" y="355" type="line" smooth="yes"/>
      <point x="189" y="355"/>
      <point x="127" y="423"/>
      <point x="141" y="539" type="curve" smooth="yes"/>
      <point x="142" y="547" type="line" smooth="yes"/>
      <point x="156" y="661"/>
      <point x="225" y="725"/>
      <point x="331" y="725" type="curve" smooth="yes"/>
      <point x="337" y="725" type="line" smooth="yes"/>
      <point x="434" y="725"/>
      <point x="511" y="663"/>
      <point x="492" y="514" type="curve" smooth="yes"/>
      <point x="488" y="482"/>
      <point x="483" y="461"/>
      <point x="483" y="461" type="curve"/>
      <point x="442" y="398"/>
      <point x="377" y="355"/>
      <point x="297" y="355" type="curve" smooth="yes"/>
    </contour>
  </outline>
</glyph>
<glyph name="colon" format="1">
  <advance width="217"/>
  <unicode hex="003A"/>
  <outline>
    <contour>
      <point x="116" y="90" type="line"/>
      <point x="26" y="90" type="line"/>
      <point x="14" y="0" type="line"/>
      <point x="104" y="0" type="line"/>
    </contour>
    <contour>
      <point x="161" y="435" type="line"/>
      <point x="71" y="435" type="line"/>
      <point x="59" y="345" type="line"/>
      <point x="149" y="345" type="line"/>
    </contour>
  </outline>
</glyph>
<glyph name="semicolon" format="1">
  <advance width="217"/>
  <unicode hex="003B"/>
  <outline>
    <contour>
      <point x="116" y="90" type="line"/>
      <point x="26" y="90" type="line"/>
      <point x="14" y="0" type="line"/>
      <point x="59" y="0" type="line"/>
      <point x="47" y="-57"/>
      <point x="22" y="-76"/>
      <point x="-18" y="-76" type="curve"/>
      <point x="-24" y="-119" type="line"/>
      <point x="50" y="-119"/>
      <point x="94" y="-74"/>
      <point x="106" y="15" type="curve" smooth="yes"/>
    </contour>
    <contour>
      <point x="161" y="435" type="line"/>
      <point x="71" y="435" type="line"/>
      <point x="59" y="345" type="line"/>
      <point x="149" y="345" type="line"/>
    </contour>
  </outline>
</glyph>
<glyph name="less" format="1">
  <advance width="600"/>
  <unicode hex="003C"/>
  <outline>
    <contour>
      <point x="53" y="425" type="line"/>
      <point x="44" y="355" type="line"/>
      <point x="518" y="120" type="line"/>
      <point x="527" y="188" type="line"/>
      <point x="122" y="387" type="line"/>
      <point x="579" y="585" type="line"/>
      <point x="589" y="660" type="line"/>
    </contour>
  </outline>
</glyph>
<glyph name="equal" format="1">
  <advance width="600"/>
  <unicode hex="003D"/>
  <outline>
    <contour>
      <point x="59" y="459" type="line"/>
      <point x="564" y="459" type="line"/>
      <point x="573" y="525" type="line"/>
      <point x="68" y="525" type="line"/>
    </contour>
    <contour>
      <point x="29" y="255" type="line"/>
      <point x="534" y="255" type="line"/>
      <point x="543" y="321" type="line"/>
      <point x="38" y="321" type="line"/>
    </contour>
  </outline>
</glyph>
<glyph name="greater" format="1">
  <advance width="600"/>
  <unicode hex="003E"/>
  <outline>
    <contour>
      <point x="548" y="355" type="line"/>
      <point x="557" y="425" type="line"/>
      <point x="83" y="660" type="line"/>
      <point x="74" y="592" type="line"/>
      <point x="479" y="393" type="line"/>
      <point x="22" y="195" type="line"/>
      <point x="12" y="120" type="line"/>
    </contour>
  </outline>
</glyph>
<glyph name="question" format="1">
  <advance width="455"/>
  <unicode hex="003F"/>
  <outline>
    <contour>
      <point x="273" y="726" type="curve" smooth="yes"/>
      <point x="352" y="726"/>
      <point x="383" y="687"/>
      <point x="383" y="613" type="curve" smooth="yes"/>
      <point x="383" y="432"/>
      <point x="196" y="403"/>
      <point x="179" y="189" type="curve"/>
      <point x="226" y="189" type="line"/>
      <point x="261" y="400"/>
      <point x="457" y="394"/>
      <point x="457" y="618" type="curve" smooth="yes"/>
      <point x="457" y="725"/>
      <point x="405" y="791"/>
      <point x="275" y="791" type="curve" smooth="yes"/>
      <point x="121" y="791"/>
      <point x="69" y="688"/>
      <point x="45" y="518" type="curve" smooth="yes"/>
      <point x="43" y="504" type="line"/>
      <point x="114" y="504" type="line"/>
      <point x="131" y="640"/>
      <point x="168" y="726"/>
    </contour>
    <contour>
      <point x="234" y="90" type="line"/>
      <point x="144" y="90" type="line"/>
      <point x="132" y="0" type="line"/>
      <point x="222" y="0" type="line"/>
    </contour>
  </outline>
</glyph>
<glyph name="at" format="1">
  <advance width="961"/>
  <unicode hex="0040"/>
  <outline>
    <contour>
      <point x="435" y="-156" type="line" smooth="yes"/>
      <point x="194" y="-156"/>
      <point x="41" y="-7"/>
      <point x="76" y="270" type="curve" smooth="yes"/>
      <point x="81" y="310" type="line" smooth="yes"/>
      <point x="114" y="579"/>
      <point x="300" y="736"/>
      <point x="540" y="736" type="curve" smooth="yes"/>
      <point x="550" y="736" type="line" smooth="yes"/>
      <point x="739" y="736"/>
      <point x="903" y="644"/>
      <point x="872" y="394" type="curve" smooth="yes"/>
      <point x="867" y="354" type="line" smooth="yes"/>
      <point x="841" y="149"/>
      <point x="753" y="117"/>
      <point x="629" y="114" type="curve"/>
      <point x="664" y="380" type="line"/>
      <point x="689" y="530" type="line"/>
      <point x="635" y="530" type="line"/>
      <point x="617" y="457" type="line"/>
      <point x="596" y="502"/>
      <point x="550" y="541"/>
      <point x="475" y="541" type="curve" smooth="yes"/>
      <point x="332" y="541"/>
      <point x="262" y="429"/>
      <point x="245" y="307" type="curve" smooth="yes"/>
      <point x="242" y="285" type="line" smooth="yes"/>
      <point x="225" y="163"/>
      <point x="267" y="49"/>
      <point x="412" y="49" type="curve" smooth="yes"/>
      <point x="485" y="49"/>
      <point x="539" y="87"/>
      <point x="572" y="132" type="curve"/>
      <point x="573" y="60" type="line"/>
      <point x="619" y="60" type="line" smooth="yes"/>
      <point x="774" y="60"/>
      <point x="894" y="113"/>
      <point x="924" y="354" type="curve" smooth="yes"/>
      <point x="929" y="394" type="line" smooth="yes"/>
      <point x="963" y="668"/>
      <point x="780" y="791"/>
      <point x="545" y="791" type="curve" smooth="yes"/>
      <point x="271" y="791"/>
      <point x="62" y="613"/>
      <point x="24" y="310" type="curve" smooth="yes"/>
      <point x="19" y="270" type="line" smooth="yes"/>
      <point x="-19" y="-33"/>
      <point x="151" y="-211"/>
      <point x="440" y="-211" type="curve" smooth="yes"/>
      <point x="555" y="-211"/>
      <point x="707" y="-179"/>
      <point x="810" y="-93" type="curve"/>
      <point x="779" y="-50" type="line"/>
      <point x="695" y="-114"/>
      <point x="566" y="-156"/>
      <point x="445" y="-156" type="curve" smooth="yes"/>
    </contour>
    <contour>
      <point x="601" y="401" type="curve"/>
      <point x="573" y="189" type="line"/>
      <point x="547" y="155"/>
      <point x="494" y="109"/>
      <point x="421" y="109" type="curve" smooth="yes"/>
      <point x="329" y="109"/>
      <point x="297" y="185"/>
      <point x="311" y="287" type="curve" smooth="yes"/>
      <point x="314" y="309" type="line" smooth="yes"/>
      <point x="327" y="408"/>
      <point x="381" y="481"/>
      <point x="473" y="481" type="curve" smooth="yes"/>
      <point x="546" y="481"/>
      <point x="584" y="435"/>
    </contour>
  </outline>
</glyph>
<glyph name="A" format="1">
  <advance width="611"/>
  <unicode hex="0041"/>
  <outline>
    <contour>
      <point x="309" y="788" type="line"/>
      <point x="-20" y="0" type="line"/>
      <point x="59" y="0" type="line"/>
      <point x="141" y="200" type="line"/>
      <point x="427" y="200" type="line"/>
      <point x="457" y="0" type="line"/>
      <point x="533" y="0" type="line"/>
      <point x="411" y="788" type="line"/>
    </contour>
    <contour>
      <point x="351" y="709" type="line"/>
      <point x="417" y="265" type="line"/>
      <point x="168" y="265" type="line"/>
    </contour>
  </outline>
</glyph>
<glyph name="B" format="1">
  <advance width="586"/>
  <unicode hex="0042"/>
  <outline>
    <contour>
      <point x="127" y="780" type="line"/>
      <point x="25" y="0" type="line"/>
      <point x="244" y="0" type="line" smooth="yes"/>
      <point x="385" y="0"/>
      <point x="488" y="54"/>
      <point x="507" y="202" type="curve" smooth="yes"/>
      <point x="509" y="218" type="line" smooth="yes"/>
      <point x="522" y="318"/>
      <point x="466" y="388"/>
      <point x="395" y="401" type="curve"/>
      <point x="466" y="418"/>
      <point x="523" y="476"/>
      <point x="534" y="564" type="curve" smooth="yes"/>
      <point x="536" y="580" type="line" smooth="yes"/>
      <point x="554" y="723"/>
      <point x="461" y="780"/>
      <point x="331" y="780" type="curve" smooth="yes"/>
    </contour>
    <contour>
      <point x="300" y="368" type="line" smooth="yes"/>
      <point x="383" y="368"/>
      <point x="448" y="322"/>
      <point x="435" y="220" type="curve" smooth="yes"/>
      <point x="433" y="204" type="line" smooth="yes"/>
      <point x="420" y="102"/>
      <point x="348" y="65"/>
      <point x="252" y="65" type="curve" smooth="yes"/>
      <point x="105" y="65" type="line"/>
      <point x="145" y="368" type="line"/>
    </contour>
    <contour>
      <point x="326" y="715" type="line" smooth="yes"/>
      <point x="413" y="715"/>
      <point x="474" y="679"/>
      <point x="462" y="582" type="curve" smooth="yes"/>
      <point x="460" y="566" type="line" smooth="yes"/>
      <point x="448" y="469"/>
      <point x="378" y="433"/>
      <point x="288" y="433" type="curve" smooth="yes"/>
      <point x="154" y="433" type="line"/>
      <point x="191" y="715" type="line"/>
    </contour>
  </outline>
</glyph>
<glyph name="C" format="1">
  <advance width="618"/>
  <unicode hex="0043"/>
  <outline>
    <contour>
      <point x="135" y="410" type="line" smooth="yes"/>
      <point x="163" y="632"/>
      <point x="237" y="726"/>
      <point x="367" y="726" type="curve" smooth="yes"/>
      <point x="374" y="726" type="line" smooth="yes"/>
      <point x="491" y="726"/>
      <point x="531" y="657"/>
      <point x="510" y="496" type="curve"/>
      <point x="584" y="496" type="line"/>
      <point x="588" y="525" type="line" smooth="yes"/>
      <point x="612" y="701"/>
      <point x="539" y="791"/>
      <point x="373" y="791" type="curve" smooth="yes"/>
      <point x="194" y="791"/>
      <point x="95" y="680"/>
      <point x="61" y="410" type="curve" smooth="yes"/>
      <point x="56" y="370" type="line" smooth="yes"/>
      <point x="22" y="100"/>
      <point x="100" y="-11"/>
      <point x="279" y="-11" type="curve" smooth="yes"/>
      <point x="445" y="-11"/>
      <point x="527" y="76"/>
      <point x="550" y="240" type="curve" smooth="yes"/>
      <point x="552" y="254" type="line"/>
      <point x="478" y="254" type="line"/>
      <point x="461" y="125"/>
      <point x="403" y="54"/>
      <point x="286" y="54" type="curve" smooth="yes"/>
      <point x="279" y="54" type="line" smooth="yes"/>
      <point x="148" y="54"/>
      <point x="102" y="148"/>
      <point x="130" y="370" type="curve" smooth="yes"/>
    </contour>
  </outline>
</glyph>
<glyph name="F" format="1">
  <advance width="513"/>
  <unicode hex="0046"/>
  <outline>
    <contour>
      <point x="127" y="780" type="line"/>
      <point x="25" y="0" type="line"/>
      <point x="97" y="0" type="line"/>
      <point x="144" y="366" type="line"/>
      <point x="440" y="366" type="line"/>
      <point x="449" y="430" type="line"/>
      <point x="153" y="430" type="line"/>
      <point x="190" y="715" type="line"/>
      <point x="538" y="715" type="line"/>
      <point x="546" y="780" type="line"/>
    </contour>
  </outline>
</glyph>
<glyph name="H" format="1">
  <advance width="639"/>
  <unicode hex="0048"/>
  <outline>
    <contour>
      <point x="546" y="780" type="line"/>
      <point x="500" y="430" type="line"/>
      <point x="153" y="430" type="line"/>
      <point x="199" y="780" type="line"/>
      <point x="127" y="780" type="line"/>
      <point x="25" y="0" type="line"/>
      <point x="97" y="0" type="line"/>
      <point x="145" y="366" type="line"/>
      <point x="492" y="366" type="line"/>
      <point x="444" y="0" type="line"/>
      <point x="516" y="0" type="line"/>
      <point x="618" y="780" type="line"/>
    </contour>
  </outline>
</glyph>
<glyph name="I" format="1">
  <advance width="230"/>
  <unicode hex="0049"/>
  <outline>
    <contour>
      <point x="204" y="780" type="line"/>
      <point x="132" y="780" type="line"/>
      <point x="30" y="0" type="line"/>
      <point x="102" y="0" type="line"/>
    </contour>
  </outline>
</glyph>
<glyph name="J" format="1">
  <advance width="495"/>
  <unicode hex="004A"/>
  <outline>
    <contour>
      <point x="407" y="780" type="line"/>
      <point x="338" y="252" type="line" smooth="yes"/>
      <point x="319" y="110"/>
      <point x="277" y="54"/>
      <point x="185" y="54" type="curve" smooth="yes"/>
      <point x="92" y="54"/>
      <point x="60" y="110"/>
      <point x="81" y="254" type="curve"/>
      <point x="13" y="254" type="line"/>
      <point x="11" y="240" type="line" smooth="yes"/>
      <point x="-11" y="87"/>
      <point x="31" y="-11"/>
      <point x="187" y="-11" type="curve" smooth="yes"/>
      <point x="326" y="-11"/>
      <point x="387" y="78"/>
      <point x="408" y="240" type="curve" smooth="yes"/>
      <point x="479" y="780" type="line"/>
    </contour>
  </outline>
</glyph>
<glyph name="K" format="1">
  <advance width="562"/>
  <unicode hex="004B"/>
  <outline>
    <contour>
      <point x="199" y="780" type="line"/>
      <point x="127" y="780" type="line"/>
      <point x="25" y="0" type="line"/>
      <point x="97" y="0" type="line"/>
      <point x="128" y="240" type="line"/>
      <point x="252" y="387" type="line"/>
      <point x="399" y="0" type="line"/>
      <point x="479" y="0" type="line"/>
      <point x="305" y="451" type="line"/>
      <point x="581" y="780" type="line"/>
      <point x="492" y="780" type="line"/>
      <point x="143" y="357" type="line"/>
    </contour>
  </outline>
</glyph>
<glyph name="L" format="1">
  <advance width="491"/>
  <unicode hex="004C"/>
  <outline>
    <contour>
      <point x="427" y="0" type="line"/>
      <point x="435" y="65" type="line"/>
      <point x="105" y="65" type="line"/>
      <point x="199" y="780" type="line"/>
      <point x="127" y="780" type="line"/>
      <point x="25" y="0" type="line"/>
    </contour>
  </outline>
</glyph>
<glyph name="M" format="1">
  <advance width="803"/>
  <unicode hex="004D"/>
  <outline>
    <contour>
      <point x="698" y="655" type="line"/>
      <point x="671" y="481" type="line"/>
      <point x="609" y="0" type="line"/>
      <point x="681" y="0" type="line"/>
      <point x="783" y="780" type="line"/>
      <point x="680" y="780" type="line"/>
      <point x="366" y="124" type="line"/>
      <point x="226" y="780" type="line"/>
      <point x="127" y="780" type="line"/>
      <point x="25" y="0" type="line"/>
      <point x="97" y="0" type="line"/>
      <point x="159" y="481" type="line"/>
      <point x="179" y="655" type="line"/>
      <point x="320" y="0" type="line"/>
      <point x="385" y="0" type="line"/>
    </contour>
  </outline>
</glyph>
<glyph name="N" format="1">
  <advance width="659"/>
  <unicode hex="004E"/>
  <outline>
    <contour>
      <point x="638" y="780" type="line"/>
      <point x="568" y="780" type="line"/>
      <point x="506" y="305" type="line"/>
      <point x="485" y="122" type="line"/>
      <point x="203" y="780" type="line"/>
      <point x="127" y="780" type="line"/>
      <point x="25" y="0" type="line"/>
      <point x="95" y="0" type="line"/>
      <point x="157" y="475" type="line"/>
      <point x="178" y="658" type="line"/>
      <point x="460" y="0" type="line"/>
      <point x="536" y="0" type="line"/>
    </contour>
  </outline>
</glyph>
<glyph name="Q" format="1">
  <advance width="649"/>
  <unicode hex="0051"/>
  <outline>
    <contour>
      <point x="372" y="791" type="curve" smooth="yes"/>
      <point x="194" y="791"/>
      <point x="95" y="680"/>
      <point x="61" y="410" type="curve" smooth="yes"/>
      <point x="56" y="370" type="line" smooth="yes"/>
      <point x="22" y="100"/>
      <point x="102" y="-11"/>
      <point x="280" y="-11" type="curve" smooth="yes"/>
      <point x="296" y="-11"/>
      <point x="312" y="-10"/>
      <point x="328" y="-8" type="curve"/>
      <point x="350" y="-100" type="line"/>
      <point x="416" y="-100" type="line"/>
      <point x="388" y="6" type="line"/>
      <point x="499" y="47"/>
      <point x="564" y="160"/>
      <point x="591" y="370" type="curve" smooth="yes"/>
      <point x="596" y="410" type="line" smooth="yes"/>
      <point x="630" y="680"/>
      <point x="550" y="791"/>
    </contour>
    <contour>
      <point x="278" y="54" type="line" smooth="yes"/>
      <point x="147" y="54"/>
      <point x="102" y="148"/>
      <point x="130" y="370" type="curve" smooth="yes"/>
      <point x="135" y="410" type="line" smooth="yes"/>
      <point x="163" y="632"/>
      <point x="236" y="726"/>
      <point x="367" y="726" type="curve" smooth="yes"/>
      <point x="374" y="726" type="line" smooth="yes"/>
      <point x="505" y="726"/>
      <point x="550" y="632"/>
      <point x="522" y="410" type="curve" smooth="yes"/>
      <point x="517" y="370" type="line" smooth="yes"/>
      <point x="496" y="203"/>
      <point x="449" y="108"/>
      <point x="372" y="72" type="curve"/>
      <point x="333" y="226" type="line"/>
      <point x="271" y="226" type="line"/>
      <point x="312" y="55" type="line"/>
      <point x="303" y="54"/>
      <point x="294" y="54"/>
      <point x="285" y="54" type="curve" smooth="yes"/>
    </contour>
  </outline>
</glyph>
<glyph name="T" format="1">
  <advance width="515"/>
  <unicode hex="0054"/>
  <outline>
    <contour>
      <point x="338" y="715" type="line"/>
      <point x="537" y="715" type="line"/>
      <point x="545" y="780" type="line"/>
      <point x="76" y="780" type="line"/>
      <point x="68" y="715" type="line"/>
      <point x="266" y="715" type="line"/>
      <point x="172" y="0" type="line"/>
      <point x="244" y="0" type="line"/>
    </contour>
  </outline>
</glyph>
<glyph name="V" format="1">
  <advance width="611"/>
  <unicode hex="0056"/>
  <outline>
    <contour>
      <point x="306" y="-8" type="line"/>
      <point x="635" y="780" type="line"/>
      <point x="556" y="780" type="line"/>
      <point x="264" y="71" type="line"/>
      <point x="158" y="780" type="line"/>
      <point x="82" y="780" type="line"/>
      <point x="203" y="-8" type="line"/>
    </contour>
  </outline>
</glyph>
<glyph name="X" format="1">
  <advance width="613"/>
  <unicode hex="0058"/>
  <outline>
    <contour>
      <point x="-18" y="0" type="line"/>
      <point x="68" y="0" type="line"/>
      <point x="303" y="328" type="line"/>
      <point x="452" y="0" type="line"/>
      <point x="534" y="0" type="line"/>
      <point x="354" y="389" type="line"/>
      <point x="635" y="780" type="line"/>
      <point x="549" y="780" type="line"/>
      <point x="315" y="452" type="line"/>
      <point x="165" y="780" type="line"/>
      <point x="83" y="780" type="line"/>
      <point x="263" y="392" type="line"/>
    </contour>
  </outline>
</glyph>
<glyph name="bracketleft" format="1">
  <advance width="317"/>
  <unicode hex="005B"/>
  <outline>
    <contour>
      <point x="128" y="840" type="line"/>
      <point x="2" y="-120" type="line"/>
      <point x="210" y="-120" type="line"/>
      <point x="218" y="-55" type="line"/>
      <point x="81" y="-55" type="line"/>
      <point x="190" y="775" type="line"/>
      <point x="328" y="775" type="line"/>
      <point x="336" y="840" type="line"/>
    </contour>
  </outline>
</glyph>
<glyph name="backslash" format="1">
  <advance width="329"/>
  <unicode hex="005C"/>
  <outline>
    <contour>
      <point x="181" y="-120" type="line"/>
      <point x="249" y="-120" type="line"/>
      <point x="145" y="840" type="line"/>
      <point x="77" y="840" type="line"/>
    </contour>
  </outline>
</glyph>
<glyph name="bracketright" format="1">
  <advance width="317"/>
  <unicode hex="005D"/>
  <outline>
    <contour>
      <point x="185" y="-120" type="line"/>
      <point x="311" y="840" type="line"/>
      <point x="103" y="840" type="line"/>
      <point x="95" y="775" type="line"/>
      <point x="232" y="775" type="line"/>
      <point x="123" y="-55" type="line"/>
      <point x="-15" y="-55" type="line"/>
      <point x="-23" y="-120" type="line"/>
    </contour>
  </outline>
</glyph>
<glyph name="asciicircum" format="1">
  <advance width="600"/>
  <unicode hex="005E"/>
  <outline>
    <contour>
      <point x="388" y="780" type="line"/>
      <point x="318" y="780" type="line"/>
      <point x="16" y="276" type="line"/>
      <point x="91" y="276" type="line"/>
      <point x="345" y="701" type="line"/>
      <point x="488" y="276" type="line"/>
      <point x="557" y="276" type="line"/>
    </contour>
  </outline>
</glyph>
<glyph name="underscore" format="1">
  <advance width="320"/>
  <unicode hex="005F"/>
  <outline>
    <contour>
      <point x="-19" y="-135" type="line"/>
      <point x="205" y="-135" type="line"/>
      <point x="214" y="-71" type="line"/>
      <point x="-10" y="-71" type="line"/>
    </contour>
  </outline>
</glyph>
<glyph name="grave" format="1">
  <advance width="500"/>
  <unicode hex="0060"/>
  <outline>
    <contour>
      <point x="173" y="780" type="line"/>
      <point x="245" y="614" type="line"/>
      <point x="317" y="614" type="line"/>
      <point x="249" y="780" type="line"/>
    </contour>
  </outline>
</glyph>
<glyph name="c" format="1">
  <advance width="522"/>
  <unicode hex="0063"/>
  <outline>
    <contour>
      <point x="108" y="279" type="line" smooth="yes"/>
      <point x="125" y="403"/>
      <point x="182" y="478"/>
      <point x="280" y="478" type="curve" smooth="yes"/>
      <point x="378" y="478"/>
      <point x="413" y="415"/>
      <point x="401" y="336" type="curve"/>
      <point x="468" y="336" type="line"/>
      <point x="470" y="349" type="line" smooth="yes"/>
      <point x="483" y="434"/>
      <point x="440" y="541"/>
      <point x="280" y="541" type="curve" smooth="yes"/>
      <point x="130" y="541"/>
      <point x="58" y="430"/>
      <point x="37" y="277" type="curve" smooth="yes"/>
      <point x="34" y="255" type="line" smooth="yes"/>
      <point x="14" y="106"/>
      <point x="77" y="-11"/>
      <point x="234" y="-11" type="curve" smooth="yes"/>
      <point x="380" y="-11"/>
      <point x="432" y="79"/>
      <point x="446" y="171" type="curve" smooth="yes"/>
      <point x="448" y="184" type="line"/>
      <point x="380" y="184" type="line"/>
      <point x="369" y="113"/>
      <point x="332" y="52"/>
      <point x="234" y="52" type="curve" smooth="yes"/>
      <point x="130" y="52"/>
      <point x="88" y="131"/>
      <point x="105" y="257" type="curve" smooth="yes"/>
    </contour>
  </outline>
</glyph>
<glyph name="j" format="1">
  <advance width="216"/>
  <unicode hex="006A"/>
  <outline>
    <contour>
      <point x="18" y="-49" type="line" smooth="yes"/>
      <point x="8" y="-126"/>
      <point x="-31" y="-148"/>
      <point x="-92" y="-148" type="curve" smooth="yes"/>
      <point x="-115" y="-148"/>
      <point x="-143" y="-142"/>
      <point x="-152" y="-138" type="curve"/>
      <point x="-160" y="-199" type="line"/>
      <point x="-152" y="-203"/>
      <point x="-125" y="-211"/>
      <point x="-88" y="-211" type="curve" smooth="yes"/>
      <point x="7" y="-211"/>
      <point x="72" y="-169"/>
      <point x="86" y="-63" type="curve" smooth="yes"/>
      <point x="163" y="530" type="line"/>
      <point x="93" y="530" type="line"/>
    </contour>
    <contour>
      <point x="202" y="745" type="line"/>
      <point x="112" y="745" type="line"/>
      <point x="100" y="655" type="line"/>
      <point x="190" y="655" type="line"/>
    </contour>
  </outline>
</glyph>
<glyph name="k" format="1">
  <advance width="501"/>
  <unicode hex="006B"/>
  <outline>
    <contour>
      <point x="16" y="0" type="line"/>
      <point x="86" y="0" type="line"/>
      <point x="106" y="158" type="line"/>
      <point x="232" y="280" type="line"/>
      <point x="349" y="0" type="line"/>
      <point x="425" y="0" type="line"/>
      <point x="285" y="330" type="line"/>
      <point x="494" y="530" type="line"/>
      <point x="405" y="530" type="line"/>
      <point x="119" y="254" type="line"/>
      <point x="191" y="800" type="line"/>
      <point x="121" y="800" type="line"/>
    </contour>
  </outline>
</glyph>
<glyph name="l" format="1">
  <advance width="216"/>
  <unicode hex="006C"/>
  <outline>
    <contour>
      <point x="24" y="0" type="line"/>
      <point x="94" y="0" type="line"/>
      <point x="199" y="800" type="line"/>
      <point x="129" y="800" type="line"/>
    </contour>
  </outline>
</glyph>
<glyph name="n" format="1">
  <advance width="528"/>
  <unicode hex="006E"/>
  <outline>
    <contour>
      <point x="416" y="0" type="line"/>
      <point x="465" y="371" type="line" smooth="yes"/>
      <point x="478" y="471"/>
      <point x="429" y="541"/>
      <point x="314" y="541" type="curve" smooth="yes"/>
      <point x="237" y="541"/>
      <point x="177" y="507"/>
      <point x="140" y="456" type="curve"/>
      <point x="140" y="530" type="line"/>
      <point x="80" y="530" type="line"/>
      <point x="67" y="386" type="line"/>
      <point x="16" y="0" type="line"/>
      <point x="86" y="0" type="line"/>
      <point x="138" y="395" type="line"/>
      <point x="163" y="429"/>
      <point x="212" y="478"/>
      <point x="290" y="478" type="curve" smooth="yes"/>
      <point x="365" y="478"/>
      <point x="405" y="441"/>
      <point x="394" y="361" type="curve" smooth="yes"/>
      <point x="346" y="0" type="line"/>
    </contour>
  </outline>
</glyph>
<glyph name="q" format="1">
  <advance width="539"/>
  <unicode hex="0071"/>
  <outline>
    <contour>
      <point x="327" y="-200" type="line"/>
      <point x="397" y="-200" type="line"/>
      <point x="473" y="380" type="line"/>
      <point x="498" y="530" type="line"/>
      <point x="440" y="530" type="line"/>
      <point x="421" y="453" type="line"/>
      <point x="403" y="492"/>
      <point x="351" y="541"/>
      <point x="270" y="541" type="curve" smooth="yes"/>
      <point x="127" y="541"/>
      <point x="57" y="431"/>
      <point x="36" y="277" type="curve" smooth="yes"/>
      <point x="33" y="255" type="line" smooth="yes"/>
      <point x="12" y="104"/>
      <point x="66" y="-11"/>
      <point x="211" y="-11" type="curve" smooth="yes"/>
      <point x="277" y="-11"/>
      <point x="330" y="18"/>
      <point x="361" y="56" type="curve"/>
    </contour>
    <contour>
      <point x="370" y="129" type="line"/>
      <point x="340" y="88"/>
      <point x="296" y="52"/>
      <point x="228" y="52" type="curve" smooth="yes"/>
      <point x="128" y="52"/>
      <point x="87" y="130"/>
      <point x="104" y="257" type="curve" smooth="yes"/>
      <point x="107" y="279" type="line" smooth="yes"/>
      <point x="124" y="402"/>
      <point x="179" y="478"/>
      <point x="279" y="478" type="curve" smooth="yes"/>
      <point x="349" y="478"/>
      <point x="388" y="430"/>
      <point x="405" y="392" type="curve"/>
    </contour>
  </outline>
</glyph>
<glyph name="v" format="1">
  <advance width="512"/>
  <unicode hex="0076"/>
  <outline>
    <contour>
      <point x="161" y="0" type="line"/>
      <point x="253" y="0" type="line"/>
      <point x="508" y="530" type="line"/>
      <point x="431" y="530" type="line"/>
      <point x="213" y="66" type="line"/>
      <point x="118" y="530" type="line"/>
      <point x="45" y="530" type="line"/>
    </contour>
  </outline>
</glyph>
<glyph name="w" format="1">
  <advance width="717"/>
  <unicode hex="0077"/>
  <outline>
    <contour>
      <point x="368" y="452" type="line"/>
      <point x="430" y="0" type="line"/>
      <point x="523" y="0" type="line"/>
      <point x="706" y="530" type="line"/>
      <point x="635" y="530" type="line"/>
      <point x="483" y="73" type="line"/>
      <point x="420" y="530" type="line"/>
      <point x="335" y="530" type="line"/>
      <point x="153" y="73" type="line"/>
      <point x="120" y="530" type="line"/>
      <point x="51" y="530" type="line"/>
      <point x="96" y="0" type="line"/>
      <point x="188" y="0" type="line"/>
    </contour>
  </outline>
</glyph>
<glyph name="x" format="1">
  <advance width="485"/>
  <unicode hex="0078"/>
  <outline>
    <contour>
      <point x="43" y="530" type="line"/>
      <point x="186" y="267" type="line"/>
      <point x="-26" y="0" type="line"/>
      <point x="59" y="0" type="line"/>
      <point x="222" y="210" type="line"/>
      <point x="332" y="0" type="line"/>
      <point x="413" y="0" type="line"/>
      <point x="269" y="264" type="line"/>
      <point x="482" y="530" type="line"/>
      <point x="397" y="530" type="line"/>
      <point x="234" y="320" type="line"/>
      <point x="124" y="530" type="line"/>
    </contour>
  </outline>
</glyph>
<glyph name="braceleft" format="1">
  <advance width="317"/>
  <unicode hex="007B"/>
  <outline>
    <contour>
      <point x="336" y="840" type="line"/>
      <point x="318" y="840" type="line" smooth="yes"/>
      <point x="245" y="840"/>
      <point x="167" y="812"/>
      <point x="153" y="702" type="curve" smooth="yes"/>
      <point x="124" y="481" type="line" smooth="yes"/>
      <point x="114" y="408"/>
      <point x="84" y="393"/>
      <point x="26" y="393" type="curve"/>
      <point x="18" y="327" type="line"/>
      <point x="76" y="327"/>
      <point x="102" y="312"/>
      <point x="92" y="239" type="curve" smooth="yes"/>
      <point x="64" y="24" type="line" smooth="yes"/>
      <point x="50" y="-85"/>
      <point x="117" y="-120"/>
      <point x="192" y="-120" type="curve" smooth="yes"/>
      <point x="210" y="-120" type="line"/>
      <point x="218" y="-55" type="line"/>
      <point x="149" y="-55"/>
      <point x="126" y="-37"/>
      <point x="138" y="50" type="curve" smooth="yes"/>
      <point x="165" y="257" type="line" smooth="yes"/>
      <point x="172" y="314"/>
      <point x="155" y="343"/>
      <point x="116" y="360" type="curve"/>
      <point x="159" y="376"/>
      <point x="184" y="406"/>
      <point x="192" y="462" type="curve" smooth="yes"/>
      <point x="219" y="669" type="line" smooth="yes"/>
      <point x="230" y="753"/>
      <point x="262" y="775"/>
      <point x="328" y="775" type="curve"/>
    </contour>
  </outline>
</glyph>
<glyph name="bar" format="1">
  <advance width="201"/>
  <unicode hex="007C"/>
  <outline>
    <contour>
      <point x="1" y="-120" type="line"/>
      <point x="71" y="-120" type="line"/>
      <point x="197" y="840" type="line"/>
      <point x="127" y="840" type="line"/>
    </contour>
  </outline>
</glyph>
<glyph name="braceright" format="1">
  <advance width="317"/>
  <unicode hex="007D"/>
  <outline>
    <contour>
      <point x="-23" y="-120" type="line"/>
      <point x="-5" y="-120" type="line" smooth="yes"/>
      <point x="68" y="-120"/>
      <point x="146" y="-92"/>
      <point x="160" y="18" type="curve" smooth="yes"/>
      <point x="189" y="239" type="line" smooth="yes"/>
      <point x="199" y="312"/>
      <point x="229" y="327"/>
      <point x="287" y="327" type="curve"/>
      <point x="295" y="393" type="line"/>
      <point x="237" y="393"/>
      <point x="211" y="408"/>
      <point x="221" y="481" type="curve" smooth="yes"/>
      <point x="249" y="696" type="line" smooth="yes"/>
      <point x="263" y="805"/>
      <point x="196" y="840"/>
      <point x="121" y="840" type="curve" smooth="yes"/>
      <point x="103" y="840" type="line"/>
      <point x="95" y="775" type="line"/>
      <point x="164" y="775"/>
      <point x="187" y="757"/>
      <point x="175" y="670" type="curve" smooth="yes"/>
      <point x="148" y="463" type="line" smooth="yes"/>
      <point x="141" y="406"/>
      <point x="158" y="377"/>
      <point x="197" y="360" type="curve"/>
      <point x="154" y="344"/>
      <point x="129" y="314"/>
      <point x="121" y="258" type="curve" smooth="yes"/>
      <point x="94" y="51" type="line" smooth="yes"/>
      <point x="83" y="-33"/>
      <point x="51" y="-55"/>
      <point x="-15" y="-55" type="curve"/>
    </contour>
  </outline>
</glyph>
<glyph name="asciitilde" format="1">
  <advance width="600"/>
  <unicode hex="007E"/>
  <outline>
    <contour>
      <point x="180" y="451" type="curve" smooth="yes"/>
      <point x="110" y="451"/>
      <point x="62" y="412"/>
      <point x="36" y="375" type="curve"/>
      <point x="74" y="335" type="line"/>
      <point x="96" y="363"/>
      <point x="128" y="391"/>
      <point x="180" y="391" type="curve" smooth="yes"/>
      <point x="269" y="391"/>
      <point x="315" y="320"/>
      <point x="422" y="320" type="curve" smooth="yes"/>
      <point x="492" y="320"/>
      <point x="540" y="359"/>
      <point x="566" y="396" type="curve"/>
      <point x="528" y="436" type="line"/>
      <point x="506" y="408"/>
      <point x="474" y="380"/>
      <point x="422" y="380" type="curve" smooth="yes"/>
      <point x="333" y="380"/>
      <point x="287" y="451"/>
    </contour>
  </outline>
</glyph>
<glyph name="exclamdown" format="1">
  <advance width="217"/>
  <unicode hex="00A1"/>
  <outline>
    <contour>
      <point x="75" y="-200" type="line"/>
      <point x="127" y="341" type="line"/>
      <point x="81" y="341" type="line"/>
      <point x="-10" y="-200" type="line"/>
    </contour>
    <contour>
      <point x="72" y="440" type="line"/>
      <point x="162" y="440" type="line"/>
      <point x="174" y="530" type="line"/>
      <point x="84" y="530" type="line"/>
    </contour>
  </outline>
</glyph>
<glyph name="cent" format="1">
  <advance width="600"/>
  <unicode hex="00A2"/>
  <outline>
    <contour>
      <point x="496" y="840" type="line"/>
      <point x="434" y="840" type="line"/>
      <point x="391" y="725" type="line"/>
      <point x="385" y="726"/>
      <point x="370" y="727"/>
      <point x="352" y="727" type="curve" smooth="yes"/>
      <point x="192" y="727"/>
      <point x="92" y="619"/>
      <point x="66" y="410" type="curve" smooth="yes"/>
      <point x="61" y="370" type="line" smooth="yes"/>
      <point x="42" y="221"/>
      <point x="76" y="127"/>
      <point x="154" y="82" type="curve"/>
      <point x="102" y="-60" type="line"/>
      <point x="163" y="-60" type="line"/>
      <point x="208" y="62" type="line"/>
      <point x="227" y="58"/>
      <point x="247" y="55"/>
      <point x="280" y="55" type="curve" smooth="yes"/>
      <point x="427" y="55"/>
      <point x="505" y="136"/>
      <point x="524" y="268" type="curve" smooth="yes"/>
      <point x="526" y="282" type="line"/>
      <point x="455" y="282" type="line"/>
      <point x="442" y="181"/>
      <point x="391" y="120"/>
      <point x="282" y="120" type="curve" smooth="yes"/>
      <point x="279" y="120" type="line" smooth="yes"/>
      <point x="261" y="120"/>
      <point x="245" y="121"/>
      <point x="231" y="125" type="curve"/>
      <point x="425" y="648" type="line"/>
      <point x="477" y="623"/>
      <point x="494" y="567"/>
      <point x="481" y="477" type="curve"/>
      <point x="551" y="477" type="line"/>
      <point x="553" y="490" type="line" smooth="yes"/>
      <point x="569" y="593"/>
      <point x="538" y="684"/>
      <point x="449" y="714" type="curve"/>
    </contour>
    <contour>
      <point x="140" y="410" type="line" smooth="yes"/>
      <point x="161" y="581"/>
      <point x="234" y="661"/>
      <point x="351" y="661" type="curve" smooth="yes"/>
      <point x="354" y="661" type="line" smooth="yes"/>
      <point x="358" y="661"/>
      <point x="368" y="660"/>
      <point x="368" y="660" type="curve"/>
      <point x="180" y="152" type="line"/>
      <point x="136" y="192"/>
      <point x="121" y="261"/>
      <point x="135" y="370" type="curve" smooth="yes"/>
    </contour>
  </outline>
</glyph>
<glyph name="sterling" format="1">
  <advance width="600"/>
  <unicode hex="00A3"/>
  <outline>
    <contour>
      <point x="366" y="726" type="curve" smooth="yes"/>
      <point x="487" y="726"/>
      <point x="514" y="630"/>
      <point x="494" y="500" type="curve"/>
      <point x="564" y="500" type="line"/>
      <point x="568" y="529" type="line" smooth="yes"/>
      <point x="589" y="684"/>
      <point x="538" y="791"/>
      <point x="366" y="791" type="curve" smooth="yes"/>
      <point x="198" y="791"/>
      <point x="137" y="674"/>
      <point x="137" y="517" type="curve" smooth="yes"/>
      <point x="137" y="467"/>
      <point x="139" y="440"/>
      <point x="141" y="416" type="curve"/>
      <point x="61" y="416" type="line"/>
      <point x="52" y="351" type="line"/>
      <point x="152" y="351" type="line"/>
      <point x="165" y="259"/>
      <point x="185" y="169"/>
      <point x="180" y="66" type="curve"/>
      <point x="15" y="66" type="line"/>
      <point x="7" y="0" type="line"/>
      <point x="495" y="0" type="line"/>
      <point x="504" y="66" type="line"/>
      <point x="244" y="66" type="line"/>
      <point x="252" y="162"/>
      <point x="237" y="261"/>
      <point x="226" y="351" type="curve"/>
      <point x="409" y="351" type="line"/>
      <point x="418" y="416" type="line"/>
      <point x="218" y="416" type="line"/>
      <point x="214" y="449"/>
      <point x="211" y="483"/>
      <point x="211" y="509" type="curve" smooth="yes"/>
      <point x="211" y="640"/>
      <point x="252" y="726"/>
    </contour>
  </outline>
</glyph>
<glyph name="yen" format="1">
  <advance width="600"/>
  <unicode hex="00A5"/>
  <outline>
    <contour>
      <point x="49" y="414" type="line"/>
      <point x="192" y="414" type="line"/>
      <point x="239" y="280" type="line"/>
      <point x="31" y="280" type="line"/>
      <point x="23" y="214" type="line"/>
      <point x="243" y="214" type="line"/>
      <point x="215" y="0" type="line"/>
      <point x="287" y="0" type="line"/>
      <point x="315" y="214" type="line"/>
      <point x="535" y="214" type="line"/>
      <point x="543" y="280" type="line"/>
      <point x="334" y="280" type="line"/>
      <point x="417" y="414" type="line"/>
      <point x="561" y="414" type="line"/>
      <point x="570" y="480" type="line"/>
      <point x="455" y="480" type="line"/>
      <point x="636" y="780" type="line"/>
      <point x="553" y="780" type="line"/>
      <point x="292" y="338" type="line"/>
      <point x="146" y="780" type="line"/>
      <point x="70" y="780" type="line"/>
      <point x="172" y="480" type="line"/>
      <point x="58" y="480" type="line"/>
    </contour>
  </outline>
</glyph>
<glyph name="brokenbar" format="1">
  <advance width="201"/>
  <unicode hex="00A6"/>
  <outline>
    <contour>
      <point x="69" y="396" type="line"/>
      <point x="139" y="396" type="line"/>
      <point x="197" y="840" type="line"/>
      <point x="127" y="840" type="line"/>
    </contour>
    <contour>
      <point x="1" y="-120" type="line"/>
      <point x="71" y="-120" type="line"/>
      <point x="129" y="324" type="line"/>
      <point x="59" y="324" type="line"/>
    </contour>
  </outline>
</glyph>
<glyph name="section" format="1">
  <advance width="513"/>
  <unicode hex="00A7"/>
  <outline>
    <contour>
      <point x="243" y="289" type="line" smooth="yes"/>
      <point x="170" y="289"/>
      <point x="113" y="313"/>
      <point x="113" y="372" type="curve" smooth="yes"/>
      <point x="113" y="441"/>
      <point x="167" y="491"/>
      <point x="263" y="491" type="curve" smooth="yes"/>
      <point x="274" y="491" type="line" smooth="yes"/>
      <point x="347" y="491"/>
      <point x="404" y="467"/>
      <point x="404" y="408" type="curve" smooth="yes"/>
      <point x="404" y="339"/>
      <point x="349" y="289"/>
      <point x="254" y="289" type="curve" smooth="yes"/>
    </contour>
    <contour>
      <point x="345" y="259" type="curve"/>
      <point x="428" y="281"/>
      <point x="464" y="321"/>
      <point x="472" y="383" type="curve" smooth="yes"/>
      <point x="473" y="391" type="line" smooth="yes"/>
      <point x="485" y="486"/>
      <point x="427" y="534"/>
      <point x="307" y="549" type="curve" smooth="yes"/>
      <point x="209" y="561"/>
      <point x="176" y="581"/>
      <point x="176" y="628" type="curve" smooth="yes"/>
      <point x="176" y="699"/>
      <point x="225" y="728"/>
      <point x="311" y="728" type="curve" smooth="yes"/>
      <point x="411" y="728"/>
      <point x="439" y="685"/>
      <point x="429" y="609" type="curve"/>
      <point x="497" y="609" type="line"/>
      <point x="499" y="622" type="line" smooth="yes"/>
      <point x="514" y="720"/>
      <point x="462" y="791"/>
      <point x="311" y="791" type="curve" smooth="yes"/>
      <point x="185" y="791"/>
      <point x="118" y="740"/>
      <point x="107" y="651" type="curve" smooth="yes"/>
      <point x="106" y="643" type="line" smooth="yes"/>
      <point x="98" y="577"/>
      <point x="130" y="536"/>
      <point x="172" y="521" type="curve"/>
      <point x="89" y="499"/>
      <point x="53" y="459"/>
      <point x="45" y="397" type="curve" smooth="yes"/>
      <point x="44" y="389" type="line" smooth="yes"/>
      <point x="32" y="294"/>
      <point x="90" y="246"/>
      <point x="210" y="231" type="curve" smooth="yes"/>
      <point x="308" y="219"/>
      <point x="341" y="199"/>
      <point x="341" y="152" type="curve" smooth="yes"/>
      <point x="341" y="81"/>
      <point x="292" y="52"/>
      <point x="206" y="52" type="curve" smooth="yes"/>
      <point x="106" y="52"/>
      <point x="78" y="95"/>
      <point x="88" y="171" type="curve"/>
      <point x="20" y="171" type="line"/>
      <point x="18" y="158" type="line" smooth="yes"/>
      <point x="3" y="60"/>
      <point x="55" y="-11"/>
      <point x="206" y="-11" type="curve" smooth="yes"/>
      <point x="332" y="-11"/>
      <point x="399" y="40"/>
      <point x="410" y="129" type="curve" smooth="yes"/>
      <point x="411" y="137" type="line" smooth="yes"/>
      <point x="419" y="203"/>
      <point x="387" y="244"/>
    </contour>
  </outline>
</glyph>
<glyph name="dieresis" format="1">
  <advance width="500"/>
  <unicode hex="00A8"/>
  <outline>
    <contour>
      <point x="260" y="745" type="line"/>
      <point x="170" y="745" type="line"/>
      <point x="158" y="655" type="line"/>
      <point x="248" y="655" type="line"/>
    </contour>
    <contour>
      <point x="427" y="745" type="line"/>
      <point x="337" y="745" type="line"/>
      <point x="325" y="655" type="line"/>
      <point x="415" y="655" type="line"/>
    </contour>
  </outline>
</glyph>
<glyph name="ordfeminine" format="1">
  <advance width="390"/>
  <unicode hex="00AA"/>
  <outline>
    <contour>
      <point x="300" y="388" type="line"/>
      <point x="353" y="388" type="line"/>
      <point x="363" y="499" type="line"/>
      <point x="382" y="640" type="line" smooth="yes"/>
      <point x="394" y="728"/>
      <point x="366" y="791"/>
      <point x="244" y="791" type="curve" smooth="yes"/>
      <point x="135" y="791"/>
      <point x="100" y="726"/>
      <point x="91" y="665" type="curve" smooth="yes"/>
      <point x="89" y="652" type="line"/>
      <point x="150" y="652" type="line"/>
      <point x="157" y="699"/>
      <point x="175" y="739"/>
      <point x="244" y="739" type="curve" smooth="yes"/>
      <point x="309" y="739"/>
      <point x="329" y="705"/>
      <point x="320" y="648" type="curve" smooth="yes"/>
      <point x="318" y="635" type="line"/>
      <point x="202" y="618" type="line" smooth="yes"/>
      <point x="121" y="606"/>
      <point x="68" y="583"/>
      <point x="56" y="506" type="curve" smooth="yes"/>
      <point x="54" y="493" type="line" smooth="yes"/>
      <point x="44" y="429"/>
      <point x="79" y="379"/>
      <point x="163" y="379" type="curve" smooth="yes"/>
      <point x="221" y="379"/>
      <point x="277" y="408"/>
      <point x="300" y="441" type="curve"/>
    </contour>
    <contour>
      <point x="180" y="433" type="curve" smooth="yes"/>
      <point x="130" y="433"/>
      <point x="110" y="454"/>
      <point x="116" y="491" type="curve" smooth="yes"/>
      <point x="118" y="504" type="line" smooth="yes"/>
      <point x="125" y="546"/>
      <point x="153" y="567"/>
      <point x="204" y="575" type="curve" smooth="yes"/>
      <point x="312" y="592" type="line"/>
      <point x="299" y="488" type="line"/>
      <point x="281" y="467"/>
      <point x="234" y="433"/>
    </contour>
    <contour>
      <point x="330" y="212" type="line"/>
      <point x="338" y="269" type="line"/>
      <point x="33" y="269" type="line"/>
      <point x="25" y="212" type="line"/>
    </contour>
  </outline>
</glyph>
<glyph name="guillemotleft" format="1">
  <advance width="517"/>
  <unicode hex="00AB"/>
  <outline>
    <contour>
      <point x="273" y="524" type="line"/>
      <point x="49" y="372" type="line"/>
      <point x="41" y="310" type="line"/>
      <point x="225" y="157" type="line"/>
      <point x="234" y="224" type="line"/>
      <point x="100" y="338" type="line"/>
      <point x="264" y="451" type="line"/>
    </contour>
    <contour>
      <point x="486" y="524" type="line"/>
      <point x="262" y="372" type="line"/>
      <point x="254" y="310" type="line"/>
      <point x="438" y="157" type="line"/>
      <point x="447" y="224" type="line"/>
      <point x="313" y="338" type="line"/>
      <point x="477" y="451" type="line"/>
    </contour>
  </outline>
</glyph>
<glyph name="logicalnot" format="1">
  <advance width="600"/>
  <unicode hex="00AC"/>
  <outline>
    <contour>
      <point x="63" y="491" type="line"/>
      <point x="499" y="491" type="line"/>
      <point x="462" y="213" type="line"/>
      <point x="530" y="213" type="line"/>
      <point x="575" y="557" type="line"/>
      <point x="72" y="557" type="line"/>
    </contour>
  </outline>
</glyph>
<glyph name="uni00AD" format="1">
  <advance width="329"/>
  <unicode hex="00AD"/>
  <outline>
    <contour>
      <point x="280" y="318" type="line"/>
      <point x="289" y="382" type="line"/>
      <point x="41" y="382" type="line"/>
      <point x="32" y="318" type="line"/>
    </contour>
  </outline>
</glyph>
<glyph name="registered" format="1">
  <advance width="330"/>
  <unicode hex="00AE"/>
  <outline>
    <contour>
      <point x="19" y="665" type="curve" smooth="yes"/>
      <point x="19" y="585"/>
      <point x="85" y="519"/>
      <point x="165" y="519" type="curve" smooth="yes"/>
      <point x="245" y="519"/>
      <point x="311" y="585"/>
      <point x="311" y="665" type="curve" smooth="yes"/>
      <point x="311" y="745"/>
      <point x="245" y="811"/>
      <point x="165" y="811" type="curve" smooth="yes"/>
      <point x="85" y="811"/>
      <point x="19" y="745"/>
    </contour>
    <contour>
      <point x="43" y="665" type="curve" smooth="yes"/>
      <point x="43" y="732"/>
      <point x="98" y="787"/>
      <point x="165" y="787" type="curve" smooth="yes"/>
      <point x="232" y="787"/>
      <point x="287" y="732"/>
      <point x="287" y="665" type="curve" smooth="yes"/>
      <point x="287" y="598"/>
      <point x="232" y="543"/>
      <point x="165" y="543" type="curve" smooth="yes"/>
      <point x="98" y="543"/>
      <point x="43" y="598"/>
    </contour>
    <contour>
      <point x="229" y="693" type="curve" smooth="yes"/>
      <point x="229" y="700" type="line" smooth="yes"/>
      <point x="229" y="734"/>
      <point x="205" y="751"/>
      <point x="173" y="751" type="curve" smooth="yes"/>
      <point x="101" y="751" type="line"/>
      <point x="101" y="579" type="line"/>
      <point x="136" y="579" type="line"/>
      <point x="136" y="642" type="line"/>
      <point x="166" y="642" type="line"/>
      <point x="193" y="579" type="line"/>
      <point x="229" y="579" type="line"/>
      <point x="199" y="646" type="line"/>
      <point x="217" y="653"/>
      <point x="229" y="668"/>
    </contour>
    <contour>
      <point x="194" y="698" type="curve" smooth="yes"/>
      <point x="194" y="695" type="line" smooth="yes"/>
      <point x="194" y="678"/>
      <point x="184" y="671"/>
      <point x="166" y="671" type="curve" smooth="yes"/>
      <point x="136" y="671" type="line"/>
      <point x="136" y="721" type="line"/>
      <point x="166" y="721" type="line" smooth="yes"/>
      <point x="184" y="721"/>
      <point x="194" y="714"/>
    </contour>
  </outline>
</glyph>
<glyph name="macron" format="1">
  <advance width="500"/>
  <unicode hex="00AF"/>
  <outline>
    <contour>
      <point x="171" y="664" type="line"/>
      <point x="405" y="664" type="line"/>
      <point x="413" y="730" type="line"/>
      <point x="180" y="730" type="line"/>
    </contour>
  </outline>
</glyph>
<glyph name="degree" format="1">
  <advance width="400"/>
  <unicode hex="00B0"/>
  <outline>
    <contour>
      <point x="220" y="538" type="line" smooth="yes"/>
      <point x="160" y="538"/>
      <point x="128" y="577"/>
      <point x="134" y="634" type="curve" smooth="yes"/>
      <point x="135" y="643" type="line" smooth="yes"/>
      <point x="142" y="710"/>
      <point x="184" y="737"/>
      <point x="240" y="737" type="curve" smooth="yes"/>
      <point x="248" y="737" type="line" smooth="yes"/>
      <point x="308" y="737"/>
      <point x="340" y="698"/>
      <point x="334" y="641" type="curve" smooth="yes"/>
      <point x="333" y="632" type="line" smooth="yes"/>
      <point x="326" y="565"/>
      <point x="284" y="538"/>
      <point x="228" y="538" type="curve" smooth="yes"/>
    </contour>
    <contour>
      <point x="244" y="791" type="curve" smooth="yes"/>
      <point x="155" y="791"/>
      <point x="92" y="740"/>
      <point x="81" y="643" type="curve" smooth="yes"/>
      <point x="80" y="634" type="line" smooth="yes"/>
      <point x="69" y="539"/>
      <point x="130" y="484"/>
      <point x="224" y="484" type="curve" smooth="yes"/>
      <point x="313" y="484"/>
      <point x="376" y="535"/>
      <point x="387" y="632" type="curve" smooth="yes"/>
      <point x="388" y="641" type="line" smooth="yes"/>
      <point x="399" y="736"/>
      <point x="338" y="791"/>
    </contour>
  </outline>
</glyph>
<glyph name="plusminus" format="1">
  <advance width="600"/>
  <unicode hex="00B1"/>
  <outline>
    <contour>
      <point x="303" y="649" type="line"/>
      <point x="284" y="509" type="line"/>
      <point x="65" y="509" type="line"/>
      <point x="56" y="443" type="line"/>
      <point x="275" y="443" type="line"/>
      <point x="256" y="303" type="line"/>
      <point x="323" y="303" type="line"/>
      <point x="342" y="443" type="line"/>
      <point x="561" y="443" type="line"/>
      <point x="570" y="509" type="line"/>
      <point x="351" y="509" type="line"/>
      <point x="370" y="649" type="line"/>
    </contour>
    <contour>
      <point x="19" y="161" type="line"/>
      <point x="524" y="161" type="line"/>
      <point x="533" y="227" type="line"/>
      <point x="28" y="227" type="line"/>
    </contour>
  </outline>
</glyph>
<glyph name="twosuperior" format="1">
  <advance width="300"/>
  <unicode hex="00B2"/>
  <outline>
    <contour>
      <point x="284" y="439" type="line"/>
      <point x="111" y="439" type="line"/>
      <point x="255" y="572" type="line" smooth="yes"/>
      <point x="286" y="601"/>
      <point x="308" y="625"/>
      <point x="313" y="668" type="curve" smooth="yes"/>
      <point x="314" y="676" type="line" smooth="yes"/>
      <point x="321" y="734"/>
      <point x="288" y="786"/>
      <point x="197" y="786" type="curve" smooth="yes"/>
      <point x="113" y="786"/>
      <point x="74" y="742"/>
      <point x="64" y="672" type="curve" smooth="yes"/>
      <point x="61" y="650" type="line"/>
      <point x="117" y="650" type="line"/>
      <point x="123" y="713"/>
      <point x="154" y="736"/>
      <point x="194" y="736" type="curve" smooth="yes"/>
      <point x="200" y="736" type="line" smooth="yes"/>
      <point x="237" y="736"/>
      <point x="263" y="717"/>
      <point x="257" y="672" type="curve" smooth="yes"/>
      <point x="256" y="664" type="line" smooth="yes"/>
      <point x="253" y="640"/>
      <point x="241" y="623"/>
      <point x="214" y="598" type="curve" smooth="yes"/>
      <point x="32" y="430" type="line"/>
      <point x="27" y="390" type="line"/>
      <point x="277" y="390" type="line"/>
    </contour>
  </outline>
</glyph>
<glyph name="threesuperior" format="1">
  <advance width="300"/>
  <unicode hex="00B3"/>
  <outline>
    <contour>
      <point x="97" y="515" type="curve"/>
      <point x="40" y="515" type="line"/>
      <point x="39" y="507" type="line" smooth="yes"/>
      <point x="29" y="429"/>
      <point x="62" y="383"/>
      <point x="157" y="383" type="curve" smooth="yes"/>
      <point x="235" y="383"/>
      <point x="283" y="430"/>
      <point x="291" y="491" type="curve" smooth="yes"/>
      <point x="292" y="499" type="line" smooth="yes"/>
      <point x="298" y="543"/>
      <point x="279" y="580"/>
      <point x="245" y="589" type="curve"/>
      <point x="280" y="595"/>
      <point x="309" y="628"/>
      <point x="314" y="672" type="curve" smooth="yes"/>
      <point x="315" y="680" type="line" smooth="yes"/>
      <point x="322" y="738"/>
      <point x="284" y="786"/>
      <point x="197" y="786" type="curve" smooth="yes"/>
      <point x="113" y="786"/>
      <point x="74" y="742"/>
      <point x="64" y="672" type="curve" smooth="yes"/>
      <point x="61" y="650" type="line"/>
      <point x="117" y="650" type="line"/>
      <point x="123" y="713"/>
      <point x="154" y="736"/>
      <point x="194" y="736" type="curve" smooth="yes"/>
      <point x="200" y="736" type="line" smooth="yes"/>
      <point x="237" y="736"/>
      <point x="263" y="718"/>
      <point x="258" y="676" type="curve" smooth="yes"/>
      <point x="257" y="668" type="line" smooth="yes"/>
      <point x="252" y="630"/>
      <point x="227" y="614"/>
      <point x="185" y="614" type="curve" smooth="yes"/>
      <point x="131" y="614" type="line"/>
      <point x="125" y="564" type="line"/>
      <point x="180" y="564" type="line" smooth="yes"/>
      <point x="219" y="564"/>
      <point x="241" y="542"/>
      <point x="236" y="500" type="curve" smooth="yes"/>
      <point x="235" y="492" type="line" smooth="yes"/>
      <point x="229" y="447"/>
      <point x="196" y="433"/>
      <point x="161" y="433" type="curve" smooth="yes"/>
      <point x="154" y="433" type="line" smooth="yes"/>
      <point x="112" y="433"/>
      <point x="87" y="454"/>
    </contour>
  </outline>
</glyph>
<glyph name="acute" format="1">
  <advance width="500"/>
  <unicode hex="00B4"/>
  <outline>
    <contour>
      <point x="357" y="780" type="line"/>
      <point x="245" y="614" type="line"/>
      <point x="317" y="614" type="line"/>
      <point x="433" y="780" type="line"/>
    </contour>
  </outline>
</glyph>
<glyph name="paragraph" format="1">
  <advance width="513"/>
  <unicode hex="00B6"/>
  <outline>
    <contour>
      <point x="57" y="543" type="line" smooth="yes"/>
      <point x="31" y="370"/>
      <point x="155" y="317"/>
      <point x="254" y="317" type="curve"/>
      <point x="213" y="0" type="line"/>
      <point x="285" y="0" type="line"/>
      <point x="378" y="715" type="line"/>
      <point x="419" y="715" type="line"/>
      <point x="325" y="0" type="line"/>
      <point x="397" y="0" type="line"/>
      <point x="499" y="780" type="line"/>
      <point x="325" y="780" type="line" smooth="yes"/>
      <point x="210" y="780"/>
      <point x="87" y="741"/>
      <point x="60" y="563" type="curve" smooth="yes"/>
    </contour>
    <contour>
      <point x="133" y="559" type="line" smooth="yes"/>
      <point x="150" y="688"/>
      <point x="242" y="715"/>
      <point x="306" y="715" type="curve"/>
      <point x="263" y="382" type="line"/>
      <point x="191" y="382"/>
      <point x="114" y="418"/>
      <point x="131" y="544" type="curve" smooth="yes"/>
    </contour>
  </outline>
</glyph>
<glyph name="periodcentered" format="1">
  <advance width="217"/>
  <unicode hex="00B7"/>
  <outline>
    <contour>
      <point x="156" y="395" type="line"/>
      <point x="66" y="395" type="line"/>
      <point x="54" y="305" type="line"/>
      <point x="144" y="305" type="line"/>
    </contour>
  </outline>
</glyph>
<glyph name="cedilla" format="1">
  <advance width="602"/>
  <unicode hex="00B8"/>
  <outline>
    <contour>
      <point x="85" y="-184" type="line"/>
      <point x="103" y="-198"/>
      <point x="139" y="-211"/>
      <point x="177" y="-211" type="curve" smooth="yes"/>
      <point x="239" y="-211"/>
      <point x="285" y="-186"/>
      <point x="285" y="-127" type="curve" smooth="yes"/>
      <point x="285" y="-75"/>
      <point x="241" y="-59"/>
      <point x="199" y="-58" type="curve" smooth="yes"/>
      <point x="195" y="-58" type="line"/>
      <point x="226" y="0" type="line"/>
      <point x="180" y="0" type="line"/>
      <point x="139" y="-80" type="line"/>
      <point x="152" y="-99" type="line"/>
      <point x="152" y="-99"/>
      <point x="167" y="-96"/>
      <point x="183" y="-96" type="curve" smooth="yes"/>
      <point x="213" y="-96"/>
      <point x="238" y="-104"/>
      <point x="238" y="-130" type="curve" smooth="yes"/>
      <point x="238" y="-157"/>
      <point x="216" y="-169"/>
      <point x="176" y="-169" type="curve" smooth="yes"/>
      <point x="146" y="-169"/>
      <point x="119" y="-158"/>
      <point x="105" y="-148" type="curve"/>
    </contour>
  </outline>
</glyph>
<glyph name="onesuperior" format="1">
  <advance width="300"/>
  <unicode hex="00B9"/>
  <outline>
    <contour>
      <point x="279" y="390" type="line"/>
      <point x="286" y="439" type="line"/>
      <point x="191" y="439" type="line"/>
      <point x="236" y="781" type="line"/>
      <point x="196" y="781" type="line"/>
      <point x="64" y="698" type="line"/>
      <point x="86" y="656" type="line"/>
      <point x="171" y="709" type="line"/>
      <point x="135" y="439" type="line"/>
      <point x="41" y="439" type="line"/>
      <point x="34" y="390" type="line"/>
    </contour>
  </outline>
</glyph>
<glyph name="ordmasculine" format="1">
  <advance width="418"/>
  <unicode hex="00BA"/>
  <outline>
    <contour>
      <point x="132" y="591" type="line" smooth="yes"/>
      <point x="147" y="688"/>
      <point x="183" y="735"/>
      <point x="252" y="735" type="curve" smooth="yes"/>
      <point x="329" y="735"/>
      <point x="356" y="681"/>
      <point x="342" y="592" type="curve" smooth="yes"/>
      <point x="340" y="579" type="line" smooth="yes"/>
      <point x="325" y="482"/>
      <point x="289" y="435"/>
      <point x="220" y="435" type="curve" smooth="yes"/>
      <point x="143" y="435"/>
      <point x="116" y="489"/>
      <point x="130" y="578" type="curve" smooth="yes"/>
    </contour>
    <contour>
      <point x="26" y="212" type="line"/>
      <point x="349" y="212" type="line"/>
      <point x="357" y="269" type="line"/>
      <point x="34" y="269" type="line"/>
    </contour>
    <contour>
      <point x="66" y="578" type="line" smooth="yes"/>
      <point x="48" y="459"/>
      <point x="90" y="379"/>
      <point x="218" y="379" type="curve" smooth="yes"/>
      <point x="322" y="379"/>
      <point x="385" y="454"/>
      <point x="404" y="579" type="curve" smooth="yes"/>
      <point x="406" y="592" type="line" smooth="yes"/>
      <point x="424" y="711"/>
      <point x="382" y="791"/>
      <point x="254" y="791" type="curve" smooth="yes"/>
      <point x="150" y="791"/>
      <point x="87" y="716"/>
      <point x="68" y="591" type="curve" smooth="yes"/>
    </contour>
  </outline>
</glyph>
<glyph name="guillemotright" format="1">
  <advance width="517"/>
  <unicode hex="00BB"/>
  <outline>
    <contour>
      <point x="21" y="157" type="line"/>
      <point x="245" y="309" type="line"/>
      <point x="253" y="371" type="line"/>
      <point x="69" y="524" type="line"/>
      <point x="60" y="457" type="line"/>
      <point x="194" y="343" type="line"/>
      <point x="30" y="230" type="line"/>
    </contour>
    <contour>
      <point x="234" y="157" type="line"/>
      <point x="458" y="309" type="line"/>
      <point x="466" y="371" type="line"/>
      <point x="282" y="524" type="line"/>
      <point x="273" y="457" type="line"/>
      <point x="407" y="343" type="line"/>
      <point x="243" y="230" type="line"/>
    </contour>
  </outline>
</glyph>
<glyph name="onequarter" format="1">
  <advance width="800"/>
  <unicode hex="00BC"/>
  <outline>
    <contour>
      <point x="279" y="390" type="line"/>
      <point x="286" y="439" type="line"/>
      <point x="191" y="439" type="line"/>
      <point x="236" y="781" type="line"/>
      <point x="196" y="781" type="line"/>
      <point x="64" y="698" type="line"/>
      <point x="86" y="656" type="line"/>
      <point x="171" y="709" type="line"/>
      <point x="135" y="439" type="line"/>
      <point x="41" y="439" type="line"/>
      <point x="34" y="390" type="line"/>
    </contour>
    <contour>
      <point x="99" y="0" type="line"/>
      <point x="777" y="780" type="line"/>
      <point x="707" y="780" type="line"/>
      <point x="29" y="0" type="line"/>
    </contour>
    <contour>
      <point x="682" y="0" type="line"/>
      <point x="694" y="95" type="line"/>
      <point x="748" y="95" type="line"/>
      <point x="755" y="144" type="line"/>
      <point x="701" y="144" type="line"/>
      <point x="733" y="390" type="line"/>
      <point x="677" y="390" type="line"/>
      <point x="482" y="135" type="line"/>
      <point x="477" y="95" type="line"/>
      <point x="639" y="95" type="line"/>
      <point x="626" y="0" type="line"/>
    </contour>
    <contour>
      <point x="666" y="297" type="line"/>
      <point x="660" y="255" type="line"/>
      <point x="645" y="144" type="line"/>
      <point x="584" y="144" type="line"/>
      <point x="548" y="143" type="line"/>
    </contour>
  </outline>
</glyph>
<glyph name="onehalf" format="1">
  <advance width="800"/>
  <unicode hex="00BD"/>
  <outline>
    <contour>
      <point x="279" y="390" type="line"/>
      <point x="286" y="439" type="line"/>
      <point x="191" y="439" type="line"/>
      <point x="236" y="781" type="line"/>
      <point x="196" y="781" type="line"/>
      <point x="64" y="698" type="line"/>
      <point x="86" y="656" type="line"/>
      <point x="171" y="709" type="line"/>
      <point x="135" y="439" type="line"/>
      <point x="41" y="439" type="line"/>
      <point x="34" y="390" type="line"/>
    </contour>
    <contour>
      <point x="99" y="0" type="line"/>
      <point x="777" y="780" type="line"/>
      <point x="707" y="780" type="line"/>
      <point x="29" y="0" type="line"/>
    </contour>
    <contour>
      <point x="733" y="49" type="line"/>
      <point x="560" y="49" type="line"/>
      <point x="704" y="182" type="line" smooth="yes"/>
      <point x="735" y="211"/>
      <point x="757" y="235"/>
      <point x="762" y="278" type="curve" smooth="yes"/>
      <point x="763" y="286" type="line" smooth="yes"/>
      <point x="770" y="344"/>
      <point x="737" y="396"/>
      <point x="646" y="396" type="curve" smooth="yes"/>
      <point x="562" y="396"/>
      <point x="523" y="352"/>
      <point x="513" y="282" type="curve" smooth="yes"/>
      <point x="510" y="260" type="line"/>
      <point x="566" y="260" type="line"/>
      <point x="572" y="323"/>
      <point x="603" y="346"/>
      <point x="643" y="346" type="curve" smooth="yes"/>
      <point x="649" y="346" type="line" smooth="yes"/>
      <point x="686" y="346"/>
      <point x="712" y="327"/>
      <point x="706" y="282" type="curve" smooth="yes"/>
      <point x="705" y="274" type="line" smooth="yes"/>
      <point x="702" y="250"/>
      <point x="690" y="233"/>
      <point x="663" y="208" type="curve" smooth="yes"/>
      <point x="481" y="40" type="line"/>
      <point x="476" y="0" type="line"/>
      <point x="726" y="0" type="line"/>
    </contour>
  </outline>
</glyph>
<glyph name="threequarters" format="1">
  <advance width="800"/>
  <unicode hex="00BE"/>
  <outline>
    <contour>
      <point x="97" y="515" type="curve"/>
      <point x="40" y="515" type="line"/>
      <point x="39" y="507" type="line" smooth="yes"/>
      <point x="29" y="429"/>
      <point x="62" y="383"/>
      <point x="157" y="383" type="curve" smooth="yes"/>
      <point x="235" y="383"/>
      <point x="283" y="430"/>
      <point x="291" y="491" type="curve" smooth="yes"/>
      <point x="292" y="499" type="line" smooth="yes"/>
      <point x="298" y="543"/>
      <point x="279" y="580"/>
      <point x="245" y="589" type="curve"/>
      <point x="280" y="595"/>
      <point x="309" y="628"/>
      <point x="314" y="672" type="curve" smooth="yes"/>
      <point x="315" y="680" type="line" smooth="yes"/>
      <point x="322" y="738"/>
      <point x="284" y="786"/>
      <point x="197" y="786" type="curve" smooth="yes"/>
      <point x="113" y="786"/>
      <point x="74" y="742"/>
      <point x="64" y="672" type="curve" smooth="yes"/>
      <point x="61" y="650" type="line"/>
      <point x="117" y="650" type="line"/>
      <point x="123" y="713"/>
      <point x="154" y="736"/>
      <point x="194" y="736" type="curve" smooth="yes"/>
      <point x="200" y="736" type="line" smooth="yes"/>
      <point x="237" y="736"/>
      <point x="263" y="718"/>
      <point x="258" y="676" type="curve" smooth="yes"/>
      <point x="257" y="668" type="line" smooth="yes"/>
      <point x="252" y="630"/>
      <point x="227" y="614"/>
      <point x="185" y="614" type="curve" smooth="yes"/>
      <point x="131" y="614" type="line"/>
      <point x="125" y="564" type="line"/>
      <point x="180" y="564" type="line" smooth="yes"/>
      <point x="219" y="564"/>
      <point x="241" y="542"/>
      <point x="236" y="500" type="curve" smooth="yes"/>
      <point x="235" y="492" type="line" smooth="yes"/>
      <point x="229" y="447"/>
      <point x="196" y="433"/>
      <point x="161" y="433" type="curve" smooth="yes"/>
      <point x="154" y="433" type="line" smooth="yes"/>
      <point x="112" y="433"/>
      <point x="87" y="454"/>
    </contour>
    <contour>
      <point x="99" y="0" type="line"/>
      <point x="777" y="780" type="line"/>
      <point x="707" y="780" type="line"/>
      <point x="29" y="0" type="line"/>
    </contour>
    <contour>
      <point x="682" y="0" type="line"/>
      <point x="694" y="95" type="line"/>
      <point x="748" y="95" type="line"/>
      <point x="755" y="144" type="line"/>
      <point x="701" y="144" type="line"/>
      <point x="733" y="390" type="line"/>
      <point x="677" y="390" type="line"/>
      <point x="482" y="135" type="line"/>
      <point x="477" y="95" type="line"/>
      <point x="639" y="95" type="line"/>
      <point x="626" y="0" type="line"/>
    </contour>
    <contour>
      <point x="666" y="297" type="line"/>
      <point x="660" y="255" type="line"/>
      <point x="645" y="144" type="line"/>
      <point x="584" y="144" type="line"/>
      <point x="548" y="143" type="line"/>
    </contour>
  </outline>
</glyph>
<glyph name="questiondown" format="1">
  <advance width="455"/>
  <unicode hex="00BF"/>
  <outline>
    <contour>
      <point x="155" y="-146" type="curve" smooth="yes"/>
      <point x="79" y="-146"/>
      <point x="46" y="-110"/>
      <point x="46" y="-45" type="curve" smooth="yes"/>
      <point x="46" y="119"/>
      <point x="231" y="135"/>
      <point x="247" y="341" type="curve"/>
      <point x="201" y="341" type="line"/>
      <point x="166" y="137"/>
      <point x="-27" y="169"/>
      <point x="-27" y="-50" type="curve" smooth="yes"/>
      <point x="-27" y="-146"/>
      <point x="24" y="-211"/>
      <point x="154" y="-211" type="curve" smooth="yes"/>
      <point x="301" y="-211"/>
      <point x="361" y="-123"/>
      <point x="385" y="46" type="curve" smooth="yes"/>
      <point x="387" y="60" type="line"/>
      <point x="315" y="60" type="line"/>
      <point x="299" y="-77"/>
      <point x="253" y="-146"/>
    </contour>
    <contour>
      <point x="193" y="440" type="line"/>
      <point x="283" y="440" type="line"/>
      <point x="295" y="530" type="line"/>
      <point x="205" y="530" type="line"/>
    </contour>
  </outline>
</glyph>
<glyph name="Agrave" format="1">
  <advance width="611"/>
  <unicode hex="00C0"/>
  <outline>
    <contour>
      <point x="283" y="950" type="line"/>
      <point x="330" y="840" type="line"/>
      <point x="402" y="840" type="line"/>
      <point x="357" y="950" type="line"/>
    </contour>
    <contour>
      <point x="309" y="788" type="line"/>
      <point x="-20" y="0" type="line"/>
      <point x="59" y="0" type="line"/>
      <point x="141" y="200" type="line"/>
      <point x="427" y="200" type="line"/>
      <point x="457" y="0" type="line"/>
      <point x="533" y="0" type="line"/>
      <point x="411" y="788" type="line"/>
    </contour>
    <contour>
      <point x="351" y="709" type="line"/>
      <point x="417" y="265" type="line"/>
      <point x="168" y="265" type="line"/>
    </contour>
  </outline>
</glyph>
<glyph name="Acircumflex" format="1">
  <advance width="611"/>
  <unicode hex="00C2"/>
  <outline>
    <contour>
      <point x="504" y="840" type="line"/>
      <point x="413" y="950" type="line"/>
      <point x="349" y="950" type="line"/>
      <point x="228" y="840" type="line"/>
      <point x="302" y="840" type="line"/>
      <point x="380" y="909" type="line"/>
      <point x="437" y="840" type="line"/>
    </contour>
    <contour>
      <point x="309" y="788" type="line"/>
      <point x="-20" y="0" type="line"/>
      <point x="59" y="0" type="line"/>
      <point x="141" y="200" type="line"/>
      <point x="427" y="200" type="line"/>
      <point x="457" y="0" type="line"/>
      <point x="533" y="0" type="line"/>
      <point x="411" y="788" type="line"/>
    </contour>
    <contour>
      <point x="351" y="709" type="line"/>
      <point x="417" y="265" type="line"/>
      <point x="168" y="265" type="line"/>
    </contour>
  </outline>
</glyph>
<glyph name="Atilde" format="1">
  <advance width="611"/>
  <unicode hex="00C3"/>
  <outline>
    <contour>
      <point x="482" y="936" type="line"/>
      <point x="479" y="903"/>
      <point x="460" y="889"/>
      <point x="437" y="889" type="curve" smooth="yes"/>
      <point x="397" y="889"/>
      <point x="369" y="947"/>
      <point x="309" y="947" type="curve" smooth="yes"/>
      <point x="263" y="947"/>
      <point x="223" y="919"/>
      <point x="216" y="854" type="curve"/>
      <point x="264" y="854" type="line"/>
      <point x="267" y="887"/>
      <point x="286" y="901"/>
      <point x="309" y="901" type="curve" smooth="yes"/>
      <point x="349" y="901"/>
      <point x="377" y="843"/>
      <point x="437" y="843" type="curve" smooth="yes"/>
      <point x="483" y="843"/>
      <point x="523" y="871"/>
      <point x="530" y="936" type="curve"/>
    </contour>
    <contour>
      <point x="309" y="788" type="line"/>
      <point x="-20" y="0" type="line"/>
      <point x="59" y="0" type="line"/>
      <point x="141" y="200" type="line"/>
      <point x="427" y="200" type="line"/>
      <point x="457" y="0" type="line"/>
      <point x="533" y="0" type="line"/>
      <point x="411" y="788" type="line"/>
    </contour>
    <contour>
      <point x="351" y="709" type="line"/>
      <point x="417" y="265" type="line"/>
      <point x="168" y="265" type="line"/>
    </contour>
  </outline>
</glyph>
<glyph name="Adieresis" format="1">
  <advance width="611"/>
  <unicode hex="00C4"/>
  <outline>
    <contour>
      <point x="339" y="930" type="line"/>
      <point x="260" y="930" type="line"/>
      <point x="251" y="860" type="line"/>
      <point x="330" y="860" type="line"/>
    </contour>
    <contour>
      <point x="495" y="930" type="line"/>
      <point x="416" y="930" type="line"/>
      <point x="407" y="860" type="line"/>
      <point x="486" y="860" type="line"/>
    </contour>
    <contour>
      <point x="309" y="788" type="line"/>
      <point x="-20" y="0" type="line"/>
      <point x="59" y="0" type="line"/>
      <point x="141" y="200" type="line"/>
      <point x="427" y="200" type="line"/>
      <point x="457" y="0" type="line"/>
      <point x="533" y="0" type="line"/>
      <point x="411" y="788" type="line"/>
    </contour>
    <contour>
      <point x="351" y="709" type="line"/>
      <point x="417" y="265" type="line"/>
      <point x="168" y="265" type="line"/>
    </contour>
  </outline>
</glyph>
<glyph name="Aring" format="1">
  <advance width="611"/>
  <unicode hex="00C5"/>
  <outline>
    <contour>
      <point x="465" y="874" type="curve" smooth="yes"/>
      <point x="465" y="924"/>
      <point x="433" y="961"/>
      <point x="378" y="961" type="curve" smooth="yes"/>
      <point x="321" y="961"/>
      <point x="274" y="918"/>
      <point x="274" y="860" type="curve" smooth="yes"/>
      <point x="274" y="829"/>
      <point x="286" y="803"/>
      <point x="309" y="787" type="curve"/>
      <point x="-20" y="0" type="line"/>
      <point x="59" y="0" type="line"/>
      <point x="141" y="200" type="line"/>
      <point x="427" y="200" type="line"/>
      <point x="457" y="0" type="line"/>
      <point x="533" y="0" type="line"/>
      <point x="411" y="785" type="line"/>
      <point x="443" y="802"/>
      <point x="465" y="834"/>
    </contour>
    <contour>
      <point x="351" y="709" type="line"/>
      <point x="417" y="265" type="line"/>
      <point x="168" y="265" type="line"/>
    </contour>
    <contour>
      <point x="361" y="811" type="curve" smooth="yes"/>
      <point x="330" y="811"/>
      <point x="313" y="832"/>
      <point x="313" y="860" type="curve" smooth="yes"/>
      <point x="313" y="903"/>
      <point x="344" y="923"/>
      <point x="378" y="923" type="curve" smooth="yes"/>
      <point x="409" y="923"/>
      <point x="426" y="902"/>
      <point x="426" y="874" type="curve" smooth="yes"/>
      <point x="426" y="831"/>
      <point x="395" y="811"/>
    </contour>
  </outline>
</glyph>
<glyph name="AE" format="1">
  <advance width="837"/>
  <unicode hex="00C6"/>
  <outline>
    <contour>
      <point x="362" y="780" type="line"/>
      <point x="-29" y="0" type="line"/>
      <point x="48" y="0" type="line"/>
      <point x="150" y="208" type="line"/>
      <point x="397" y="208" type="line"/>
      <point x="399" y="0" type="line"/>
      <point x="748" y="0" type="line"/>
      <point x="756" y="65" type="line"/>
      <point x="472" y="65" type="line"/>
      <point x="469" y="366" type="line"/>
      <point x="745" y="366" type="line"/>
      <point x="753" y="430" type="line"/>
      <point x="468" y="430" type="line"/>
      <point x="465" y="715" type="line"/>
      <point x="842" y="715" type="line"/>
      <point x="850" y="780" type="line"/>
    </contour>
    <contour>
      <point x="393" y="703" type="line"/>
      <point x="396" y="272" type="line"/>
      <point x="182" y="272" type="line"/>
    </contour>
  </outline>
</glyph>
<glyph name="Ccedilla" format="1">
  <advance width="618"/>
  <unicode hex="00C7"/>
  <outline>
    <contour>
      <point x="135" y="410" type="line" smooth="yes"/>
      <point x="163" y="632"/>
      <point x="237" y="726"/>
      <point x="367" y="726" type="curve" smooth="yes"/>
      <point x="374" y="726" type="line" smooth="yes"/>
      <point x="491" y="726"/>
      <point x="531" y="657"/>
      <point x="510" y="496" type="curve"/>
      <point x="584" y="496" type="line"/>
      <point x="588" y="525" type="line" smooth="yes"/>
      <point x="612" y="701"/>
      <point x="539" y="791"/>
      <point x="373" y="791" type="curve" smooth="yes"/>
      <point x="194" y="791"/>
      <point x="95" y="680"/>
      <point x="61" y="410" type="curve" smooth="yes"/>
      <point x="56" y="370" type="line" smooth="yes"/>
      <point x="23" y="111"/>
      <point x="93" y="-1"/>
      <point x="256" y="-10" type="curve"/>
      <point x="221" y="-80" type="line"/>
      <point x="234" y="-99" type="line"/>
      <point x="234" y="-99"/>
      <point x="249" y="-96"/>
      <point x="265" y="-96" type="curve" smooth="yes"/>
      <point x="295" y="-96"/>
      <point x="320" y="-104"/>
      <point x="320" y="-130" type="curve" smooth="yes"/>
      <point x="320" y="-157"/>
      <point x="298" y="-169"/>
      <point x="258" y="-169" type="curve" smooth="yes"/>
      <point x="228" y="-169"/>
      <point x="201" y="-158"/>
      <point x="187" y="-148" type="curve"/>
      <point x="167" y="-184" type="line"/>
      <point x="185" y="-198"/>
      <point x="221" y="-211"/>
      <point x="259" y="-211" type="curve" smooth="yes"/>
      <point x="321" y="-211"/>
      <point x="367" y="-186"/>
      <point x="367" y="-127" type="curve" smooth="yes"/>
      <point x="367" y="-75"/>
      <point x="323" y="-59"/>
      <point x="281" y="-58" type="curve" smooth="yes"/>
      <point x="277" y="-58" type="line"/>
      <point x="302" y="-10" type="line"/>
      <point x="453" y="-2"/>
      <point x="528" y="84"/>
      <point x="550" y="240" type="curve" smooth="yes"/>
      <point x="552" y="254" type="line"/>
      <point x="478" y="254" type="line"/>
      <point x="461" y="125"/>
      <point x="403" y="54"/>
      <point x="286" y="54" type="curve" smooth="yes"/>
      <point x="279" y="54" type="line" smooth="yes"/>
      <point x="148" y="54"/>
      <point x="102" y="148"/>
      <point x="130" y="370" type="curve" smooth="yes"/>
    </contour>
  </outline>
</glyph>
<glyph name="Ecircumflex" format="1">
  <advance width="549"/>
  <unicode hex="00CA"/>
  <outline>
    <contour>
      <point x="498" y="840" type="line"/>
      <point x="407" y="950" type="line"/>
      <point x="343" y="950" type="line"/>
      <point x="222" y="840" type="line"/>
      <point x="296" y="840" type="line"/>
      <point x="374" y="909" type="line"/>
      <point x="431" y="840" type="line"/>
    </contour>
    <contour>
      <point x="127" y="780" type="line"/>
      <point x="25" y="0" type="line"/>
      <point x="460" y="0" type="line"/>
      <point x="468" y="65" type="line"/>
      <point x="105" y="65" type="line"/>
      <point x="144" y="366" type="line"/>
      <point x="457" y="366" type="line"/>
      <point x="466" y="430" type="line"/>
      <point x="153" y="430" type="line"/>
      <point x="190" y="715" type="line"/>
      <point x="554" y="715" type="line"/>
      <point x="562" y="780" type="line"/>
    </contour>
  </outline>
</glyph>
<glyph name="Edieresis" format="1">
  <advance width="549"/>
  <unicode hex="00CB"/>
  <outline>
    <contour>
      <point x="333" y="930" type="line"/>
      <point x="254" y="930" type="line"/>
      <point x="245" y="860" type="line"/>
      <point x="324" y="860" type="line"/>
    </contour>
    <contour>
      <point x="489" y="930" type="line"/>
      <point x="410" y="930" type="line"/>
      <point x="401" y="860" type="line"/>
      <point x="480" y="860" type="line"/>
    </contour>
    <contour>
      <point x="127" y="780" type="line"/>
      <point x="25" y="0" type="line"/>
      <point x="460" y="0" type="line"/>
      <point x="468" y="65" type="line"/>
      <point x="105" y="65" type="line"/>
      <point x="144" y="366" type="line"/>
      <point x="457" y="366" type="line"/>
      <point x="466" y="430" type="line"/>
      <point x="153" y="430" type="line"/>
      <point x="190" y="715" type="line"/>
      <point x="554" y="715" type="line"/>
      <point x="562" y="780" type="line"/>
    </contour>
  </outline>
</glyph>
<glyph name="Igrave" format="1">
  <advance width="229"/>
  <unicode hex="00CC"/>
  <outline>
    <contour>
      <point x="93" y="950" type="line"/>
      <point x="140" y="840" type="line"/>
      <point x="212" y="840" type="line"/>
      <point x="167" y="950" type="line"/>
    </contour>
    <contour>
      <point x="204" y="780" type="line"/>
      <point x="132" y="780" type="line"/>
      <point x="30" y="0" type="line"/>
      <point x="102" y="0" type="line"/>
    </contour>
  </outline>
</glyph>
<glyph name="Iacute" format="1">
  <advance width="229"/>
  <unicode hex="00CD"/>
  <outline>
    <contour>
      <point x="215" y="950" type="line"/>
      <point x="140" y="840" type="line"/>
      <point x="212" y="840" type="line"/>
      <point x="289" y="950" type="line"/>
    </contour>
    <contour>
      <point x="204" y="780" type="line"/>
      <point x="132" y="780" type="line"/>
      <point x="30" y="0" type="line"/>
      <point x="102" y="0" type="line"/>
    </contour>
  </outline>
</glyph>
<glyph name="Icircumflex" format="1">
  <advance width="229"/>
  <unicode hex="00CE"/>
  <outline>
    <contour>
      <point x="314" y="840" type="line"/>
      <point x="223" y="950" type="line"/>
      <point x="159" y="950" type="line"/>
      <point x="38" y="840" type="line"/>
      <point x="112" y="840" type="line"/>
      <point x="190" y="909" type="line"/>
      <point x="247" y="840" type="line"/>
    </contour>
    <contour>
      <point x="204" y="780" type="line"/>
      <point x="132" y="780" type="line"/>
      <point x="30" y="0" type="line"/>
      <point x="102" y="0" type="line"/>
    </contour>
  </outline>
</glyph>
<glyph name="Idieresis" format="1">
  <advance width="229"/>
  <unicode hex="00CF"/>
  <outline>
    <contour>
      <point x="149" y="930" type="line"/>
      <point x="70" y="930" type="line"/>
      <point x="61" y="860" type="line"/>
      <point x="140" y="860" type="line"/>
    </contour>
    <contour>
      <point x="305" y="930" type="line"/>
      <point x="226" y="930" type="line"/>
      <point x="217" y="860" type="line"/>
      <point x="296" y="860" type="line"/>
    </contour>
    <contour>
      <point x="204" y="780" type="line"/>
      <point x="132" y="780" type="line"/>
      <point x="30" y="0" type="line"/>
      <point x="102" y="0" type="line"/>
    </contour>
  </outline>
</glyph>
<glyph name="Ntilde" format="1">
  <advance width="659"/>
  <unicode hex="00D1"/>
  <outline>
    <contour>
      <point x="506" y="936" type="line"/>
      <point x="503" y="903"/>
      <point x="484" y="889"/>
      <point x="461" y="889" type="curve" smooth="yes"/>
      <point x="421" y="889"/>
      <point x="393" y="947"/>
      <point x="333" y="947" type="curve" smooth="yes"/>
      <point x="287" y="947"/>
      <point x="247" y="919"/>
      <point x="240" y="854" type="curve"/>
      <point x="288" y="854" type="line"/>
      <point x="291" y="887"/>
      <point x="310" y="901"/>
      <point x="333" y="901" type="curve" smooth="yes"/>
      <point x="373" y="901"/>
      <point x="401" y="843"/>
      <point x="461" y="843" type="curve" smooth="yes"/>
      <point x="507" y="843"/>
      <point x="547" y="871"/>
      <point x="554" y="936" type="curve"/>
    </contour>
    <contour>
      <point x="638" y="780" type="line"/>
      <point x="568" y="780" type="line"/>
      <point x="506" y="305" type="line"/>
      <point x="485" y="122" type="line"/>
      <point x="203" y="780" type="line"/>
      <point x="127" y="780" type="line"/>
      <point x="25" y="0" type="line"/>
      <point x="95" y="0" type="line"/>
      <point x="157" y="475" type="line"/>
      <point x="178" y="658" type="line"/>
      <point x="460" y="0" type="line"/>
      <point x="536" y="0" type="line"/>
    </contour>
  </outline>
</glyph>
<glyph name="Ograve" format="1">
  <advance width="649"/>
  <unicode hex="00D2"/>
  <outline>
    <contour>
      <point x="302" y="950" type="line"/>
      <point x="349" y="840" type="line"/>
      <point x="421" y="840" type="line"/>
      <point x="376" y="950" type="line"/>
    </contour>
    <contour>
      <point x="372" y="791" type="curve" smooth="yes"/>
      <point x="194" y="791"/>
      <point x="95" y="680"/>
      <point x="61" y="410" type="curve" smooth="yes"/>
      <point x="56" y="370" type="line" smooth="yes"/>
      <point x="22" y="100"/>
      <point x="102" y="-11"/>
      <point x="280" y="-11" type="curve" smooth="yes"/>
      <point x="458" y="-11"/>
      <point x="557" y="100"/>
      <point x="591" y="370" type="curve" smooth="yes"/>
      <point x="596" y="410" type="line" smooth="yes"/>
      <point x="630" y="680"/>
      <point x="550" y="791"/>
    </contour>
    <contour>
      <point x="278" y="54" type="line" smooth="yes"/>
      <point x="147" y="54"/>
      <point x="102" y="148"/>
      <point x="130" y="370" type="curve" smooth="yes"/>
      <point x="135" y="410" type="line" smooth="yes"/>
      <point x="163" y="632"/>
      <point x="236" y="726"/>
      <point x="367" y="726" type="curve" smooth="yes"/>
      <point x="374" y="726" type="line" smooth="yes"/>
      <point x="505" y="726"/>
      <point x="550" y="632"/>
      <point x="522" y="410" type="curve" smooth="yes"/>
      <point x="517" y="370" type="line" smooth="yes"/>
      <point x="489" y="148"/>
      <point x="416" y="54"/>
      <point x="285" y="54" type="curve" smooth="yes"/>
    </contour>
  </outline>
</glyph>
<glyph name="Otilde" format="1">
  <advance width="649"/>
  <unicode hex="00D5"/>
  <outline>
    <contour>
      <point x="501" y="936" type="line"/>
      <point x="498" y="903"/>
      <point x="479" y="889"/>
      <point x="456" y="889" type="curve" smooth="yes"/>
      <point x="416" y="889"/>
      <point x="388" y="947"/>
      <point x="328" y="947" type="curve" smooth="yes"/>
      <point x="282" y="947"/>
      <point x="242" y="919"/>
      <point x="235" y="854" type="curve"/>
      <point x="283" y="854" type="line"/>
      <point x="286" y="887"/>
      <point x="305" y="901"/>
      <point x="328" y="901" type="curve" smooth="yes"/>
      <point x="368" y="901"/>
      <point x="396" y="843"/>
      <point x="456" y="843" type="curve" smooth="yes"/>
      <point x="502" y="843"/>
      <point x="542" y="871"/>
      <point x="549" y="936" type="curve"/>
    </contour>
    <contour>
      <point x="372" y="791" type="curve" smooth="yes"/>
      <point x="194" y="791"/>
      <point x="95" y="680"/>
      <point x="61" y="410" type="curve" smooth="yes"/>
      <point x="56" y="370" type="line" smooth="yes"/>
      <point x="22" y="100"/>
      <point x="102" y="-11"/>
      <point x="280" y="-11" type="curve" smooth="yes"/>
      <point x="458" y="-11"/>
      <point x="557" y="100"/>
      <point x="591" y="370" type="curve" smooth="yes"/>
      <point x="596" y="410" type="line" smooth="yes"/>
      <point x="630" y="680"/>
      <point x="550" y="791"/>
    </contour>
    <contour>
      <point x="278" y="54" type="line" smooth="yes"/>
      <point x="147" y="54"/>
      <point x="102" y="148"/>
      <point x="130" y="370" type="curve" smooth="yes"/>
      <point x="135" y="410" type="line" smooth="yes"/>
      <point x="163" y="632"/>
      <point x="236" y="726"/>
      <point x="367" y="726" type="curve" smooth="yes"/>
      <point x="374" y="726" type="line" smooth="yes"/>
      <point x="505" y="726"/>
      <point x="550" y="632"/>
      <point x="522" y="410" type="curve" smooth="yes"/>
      <point x="517" y="370" type="line" smooth="yes"/>
      <point x="489" y="148"/>
      <point x="416" y="54"/>
      <point x="285" y="54" type="curve" smooth="yes"/>
    </contour>
  </outline>
</glyph>
<glyph name="multiply" format="1">
  <advance width="600"/>
  <unicode hex="00D7"/>
  <outline>
    <contour>
      <point x="49" y="126" type="line"/>
      <point x="295" y="342" type="line"/>
      <point x="483" y="126" type="line"/>
      <point x="537" y="173" type="line"/>
      <point x="349" y="390" type="line"/>
      <point x="594" y="607" type="line"/>
      <point x="552" y="654" type="line"/>
      <point x="308" y="438" type="line"/>
      <point x="119" y="654" type="line"/>
      <point x="66" y="607" type="line"/>
      <point x="254" y="390" type="line"/>
      <point x="8" y="173" type="line"/>
    </contour>
  </outline>
</glyph>
<glyph name="Oslash" format="1">
  <advance width="638"/>
  <unicode hex="00D8"/>
  <outline>
    <contour>
      <point x="56" y="370" type="line" smooth="yes"/>
      <point x="40" y="248"/>
      <point x="48" y="159"/>
      <point x="78" y="97" type="curve"/>
      <point x="7" y="0" type="line"/>
      <point x="75" y="0" type="line"/>
      <point x="111" y="49" type="line"/>
      <point x="150" y="8"/>
      <point x="206" y="-11"/>
      <point x="280" y="-11" type="curve" smooth="yes"/>
      <point x="458" y="-11"/>
      <point x="557" y="100"/>
      <point x="591" y="370" type="curve" smooth="yes"/>
      <point x="596" y="410" type="line" smooth="yes"/>
      <point x="612" y="532"/>
      <point x="604" y="621"/>
      <point x="574" y="683" type="curve"/>
      <point x="645" y="780" type="line"/>
      <point x="577" y="780" type="line"/>
      <point x="541" y="731" type="line"/>
      <point x="502" y="772"/>
      <point x="446" y="791"/>
      <point x="372" y="791" type="curve" smooth="yes"/>
      <point x="194" y="791"/>
      <point x="95" y="680"/>
      <point x="61" y="410" type="curve" smooth="yes"/>
    </contour>
    <contour>
      <point x="131" y="169" type="line"/>
      <point x="119" y="219"/>
      <point x="119" y="285"/>
      <point x="130" y="370" type="curve" smooth="yes"/>
      <point x="135" y="410" type="line" smooth="yes"/>
      <point x="163" y="632"/>
      <point x="236" y="726"/>
      <point x="367" y="726" type="curve" smooth="yes"/>
      <point x="374" y="726" type="line" smooth="yes"/>
      <point x="431" y="726"/>
      <point x="472" y="709"/>
      <point x="497" y="671" type="curve"/>
    </contour>
    <contour>
      <point x="521" y="611" type="line"/>
      <point x="533" y="561"/>
      <point x="533" y="495"/>
      <point x="522" y="410" type="curve" smooth="yes"/>
      <point x="517" y="370" type="line" smooth="yes"/>
      <point x="489" y="148"/>
      <point x="416" y="54"/>
      <point x="285" y="54" type="curve" smooth="yes"/>
      <point x="278" y="54" type="line" smooth="yes"/>
      <point x="221" y="54"/>
      <point x="180" y="71"/>
      <point x="155" y="109" type="curve"/>
    </contour>
  </outline>
</glyph>
<glyph name="Ucircumflex" format="1">
  <advance width="639"/>
  <unicode hex="00DB"/>
  <outline>
    <contour>
      <point x="518" y="840" type="line"/>
      <point x="427" y="950" type="line"/>
      <point x="363" y="950" type="line"/>
      <point x="242" y="840" type="line"/>
      <point x="316" y="840" type="line"/>
      <point x="394" y="909" type="line"/>
      <point x="451" y="840" type="line"/>
    </contour>
    <contour>
      <point x="272" y="-11" type="curve" smooth="yes"/>
      <point x="438" y="-11"/>
      <point x="528" y="57"/>
      <point x="552" y="242" type="curve" smooth="yes"/>
      <point x="623" y="780" type="line"/>
      <point x="551" y="780" type="line"/>
      <point x="481" y="247" type="line" smooth="yes"/>
      <point x="462" y="102"/>
      <point x="394" y="54"/>
      <point x="274" y="54" type="curve" smooth="yes"/>
      <point x="154" y="54"/>
      <point x="105" y="101"/>
      <point x="124" y="247" type="curve" smooth="yes"/>
      <point x="194" y="780" type="line"/>
      <point x="122" y="780" type="line"/>
      <point x="51" y="242" type="line" smooth="yes"/>
      <point x="26" y="55"/>
      <point x="105" y="-11"/>
    </contour>
  </outline>
</glyph>
<glyph name="Yacute" format="1">
  <advance width="577"/>
  <unicode hex="00DD"/>
  <outline>
    <contour>
      <point x="389" y="950" type="line"/>
      <point x="314" y="840" type="line"/>
      <point x="386" y="840" type="line"/>
      <point x="463" y="950" type="line"/>
    </contour>
    <contour>
      <point x="307" y="236" type="line"/>
      <point x="610" y="780" type="line"/>
      <point x="529" y="780" type="line"/>
      <point x="281" y="324" type="line"/>
      <point x="149" y="780" type="line"/>
      <point x="74" y="780" type="line"/>
      <point x="235" y="236" type="line"/>
      <point x="204" y="0" type="line"/>
      <point x="276" y="0" type="line"/>
    </contour>
  </outline>
</glyph>
<glyph name="Thorn" format="1">
  <advance width="573"/>
  <unicode hex="00DE"/>
  <outline>
    <contour>
      <point x="127" y="224" type="line"/>
      <point x="170" y="557" type="line"/>
      <point x="315" y="557" type="line" smooth="yes"/>
      <point x="382" y="557"/>
      <point x="477" y="529"/>
      <point x="459" y="395" type="curve" smooth="yes"/>
      <point x="457" y="380" type="line" smooth="yes"/>
      <point x="439" y="246"/>
      <point x="343" y="224"/>
      <point x="276" y="224" type="curve" smooth="yes"/>
    </contour>
    <contour>
      <point x="199" y="780" type="line"/>
      <point x="127" y="780" type="line"/>
      <point x="25" y="0" type="line"/>
      <point x="97" y="0" type="line"/>
      <point x="118" y="159" type="line"/>
      <point x="265" y="159" type="line" smooth="yes"/>
      <point x="376" y="159"/>
      <point x="503" y="198"/>
      <point x="530" y="376" type="curve" smooth="yes"/>
      <point x="533" y="396" type="line" smooth="yes"/>
      <point x="560" y="576"/>
      <point x="432" y="622"/>
      <point x="321" y="622" type="curve" smooth="yes"/>
      <point x="178" y="622" type="line"/>
    </contour>
  </outline>
</glyph>
<glyph name="germandbls" format="1">
  <advance width="571"/>
  <unicode hex="00DF"/>
  <outline>
    <contour>
      <point x="321" y="52" type="curve" smooth="yes"/>
      <point x="229" y="52"/>
      <point x="225" y="99"/>
      <point x="234" y="162" type="curve"/>
      <point x="168" y="162" type="line"/>
      <point x="166" y="149" type="line" smooth="yes"/>
      <point x="153" y="64"/>
      <point x="184" y="-11"/>
      <point x="320" y="-11" type="curve" smooth="yes"/>
      <point x="459" y="-11"/>
      <point x="504" y="77"/>
      <point x="514" y="156" type="curve" smooth="yes"/>
      <point x="515" y="164" type="line" smooth="yes"/>
      <point x="525" y="246"/>
      <point x="483" y="295"/>
      <point x="389" y="364" type="curve" smooth="yes"/>
      <point x="348" y="394" type="line"/>
      <point x="448" y="454"/>
      <point x="494" y="515"/>
      <point x="505" y="601" type="curve" smooth="yes"/>
      <point x="506" y="609" type="line" smooth="yes"/>
      <point x="521" y="726"/>
      <point x="468" y="811"/>
      <point x="320" y="811" type="curve" smooth="yes"/>
      <point x="184" y="811"/>
      <point x="112" y="733"/>
      <point x="96" y="609" type="curve" smooth="yes"/>
      <point x="16" y="0" type="line"/>
      <point x="86" y="0" type="line"/>
      <point x="165" y="604" type="line" smooth="yes"/>
      <point x="177" y="694"/>
      <point x="225" y="746"/>
      <point x="320" y="746" type="curve" smooth="yes"/>
      <point x="403" y="746"/>
      <point x="437" y="702"/>
      <point x="437" y="633" type="curve" smooth="yes"/>
      <point x="437" y="534"/>
      <point x="387" y="476"/>
      <point x="267" y="415" type="curve"/>
      <point x="261" y="370" type="line"/>
      <point x="331" y="319" type="line" smooth="yes"/>
      <point x="415" y="258"/>
      <point x="446" y="228"/>
      <point x="446" y="176" type="curve" smooth="yes"/>
      <point x="446" y="113"/>
      <point x="412" y="52"/>
    </contour>
  </outline>
</glyph>
<glyph name="aacute" format="1">
  <advance width="512"/>
  <unicode hex="00E1"/>
  <outline>
    <contour>
      <point x="363" y="780" type="line"/>
      <point x="251" y="614" type="line"/>
      <point x="323" y="614" type="line"/>
      <point x="439" y="780" type="line"/>
    </contour>
    <contour>
      <point x="347" y="0" type="line"/>
      <point x="405" y="0" type="line"/>
      <point x="418" y="150" type="line"/>
      <point x="444" y="344" type="line" smooth="yes"/>
      <point x="460" y="462"/>
      <point x="420" y="541"/>
      <point x="268" y="541" type="curve" smooth="yes"/>
      <point x="120" y="541"/>
      <point x="76" y="448"/>
      <point x="64" y="368" type="curve" smooth="yes"/>
      <point x="62" y="355" type="line"/>
      <point x="129" y="355" type="line"/>
      <point x="138" y="422"/>
      <point x="166" y="482"/>
      <point x="266" y="482" type="curve" smooth="yes"/>
      <point x="362" y="482"/>
      <point x="387" y="438"/>
      <point x="375" y="353" type="curve" smooth="yes"/>
      <point x="372" y="331" type="line"/>
      <point x="208" y="305" type="line" smooth="yes"/>
      <point x="107" y="289"/>
      <point x="29" y="263"/>
      <point x="15" y="151" type="curve" smooth="yes"/>
      <point x="13" y="135" type="line" smooth="yes"/>
      <point x="2" y="50"/>
      <point x="57" y="-11"/>
      <point x="158" y="-11" type="curve" smooth="yes"/>
      <point x="247" y="-11"/>
      <point x="309" y="29"/>
      <point x="347" y="74" type="curve"/>
    </contour>
    <contour>
      <point x="174" y="50" type="curve" smooth="yes"/>
      <point x="106" y="50"/>
      <point x="78" y="94"/>
      <point x="85" y="141" type="curve" smooth="yes"/>
      <point x="87" y="155" type="line" smooth="yes"/>
      <point x="95" y="210"/>
      <point x="137" y="240"/>
      <point x="209" y="251" type="curve" smooth="yes"/>
      <point x="365" y="276" type="line"/>
      <point x="347" y="136" type="line"/>
      <point x="325" y="106"/>
      <point x="273" y="50"/>
    </contour>
  </outline>
</glyph>
<glyph name="adieresis" format="1">
  <advance width="512"/>
  <unicode hex="00E4"/>
  <outline>
    <contour>
      <point x="266" y="745" type="line"/>
      <point x="176" y="745" type="line"/>
      <point x="164" y="655" type="line"/>
      <point x="254" y="655" type="line"/>
    </contour>
    <contour>
      <point x="433" y="745" type="line"/>
      <point x="343" y="745" type="line"/>
      <point x="331" y="655" type="line"/>
      <point x="421" y="655" type="line"/>
    </contour>
    <contour>
      <point x="347" y="0" type="line"/>
      <point x="405" y="0" type="line"/>
      <point x="418" y="150" type="line"/>
      <point x="444" y="344" type="line" smooth="yes"/>
      <point x="460" y="462"/>
      <point x="420" y="541"/>
      <point x="268" y="541" type="curve" smooth="yes"/>
      <point x="120" y="541"/>
      <point x="76" y="448"/>
      <point x="64" y="368" type="curve" smooth="yes"/>
      <point x="62" y="355" type="line"/>
      <point x="129" y="355" type="line"/>
      <point x="138" y="422"/>
      <point x="166" y="482"/>
      <point x="266" y="482" type="curve" smooth="yes"/>
      <point x="362" y="482"/>
      <point x="387" y="438"/>
      <point x="375" y="353" type="curve" smooth="yes"/>
      <point x="372" y="331" type="line"/>
      <point x="208" y="305" type="line" smooth="yes"/>
      <point x="107" y="289"/>
      <point x="29" y="263"/>
      <point x="15" y="151" type="curve" smooth="yes"/>
      <point x="13" y="135" type="line" smooth="yes"/>
      <point x="2" y="50"/>
      <point x="57" y="-11"/>
      <point x="158" y="-11" type="curve" smooth="yes"/>
      <point x="247" y="-11"/>
      <point x="309" y="29"/>
      <point x="347" y="74" type="curve"/>
    </contour>
    <contour>
      <point x="174" y="50" type="curve" smooth="yes"/>
      <point x="106" y="50"/>
      <point x="78" y="94"/>
      <point x="85" y="141" type="curve" smooth="yes"/>
      <point x="87" y="155" type="line" smooth="yes"/>
      <point x="95" y="210"/>
      <point x="137" y="240"/>
      <point x="209" y="251" type="curve" smooth="yes"/>
      <point x="365" y="276" type="line"/>
      <point x="347" y="136" type="line"/>
      <point x="325" y="106"/>
      <point x="273" y="50"/>
    </contour>
  </outline>
</glyph>
<glyph name="ae" format="1">
  <advance width="871"/>
  <unicode hex="00E6"/>
  <outline>
    <contour>
      <point x="806" y="236" type="line"/>
      <point x="811" y="275" type="line" smooth="yes"/>
      <point x="831" y="430"/>
      <point x="779" y="541"/>
      <point x="618" y="541" type="curve" smooth="yes"/>
      <point x="532" y="541"/>
      <point x="472" y="504"/>
      <point x="432" y="444" type="curve"/>
      <point x="418" y="504"/>
      <point x="371" y="541"/>
      <point x="268" y="541" type="curve" smooth="yes"/>
      <point x="120" y="541"/>
      <point x="76" y="448"/>
      <point x="64" y="368" type="curve" smooth="yes"/>
      <point x="62" y="355" type="line"/>
      <point x="129" y="355" type="line"/>
      <point x="138" y="422"/>
      <point x="166" y="482"/>
      <point x="266" y="482" type="curve" smooth="yes"/>
      <point x="362" y="482"/>
      <point x="387" y="438"/>
      <point x="375" y="353" type="curve" smooth="yes"/>
      <point x="372" y="331" type="line"/>
      <point x="208" y="305" type="line" smooth="yes"/>
      <point x="107" y="289"/>
      <point x="29" y="263"/>
      <point x="15" y="151" type="curve" smooth="yes"/>
      <point x="13" y="135" type="line" smooth="yes"/>
      <point x="2" y="50"/>
      <point x="57" y="-11"/>
      <point x="158" y="-11" type="curve" smooth="yes"/>
      <point x="238" y="-11"/>
      <point x="325" y="29"/>
      <point x="380" y="91" type="curve"/>
      <point x="409" y="29"/>
      <point x="469" y="-11"/>
      <point x="572" y="-11" type="curve" smooth="yes"/>
      <point x="712" y="-11"/>
      <point x="783" y="80"/>
      <point x="795" y="157" type="curve" smooth="yes"/>
      <point x="797" y="170" type="line"/>
      <point x="730" y="170" type="line"/>
      <point x="722" y="113"/>
      <point x="680" y="52"/>
      <point x="574" y="52" type="curve" smooth="yes"/>
      <point x="459" y="52"/>
      <point x="420" y="121"/>
      <point x="432" y="236" type="curve"/>
    </contour>
    <contour>
      <point x="174" y="50" type="curve" smooth="yes"/>
      <point x="106" y="50"/>
      <point x="78" y="94"/>
      <point x="85" y="141" type="curve" smooth="yes"/>
      <point x="87" y="155" type="line" smooth="yes"/>
      <point x="95" y="210"/>
      <point x="137" y="240"/>
      <point x="209" y="251" type="curve" smooth="yes"/>
      <point x="366" y="276" type="line"/>
      <point x="363" y="255" type="line" smooth="yes"/>
      <point x="358" y="219"/>
      <point x="357" y="185"/>
      <point x="362" y="154" type="curve"/>
      <point x="329" y="110"/>
      <point x="268" y="50"/>
    </contour>
    <contour>
      <point x="618" y="478" type="curve" smooth="yes"/>
      <point x="720" y="478"/>
      <point x="759" y="411"/>
      <point x="743" y="294" type="curve"/>
      <point x="439" y="294" type="line"/>
      <point x="454" y="402"/>
      <point x="521" y="478"/>
    </contour>
  </outline>
</glyph>
<glyph name="ccedilla" format="1">
  <advance width="522"/>
  <unicode hex="00E7"/>
  <outline>
    <contour>
      <point x="108" y="279" type="line" smooth="yes"/>
      <point x="125" y="403"/>
      <point x="182" y="478"/>
      <point x="280" y="478" type="curve" smooth="yes"/>
      <point x="378" y="478"/>
      <point x="413" y="415"/>
      <point x="401" y="336" type="curve"/>
      <point x="468" y="336" type="line"/>
      <point x="470" y="349" type="line" smooth="yes"/>
      <point x="483" y="434"/>
      <point x="440" y="541"/>
      <point x="280" y="541" type="curve" smooth="yes"/>
      <point x="130" y="541"/>
      <point x="58" y="430"/>
      <point x="37" y="277" type="curve" smooth="yes"/>
      <point x="34" y="255" type="line" smooth="yes"/>
      <point x="15" y="115"/>
      <point x="69" y="4"/>
      <point x="205" y="-9" type="curve"/>
      <point x="169" y="-80" type="line"/>
      <point x="182" y="-99" type="line"/>
      <point x="182" y="-99"/>
      <point x="197" y="-96"/>
      <point x="213" y="-96" type="curve" smooth="yes"/>
      <point x="243" y="-96"/>
      <point x="268" y="-104"/>
      <point x="268" y="-130" type="curve" smooth="yes"/>
      <point x="268" y="-157"/>
      <point x="246" y="-169"/>
      <point x="206" y="-169" type="curve" smooth="yes"/>
      <point x="176" y="-169"/>
      <point x="149" y="-158"/>
      <point x="135" y="-148" type="curve"/>
      <point x="115" y="-184" type="line"/>
      <point x="133" y="-198"/>
      <point x="169" y="-211"/>
      <point x="207" y="-211" type="curve" smooth="yes"/>
      <point x="269" y="-211"/>
      <point x="315" y="-186"/>
      <point x="315" y="-127" type="curve" smooth="yes"/>
      <point x="315" y="-75"/>
      <point x="271" y="-59"/>
      <point x="229" y="-58" type="curve" smooth="yes"/>
      <point x="225" y="-58" type="line"/>
      <point x="250" y="-10" type="line"/>
      <point x="384" y="-4"/>
      <point x="432" y="82"/>
      <point x="446" y="171" type="curve" smooth="yes"/>
      <point x="448" y="184" type="line"/>
      <point x="380" y="184" type="line"/>
      <point x="369" y="113"/>
      <point x="332" y="52"/>
      <point x="234" y="52" type="curve" smooth="yes"/>
      <point x="130" y="52"/>
      <point x="88" y="131"/>
      <point x="105" y="257" type="curve" smooth="yes"/>
    </contour>
  </outline>
</glyph>
<glyph name="eacute" format="1">
  <advance width="544"/>
  <unicode hex="00E9"/>
  <outline>
    <contour>
      <point x="380" y="780" type="line"/>
      <point x="268" y="614" type="line"/>
      <point x="340" y="614" type="line"/>
      <point x="456" y="780" type="line"/>
    </contour>
    <contour>
      <point x="477" y="236" type="line"/>
      <point x="482" y="275" type="line" smooth="yes"/>
      <point x="502" y="430"/>
      <point x="450" y="541"/>
      <point x="289" y="541" type="curve" smooth="yes"/>
      <point x="139" y="541"/>
      <point x="58" y="429"/>
      <point x="37" y="277" type="curve" smooth="yes"/>
      <point x="34" y="255" type="line" smooth="yes"/>
      <point x="14" y="108"/>
      <point x="66" y="-11"/>
      <point x="243" y="-11" type="curve" smooth="yes"/>
      <point x="383" y="-11"/>
      <point x="454" y="80"/>
      <point x="466" y="157" type="curve" smooth="yes"/>
      <point x="468" y="170" type="line"/>
      <point x="401" y="170" type="line"/>
      <point x="393" y="113"/>
      <point x="351" y="52"/>
      <point x="245" y="52" type="curve" smooth="yes"/>
      <point x="130" y="52"/>
      <point x="91" y="121"/>
      <point x="103" y="236" type="curve"/>
    </contour>
    <contour>
      <point x="289" y="478" type="curve" smooth="yes"/>
      <point x="391" y="478"/>
      <point x="430" y="411"/>
      <point x="414" y="294" type="curve"/>
      <point x="110" y="294" type="line"/>
      <point x="125" y="402"/>
      <point x="192" y="478"/>
    </contour>
  </outline>
</glyph>
<glyph name="igrave" format="1">
  <advance width="216"/>
  <unicode hex="00EC"/>
  <outline>
    <contour>
      <point x="31" y="780" type="line"/>
      <point x="103" y="614" type="line"/>
      <point x="175" y="614" type="line"/>
      <point x="107" y="780" type="line"/>
    </contour>
    <contour>
      <point x="24" y="0" type="line"/>
      <point x="94" y="0" type="line"/>
      <point x="163" y="530" type="line"/>
      <point x="93" y="530" type="line"/>
    </contour>
  </outline>
</glyph>
<glyph name="iacute" format="1">
  <advance width="216"/>
  <unicode hex="00ED"/>
  <outline>
    <contour>
      <point x="215" y="780" type="line"/>
      <point x="103" y="614" type="line"/>
      <point x="175" y="614" type="line"/>
      <point x="291" y="780" type="line"/>
    </contour>
    <contour>
      <point x="24" y="0" type="line"/>
      <point x="94" y="0" type="line"/>
      <point x="163" y="530" type="line"/>
      <point x="93" y="530" type="line"/>
    </contour>
  </outline>
</glyph>
<glyph name="icircumflex" format="1">
  <advance width="216"/>
  <unicode hex="00EE"/>
  <outline>
    <contour>
      <point x="50" y="614" type="line"/>
      <point x="157" y="727" type="line"/>
      <point x="235" y="614" type="line"/>
      <point x="301" y="614" type="line"/>
      <point x="192" y="780" type="line"/>
      <point x="130" y="780" type="line"/>
      <point x="-23" y="614" type="line"/>
    </contour>
    <contour>
      <point x="24" y="0" type="line"/>
      <point x="94" y="0" type="line"/>
      <point x="163" y="530" type="line"/>
      <point x="93" y="530" type="line"/>
    </contour>
  </outline>
</glyph>
<glyph name="idieresis" format="1">
  <advance width="216"/>
  <unicode hex="00EF"/>
  <outline>
    <contour>
      <point x="118" y="745" type="line"/>
      <point x="28" y="745" type="line"/>
      <point x="16" y="655" type="line"/>
      <point x="106" y="655" type="line"/>
    </contour>
    <contour>
      <point x="285" y="745" type="line"/>
      <point x="195" y="745" type="line"/>
      <point x="183" y="655" type="line"/>
      <point x="273" y="655" type="line"/>
    </contour>
    <contour>
      <point x="24" y="0" type="line"/>
      <point x="94" y="0" type="line"/>
      <point x="163" y="530" type="line"/>
      <point x="93" y="530" type="line"/>
    </contour>
  </outline>
</glyph>
<glyph name="eth" format="1">
  <advance width="544"/>
  <unicode hex="00F0"/>
  <outline>
    <contour>
      <point x="99" y="747" type="line"/>
      <point x="155" y="740"/>
      <point x="207" y="727"/>
      <point x="254" y="703" type="curve"/>
      <point x="122" y="632" type="line"/>
      <point x="114" y="577" type="line"/>
      <point x="298" y="676" type="line"/>
      <point x="319" y="660"/>
      <point x="338" y="647"/>
      <point x="358" y="620" type="curve" smooth="yes"/>
      <point x="385" y="584"/>
      <point x="402" y="544"/>
      <point x="413" y="496" type="curve"/>
      <point x="384" y="525"/>
      <point x="339" y="541"/>
      <point x="283" y="541" type="curve" smooth="yes"/>
      <point x="133" y="541"/>
      <point x="58" y="430"/>
      <point x="37" y="277" type="curve" smooth="yes"/>
      <point x="34" y="255" type="line" smooth="yes"/>
      <point x="14" y="106"/>
      <point x="73" y="-11"/>
      <point x="232" y="-11" type="curve" smooth="yes"/>
      <point x="382" y="-11"/>
      <point x="458" y="100"/>
      <point x="479" y="253" type="curve" smooth="yes"/>
      <point x="482" y="275" type="line" smooth="yes"/>
      <point x="498" y="391"/>
      <point x="494" y="558"/>
      <point x="419" y="662" type="curve" smooth="yes"/>
      <point x="404" y="682"/>
      <point x="387" y="699"/>
      <point x="369" y="714" type="curve"/>
      <point x="449" y="756" type="line"/>
      <point x="456" y="811" type="line"/>
      <point x="330" y="743" type="line"/>
      <point x="266" y="785"/>
      <point x="190" y="804"/>
      <point x="107" y="811" type="curve"/>
    </contour>
    <contour>
      <point x="232" y="52" type="curve" smooth="yes"/>
      <point x="127" y="52"/>
      <point x="88" y="131"/>
      <point x="105" y="257" type="curve" smooth="yes"/>
      <point x="108" y="279" type="line" smooth="yes"/>
      <point x="125" y="403"/>
      <point x="184" y="478"/>
      <point x="283" y="478" type="curve" smooth="yes"/>
      <point x="390" y="478"/>
      <point x="427" y="394"/>
      <point x="411" y="273" type="curve" smooth="yes"/>
      <point x="408" y="251" type="line" smooth="yes"/>
      <point x="391" y="127"/>
      <point x="331" y="52"/>
    </contour>
  </outline>
</glyph>
<glyph name="ntilde" format="1">
  <advance width="528"/>
  <unicode hex="00F1"/>
  <outline>
    <contour>
      <point x="419" y="746" type="line"/>
      <point x="414" y="712"/>
      <point x="397" y="699"/>
      <point x="377" y="699" type="curve" smooth="yes"/>
      <point x="335" y="699"/>
      <point x="301" y="757"/>
      <point x="242" y="757" type="curve" smooth="yes"/>
      <point x="194" y="757"/>
      <point x="157" y="725"/>
      <point x="148" y="654" type="curve"/>
      <point x="201" y="654" type="line"/>
      <point x="205" y="688"/>
      <point x="222" y="701"/>
      <point x="242" y="701" type="curve" smooth="yes"/>
      <point x="284" y="701"/>
      <point x="318" y="643"/>
      <point x="377" y="643" type="curve" smooth="yes"/>
      <point x="425" y="643"/>
      <point x="462" y="675"/>
      <point x="472" y="746" type="curve"/>
    </contour>
    <contour>
      <point x="416" y="0" type="line"/>
      <point x="465" y="371" type="line" smooth="yes"/>
      <point x="478" y="471"/>
      <point x="429" y="541"/>
      <point x="314" y="541" type="curve" smooth="yes"/>
      <point x="237" y="541"/>
      <point x="177" y="507"/>
      <point x="140" y="456" type="curve"/>
      <point x="140" y="530" type="line"/>
      <point x="80" y="530" type="line"/>
      <point x="67" y="386" type="line"/>
      <point x="16" y="0" type="line"/>
      <point x="86" y="0" type="line"/>
      <point x="138" y="395" type="line"/>
      <point x="163" y="429"/>
      <point x="212" y="478"/>
      <point x="290" y="478" type="curve" smooth="yes"/>
      <point x="365" y="478"/>
      <point x="405" y="441"/>
      <point x="394" y="361" type="curve" smooth="yes"/>
      <point x="346" y="0" type="line"/>
    </contour>
  </outline>
</glyph>
<glyph name="otilde" format="1">
  <advance width="544"/>
  <unicode hex="00F5"/>
  <outline>
    <contour>
      <point x="424" y="746" type="line"/>
      <point x="419" y="712"/>
      <point x="402" y="699"/>
      <point x="382" y="699" type="curve" smooth="yes"/>
      <point x="340" y="699"/>
      <point x="306" y="757"/>
      <point x="247" y="757" type="curve" smooth="yes"/>
      <point x="199" y="757"/>
      <point x="162" y="725"/>
      <point x="153" y="654" type="curve"/>
      <point x="206" y="654" type="line"/>
      <point x="210" y="688"/>
      <point x="227" y="701"/>
      <point x="247" y="701" type="curve" smooth="yes"/>
      <point x="289" y="701"/>
      <point x="323" y="643"/>
      <point x="382" y="643" type="curve" smooth="yes"/>
      <point x="430" y="643"/>
      <point x="467" y="675"/>
      <point x="477" y="746" type="curve"/>
    </contour>
    <contour>
      <point x="232" y="52" type="curve" smooth="yes"/>
      <point x="127" y="52"/>
      <point x="88" y="131"/>
      <point x="105" y="257" type="curve" smooth="yes"/>
      <point x="108" y="279" type="line" smooth="yes"/>
      <point x="125" y="403"/>
      <point x="184" y="478"/>
      <point x="283" y="478" type="curve" smooth="yes"/>
      <point x="388" y="478"/>
      <point x="428" y="399"/>
      <point x="411" y="273" type="curve" smooth="yes"/>
      <point x="408" y="251" type="line" smooth="yes"/>
      <point x="391" y="127"/>
      <point x="331" y="52"/>
    </contour>
    <contour>
      <point x="232" y="-11" type="curve" smooth="yes"/>
      <point x="382" y="-11"/>
      <point x="458" y="100"/>
      <point x="479" y="253" type="curve" smooth="yes"/>
      <point x="482" y="275" type="line" smooth="yes"/>
      <point x="502" y="424"/>
      <point x="442" y="541"/>
      <point x="283" y="541" type="curve" smooth="yes"/>
      <point x="133" y="541"/>
      <point x="58" y="430"/>
      <point x="37" y="277" type="curve" smooth="yes"/>
      <point x="34" y="255" type="line" smooth="yes"/>
      <point x="14" y="106"/>
      <point x="73" y="-11"/>
    </contour>
  </outline>
</glyph>
<glyph name="odieresis" format="1">
  <advance width="544"/>
  <unicode hex="00F6"/>
  <outline>
    <contour>
      <point x="282" y="745" type="line"/>
      <point x="192" y="745" type="line"/>
      <point x="180" y="655" type="line"/>
      <point x="270" y="655" type="line"/>
    </contour>
    <contour>
      <point x="449" y="745" type="line"/>
      <point x="359" y="745" type="line"/>
      <point x="347" y="655" type="line"/>
      <point x="437" y="655" type="line"/>
    </contour>
    <contour>
      <point x="232" y="52" type="curve" smooth="yes"/>
      <point x="127" y="52"/>
      <point x="88" y="131"/>
      <point x="105" y="257" type="curve" smooth="yes"/>
      <point x="108" y="279" type="line" smooth="yes"/>
      <point x="125" y="403"/>
      <point x="184" y="478"/>
      <point x="283" y="478" type="curve" smooth="yes"/>
      <point x="388" y="478"/>
      <point x="428" y="399"/>
      <point x="411" y="273" type="curve" smooth="yes"/>
      <point x="408" y="251" type="line" smooth="yes"/>
      <point x="391" y="127"/>
      <point x="331" y="52"/>
    </contour>
    <contour>
      <point x="232" y="-11" type="curve" smooth="yes"/>
      <point x="382" y="-11"/>
      <point x="458" y="100"/>
      <point x="479" y="253" type="curve" smooth="yes"/>
      <point x="482" y="275" type="line" smooth="yes"/>
      <point x="502" y="424"/>
      <point x="442" y="541"/>
      <point x="283" y="541" type="curve" smooth="yes"/>
      <point x="133" y="541"/>
      <point x="58" y="430"/>
      <point x="37" y="277" type="curve" smooth="yes"/>
      <point x="34" y="255" type="line" smooth="yes"/>
      <point x="14" y="106"/>
      <point x="73" y="-11"/>
    </contour>
  </outline>
</glyph>
<glyph name="divide" format="1">
  <advance width="600"/>
  <unicode hex="00F7"/>
  <outline>
    <contour>
      <point x="44" y="357" type="line"/>
      <point x="549" y="357" type="line"/>
      <point x="558" y="423" type="line"/>
      <point x="53" y="423" type="line"/>
    </contour>
    <contour>
      <point x="323" y="218" type="line"/>
      <point x="233" y="218" type="line"/>
      <point x="221" y="128" type="line"/>
      <point x="311" y="128" type="line"/>
    </contour>
    <contour>
      <point x="381" y="652" type="line"/>
      <point x="291" y="652" type="line"/>
      <point x="279" y="562" type="line"/>
      <point x="369" y="562" type="line"/>
    </contour>
  </outline>
</glyph>
<glyph name="oslash" format="1">
  <advance width="544"/>
  <unicode hex="00F8"/>
  <outline>
    <contour>
      <point x="404" y="398" type="line"/>
      <point x="415" y="365"/>
      <point x="417" y="323"/>
      <point x="411" y="273" type="curve" smooth="yes"/>
      <point x="408" y="251" type="line" smooth="yes"/>
      <point x="391" y="127"/>
      <point x="332" y="52"/>
      <point x="233" y="52" type="curve" smooth="yes"/>
      <point x="192" y="52"/>
      <point x="161" y="64"/>
      <point x="139" y="87" type="curve"/>
    </contour>
    <contour>
      <point x="34" y="255" type="line" smooth="yes"/>
      <point x="25" y="184"/>
      <point x="33" y="121"/>
      <point x="62" y="73" type="curve"/>
      <point x="0" y="0" type="line"/>
      <point x="65" y="0" type="line"/>
      <point x="95" y="35" type="line"/>
      <point x="128" y="6"/>
      <point x="173" y="-11"/>
      <point x="233" y="-11" type="curve" smooth="yes"/>
      <point x="383" y="-11"/>
      <point x="458" y="100"/>
      <point x="479" y="253" type="curve" smooth="yes"/>
      <point x="482" y="275" type="line" smooth="yes"/>
      <point x="491" y="346"/>
      <point x="483" y="409"/>
      <point x="454" y="457" type="curve"/>
      <point x="516" y="530" type="line"/>
      <point x="451" y="530" type="line"/>
      <point x="421" y="495" type="line"/>
      <point x="388" y="524"/>
      <point x="343" y="541"/>
      <point x="283" y="541" type="curve" smooth="yes"/>
      <point x="133" y="541"/>
      <point x="58" y="430"/>
      <point x="37" y="277" type="curve" smooth="yes"/>
    </contour>
    <contour>
      <point x="112" y="132" type="line"/>
      <point x="101" y="165"/>
      <point x="99" y="207"/>
      <point x="105" y="257" type="curve" smooth="yes"/>
      <point x="108" y="279" type="line" smooth="yes"/>
      <point x="125" y="403"/>
      <point x="184" y="478"/>
      <point x="283" y="478" type="curve" smooth="yes"/>
      <point x="324" y="478"/>
      <point x="355" y="466"/>
      <point x="377" y="443" type="curve"/>
    </contour>
  </outline>
</glyph>
<glyph name="udieresis" format="1">
  <advance width="528"/>
  <unicode hex="00FC"/>
  <outline>
    <contour>
      <point x="271" y="745" type="line"/>
      <point x="181" y="745" type="line"/>
      <point x="169" y="655" type="line"/>
      <point x="259" y="655" type="line"/>
    </contour>
    <contour>
      <point x="438" y="745" type="line"/>
      <point x="348" y="745" type="line"/>
      <point x="336" y="655" type="line"/>
      <point x="426" y="655" type="line"/>
    </contour>
    <contour>
      <point x="82" y="530" type="line"/>
      <point x="33" y="159" type="line" smooth="yes"/>
      <point x="20" y="59"/>
      <point x="69" y="-11"/>
      <point x="184" y="-11" type="curve" smooth="yes"/>
      <point x="261" y="-11"/>
      <point x="321" y="23"/>
      <point x="358" y="74" type="curve"/>
      <point x="358" y="0" type="line"/>
      <point x="418" y="0" type="line"/>
      <point x="431" y="144" type="line"/>
      <point x="482" y="530" type="line"/>
      <point x="412" y="530" type="line"/>
      <point x="360" y="135" type="line"/>
      <point x="335" y="101"/>
      <point x="286" y="52"/>
      <point x="208" y="52" type="curve" smooth="yes"/>
      <point x="133" y="52"/>
      <point x="93" y="89"/>
      <point x="104" y="169" type="curve" smooth="yes"/>
      <point x="152" y="530" type="line"/>
    </contour>
  </outline>
</glyph>
<glyph name="yacute" format="1">
  <advance width="484"/>
  <unicode hex="00FD"/>
  <outline>
    <contour>
      <point x="356" y="780" type="line"/>
      <point x="244" y="614" type="line"/>
      <point x="316" y="614" type="line"/>
      <point x="432" y="780" type="line"/>
    </contour>
    <contour>
      <point x="210" y="96" type="line"/>
      <point x="115" y="530" type="line"/>
      <point x="43" y="530" type="line"/>
      <point x="166" y="20" type="line"/>
      <point x="54" y="-200" type="line"/>
      <point x="135" y="-200" type="line"/>
      <point x="239" y="20" type="line"/>
      <point x="496" y="530" type="line"/>
      <point x="418" y="530" type="line"/>
    </contour>
  </outline>
</glyph>
<glyph name="thorn" format="1">
  <advance width="537"/>
  <unicode hex="00FE"/>
  <outline>
    <contour>
      <point x="122" y="800" type="line"/>
      <point x="-10" y="-200" type="line"/>
      <point x="60" y="-200" type="line"/>
      <point x="95" y="65" type="line"/>
      <point x="111" y="37"/>
      <point x="159" y="-11"/>
      <point x="240" y="-11" type="curve" smooth="yes"/>
      <point x="383" y="-11"/>
      <point x="453" y="99"/>
      <point x="474" y="253" type="curve" smooth="yes"/>
      <point x="477" y="275" type="line" smooth="yes"/>
      <point x="498" y="426"/>
      <point x="444" y="541"/>
      <point x="299" y="541" type="curve" smooth="yes"/>
      <point x="233" y="541"/>
      <point x="180" y="512"/>
      <point x="149" y="474" type="curve"/>
      <point x="192" y="800" type="line"/>
    </contour>
    <contour>
      <point x="231" y="52" type="curve" smooth="yes"/>
      <point x="161" y="52"/>
      <point x="122" y="101"/>
      <point x="105" y="139" type="curve"/>
      <point x="139" y="402" type="line"/>
      <point x="170" y="443"/>
      <point x="214" y="478"/>
      <point x="282" y="478" type="curve" smooth="yes"/>
      <point x="381" y="478"/>
      <point x="423" y="400"/>
      <point x="406" y="273" type="curve" smooth="yes"/>
      <point x="403" y="251" type="line" smooth="yes"/>
      <point x="386" y="128"/>
      <point x="331" y="52"/>
    </contour>
  </outline>
</glyph>
<glyph name="ydieresis" format="1">
  <advance width="484"/>
  <unicode hex="00FF"/>
  <outline>
    <contour>
      <point x="259" y="745" type="line"/>
      <point x="169" y="745" type="line"/>
      <point x="157" y="655" type="line"/>
      <point x="247" y="655" type="line"/>
    </contour>
    <contour>
      <point x="426" y="745" type="line"/>
      <point x="336" y="745" type="line"/>
      <point x="324" y="655" type="line"/>
      <point x="414" y="655" type="line"/>
    </contour>
    <contour>
      <point x="210" y="96" type="line"/>
      <point x="115" y="530" type="line"/>
      <point x="43" y="530" type="line"/>
      <point x="166" y="20" type="line"/>
      <point x="54" y="-200" type="line"/>
      <point x="135" y="-200" type="line"/>
      <point x="239" y="20" type="line"/>
      <point x="496" y="530" type="line"/>
      <point x="418" y="530" type="line"/>
    </contour>
  </outline>
</glyph>
<glyph name="Amacron" format="1">
  <advance width="611"/>
  <unicode hex="0100"/>
  <outline>
    <contour>
      <point x="257" y="868" type="line"/>
      <point x="483" y="868" type="line"/>
      <point x="490" y="922" type="line"/>
      <point x="264" y="922" type="line"/>
    </contour>
    <contour>
      <point x="309" y="788" type="line"/>
      <point x="-20" y="0" type="line"/>
      <point x="59" y="0" type="line"/>
      <point x="141" y="200" type="line"/>
      <point x="427" y="200" type="line"/>
      <point x="457" y="0" type="line"/>
      <point x="533" y="0" type="line"/>
      <point x="411" y="788" type="line"/>
    </contour>
    <contour>
      <point x="351" y="709" type="line"/>
      <point x="417" y="265" type="line"/>
      <point x="168" y="265" type="line"/>
    </contour>
  </outline>
</glyph>
<glyph name="Abreve" format="1">
  <advance width="611"/>
  <unicode hex="0102"/>
  <outline>
    <contour>
      <point x="366" y="829" type="curve" smooth="yes"/>
      <point x="467" y="829"/>
      <point x="517" y="881"/>
      <point x="526" y="950" type="curve"/>
      <point x="469" y="950" type="line"/>
      <point x="463" y="906"/>
      <point x="431" y="875"/>
      <point x="369" y="875" type="curve" smooth="yes"/>
      <point x="307" y="875"/>
      <point x="282" y="906"/>
      <point x="289" y="950" type="curve"/>
      <point x="236" y="950" type="line"/>
      <point x="226" y="881"/>
      <point x="266" y="829"/>
    </contour>
    <contour>
      <point x="309" y="788" type="line"/>
      <point x="-20" y="0" type="line"/>
      <point x="59" y="0" type="line"/>
      <point x="141" y="200" type="line"/>
      <point x="427" y="200" type="line"/>
      <point x="457" y="0" type="line"/>
      <point x="533" y="0" type="line"/>
      <point x="411" y="788" type="line"/>
    </contour>
    <contour>
      <point x="351" y="709" type="line"/>
      <point x="417" y="265" type="line"/>
      <point x="168" y="265" type="line"/>
    </contour>
  </outline>
</glyph>
<glyph name="Aogonek" format="1">
  <advance width="611"/>
  <unicode hex="0104"/>
  <outline>
    <contour>
      <point x="309" y="788" type="line"/>
      <point x="-20" y="0" type="line"/>
      <point x="59" y="0" type="line"/>
      <point x="141" y="200" type="line"/>
      <point x="427" y="200" type="line"/>
      <point x="456" y="4" type="line"/>
      <point x="412" y="-25"/>
      <point x="376" y="-69"/>
      <point x="376" y="-129" type="curve" smooth="yes"/>
      <point x="376" y="-184"/>
      <point x="415" y="-211"/>
      <point x="477" y="-211" type="curve" smooth="yes"/>
      <point x="505" y="-211"/>
      <point x="540" y="-204"/>
      <point x="562" y="-191" type="curve"/>
      <point x="550" y="-145" type="line"/>
      <point x="534" y="-153"/>
      <point x="513" y="-158"/>
      <point x="492" y="-158" type="curve" smooth="yes"/>
      <point x="456" y="-158"/>
      <point x="433" y="-143"/>
      <point x="433" y="-113" type="curve" smooth="yes"/>
      <point x="433" y="-56"/>
      <point x="489" y="-19"/>
      <point x="533" y="0" type="curve"/>
      <point x="411" y="788" type="line"/>
    </contour>
    <contour>
      <point x="351" y="709" type="line"/>
      <point x="417" y="265" type="line"/>
      <point x="168" y="265" type="line"/>
    </contour>
  </outline>
</glyph>
<glyph name="Dcaron" format="1">
  <advance width="639"/>
  <unicode hex="010E"/>
  <outline>
    <contour>
      <point x="586" y="410" type="line" smooth="yes"/>
      <point x="620" y="680"/>
      <point x="514" y="780"/>
      <point x="324" y="780" type="curve" smooth="yes"/>
      <point x="127" y="780" type="line"/>
      <point x="25" y="0" type="line"/>
      <point x="229" y="0" type="line" smooth="yes"/>
      <point x="419" y="0"/>
      <point x="548" y="106"/>
      <point x="581" y="370" type="curve" smooth="yes"/>
    </contour>
    <contour>
      <point x="105" y="65" type="line"/>
      <point x="191" y="715" type="line"/>
      <point x="317" y="715" type="line" smooth="yes"/>
      <point x="463" y="715"/>
      <point x="540" y="632"/>
      <point x="512" y="410" type="curve" smooth="yes"/>
      <point x="507" y="370" type="line" smooth="yes"/>
      <point x="480" y="156"/>
      <point x="381" y="65"/>
      <point x="231" y="65" type="curve" smooth="yes"/>
    </contour>
    <contour>
      <point x="230" y="950" type="line"/>
      <point x="321" y="840" type="line"/>
      <point x="385" y="840" type="line"/>
      <point x="506" y="950" type="line"/>
      <point x="432" y="950" type="line"/>
      <point x="354" y="881" type="line"/>
      <point x="297" y="950" type="line"/>
    </contour>
  </outline>
</glyph>
<glyph name="Dcroat" format="1">
  <advance width="699"/>
  <unicode hex="0110"/>
  <outline>
    <contour>
      <point x="646" y="410" type="line" smooth="yes"/>
      <point x="680" y="680"/>
      <point x="574" y="780"/>
      <point x="384" y="780" type="curve" smooth="yes"/>
      <point x="187" y="780" type="line"/>
      <point x="141" y="430" type="line"/>
      <point x="26" y="430" type="line"/>
      <point x="17" y="366" type="line"/>
      <point x="133" y="366" type="line"/>
      <point x="85" y="0" type="line"/>
      <point x="289" y="0" type="line" smooth="yes"/>
      <point x="479" y="0"/>
      <point x="608" y="106"/>
      <point x="641" y="370" type="curve" smooth="yes"/>
    </contour>
    <contour>
      <point x="165" y="65" type="line"/>
      <point x="205" y="366" type="line"/>
      <point x="418" y="366" type="line"/>
      <point x="427" y="430" type="line"/>
      <point x="213" y="430" type="line"/>
      <point x="251" y="715" type="line"/>
      <point x="377" y="715" type="line" smooth="yes"/>
      <point x="523" y="715"/>
      <point x="600" y="632"/>
      <point x="572" y="410" type="curve" smooth="yes"/>
      <point x="567" y="370" type="line" smooth="yes"/>
      <point x="540" y="156"/>
      <point x="441" y="65"/>
      <point x="291" y="65" type="curve" smooth="yes"/>
    </contour>
  </outline>
</glyph>
<glyph name="dcroat" format="1">
  <advance width="540"/>
  <unicode hex="0111"/>
  <outline>
    <contour>
      <point x="599" y="633" type="line"/>
      <point x="608" y="697" type="line"/>
      <point x="516" y="697" type="line"/>
      <point x="530" y="800" type="line"/>
      <point x="460" y="800" type="line"/>
      <point x="446" y="697" type="line"/>
      <point x="312" y="697" type="line"/>
      <point x="303" y="633" type="line"/>
      <point x="438" y="633" type="line"/>
      <point x="416" y="465" type="line"/>
      <point x="400" y="493"/>
      <point x="352" y="541"/>
      <point x="271" y="541" type="curve" smooth="yes"/>
      <point x="128" y="541"/>
      <point x="58" y="431"/>
      <point x="37" y="277" type="curve" smooth="yes"/>
      <point x="34" y="255" type="line" smooth="yes"/>
      <point x="13" y="104"/>
      <point x="67" y="-11"/>
      <point x="212" y="-11" type="curve" smooth="yes"/>
      <point x="278" y="-11"/>
      <point x="338" y="20"/>
      <point x="371" y="67" type="curve"/>
      <point x="371" y="0" type="line"/>
      <point x="431" y="0" type="line"/>
      <point x="444" y="144" type="line"/>
      <point x="508" y="633" type="line"/>
    </contour>
    <contour>
      <point x="280" y="478" type="curve" smooth="yes"/>
      <point x="350" y="478"/>
      <point x="389" y="429"/>
      <point x="406" y="391" type="curve"/>
      <point x="372" y="128" type="line"/>
      <point x="341" y="87"/>
      <point x="297" y="52"/>
      <point x="229" y="52" type="curve" smooth="yes"/>
      <point x="130" y="52"/>
      <point x="88" y="130"/>
      <point x="105" y="257" type="curve" smooth="yes"/>
      <point x="108" y="279" type="line" smooth="yes"/>
      <point x="125" y="402"/>
      <point x="180" y="478"/>
    </contour>
  </outline>
</glyph>
<glyph name="Emacron" format="1">
  <advance width="549"/>
  <unicode hex="0112"/>
  <outline>
    <contour>
      <point x="251" y="868" type="line"/>
      <point x="477" y="868" type="line"/>
      <point x="484" y="922" type="line"/>
      <point x="258" y="922" type="line"/>
    </contour>
    <contour>
      <point x="127" y="780" type="line"/>
      <point x="25" y="0" type="line"/>
      <point x="460" y="0" type="line"/>
      <point x="468" y="65" type="line"/>
      <point x="105" y="65" type="line"/>
      <point x="144" y="366" type="line"/>
      <point x="457" y="366" type="line"/>
      <point x="466" y="430" type="line"/>
      <point x="153" y="430" type="line"/>
      <point x="190" y="715" type="line"/>
      <point x="554" y="715" type="line"/>
      <point x="562" y="780" type="line"/>
    </contour>
  </outline>
</glyph>
<glyph name="Ebreve" format="1">
  <advance width="549"/>
  <unicode hex="0114"/>
  <outline>
    <contour>
      <point x="360" y="829" type="curve" smooth="yes"/>
      <point x="461" y="829"/>
      <point x="511" y="881"/>
      <point x="520" y="950" type="curve"/>
      <point x="463" y="950" type="line"/>
      <point x="457" y="906"/>
      <point x="425" y="875"/>
      <point x="363" y="875" type="curve" smooth="yes"/>
      <point x="301" y="875"/>
      <point x="276" y="906"/>
      <point x="283" y="950" type="curve"/>
      <point x="230" y="950" type="line"/>
      <point x="220" y="881"/>
      <point x="260" y="829"/>
    </contour>
    <contour>
      <point x="127" y="780" type="line"/>
      <point x="25" y="0" type="line"/>
      <point x="460" y="0" type="line"/>
      <point x="468" y="65" type="line"/>
      <point x="105" y="65" type="line"/>
      <point x="144" y="366" type="line"/>
      <point x="457" y="366" type="line"/>
      <point x="466" y="430" type="line"/>
      <point x="153" y="430" type="line"/>
      <point x="190" y="715" type="line"/>
      <point x="554" y="715" type="line"/>
      <point x="562" y="780" type="line"/>
    </contour>
  </outline>
</glyph>
<glyph name="ebreve" format="1">
  <advance width="544"/>
  <unicode hex="0115"/>
  <outline>
    <contour>
      <point x="307" y="603" type="curve" smooth="yes"/>
      <point x="421" y="603"/>
      <point x="474" y="676"/>
      <point x="487" y="780" type="curve"/>
      <point x="429" y="780" type="line"/>
      <point x="420" y="707"/>
      <point x="381" y="658"/>
      <point x="307" y="658" type="curve" smooth="yes"/>
      <point x="233" y="658"/>
      <point x="210" y="707"/>
      <point x="219" y="780" type="curve"/>
      <point x="165" y="780" type="line"/>
      <point x="151" y="676"/>
      <point x="192" y="603"/>
    </contour>
    <contour>
      <point x="477" y="236" type="line"/>
      <point x="482" y="275" type="line" smooth="yes"/>
      <point x="502" y="430"/>
      <point x="450" y="541"/>
      <point x="289" y="541" type="curve" smooth="yes"/>
      <point x="139" y="541"/>
      <point x="58" y="429"/>
      <point x="37" y="277" type="curve" smooth="yes"/>
      <point x="34" y="255" type="line" smooth="yes"/>
      <point x="14" y="108"/>
      <point x="66" y="-11"/>
      <point x="243" y="-11" type="curve" smooth="yes"/>
      <point x="383" y="-11"/>
      <point x="454" y="80"/>
      <point x="466" y="157" type="curve" smooth="yes"/>
      <point x="468" y="170" type="line"/>
      <point x="401" y="170" type="line"/>
      <point x="393" y="113"/>
      <point x="351" y="52"/>
      <point x="245" y="52" type="curve" smooth="yes"/>
      <point x="130" y="52"/>
      <point x="91" y="121"/>
      <point x="103" y="236" type="curve"/>
    </contour>
    <contour>
      <point x="289" y="478" type="curve" smooth="yes"/>
      <point x="391" y="478"/>
      <point x="430" y="411"/>
      <point x="414" y="294" type="curve"/>
      <point x="110" y="294" type="line"/>
      <point x="125" y="402"/>
      <point x="192" y="478"/>
    </contour>
  </outline>
</glyph>
<glyph name="Eogonek" format="1">
  <advance width="549"/>
  <unicode hex="0118"/>
  <outline>
    <contour>
      <point x="127" y="780" type="line"/>
      <point x="25" y="0" type="line"/>
      <point x="377" y="0" type="line"/>
      <point x="335" y="-29"/>
      <point x="303" y="-71"/>
      <point x="303" y="-129" type="curve" smooth="yes"/>
      <point x="303" y="-184"/>
      <point x="342" y="-211"/>
      <point x="404" y="-211" type="curve" smooth="yes"/>
      <point x="432" y="-211"/>
      <point x="467" y="-204"/>
      <point x="489" y="-191" type="curve"/>
      <point x="477" y="-145" type="line"/>
      <point x="461" y="-153"/>
      <point x="440" y="-158"/>
      <point x="419" y="-158" type="curve" smooth="yes"/>
      <point x="383" y="-158"/>
      <point x="360" y="-143"/>
      <point x="360" y="-113" type="curve" smooth="yes"/>
      <point x="360" y="-56"/>
      <point x="416" y="-19"/>
      <point x="460" y="0" type="curve"/>
      <point x="468" y="65" type="line"/>
      <point x="105" y="65" type="line"/>
      <point x="144" y="366" type="line"/>
      <point x="457" y="366" type="line"/>
      <point x="466" y="430" type="line"/>
      <point x="153" y="430" type="line"/>
      <point x="190" y="715" type="line"/>
      <point x="554" y="715" type="line"/>
      <point x="562" y="780" type="line"/>
    </contour>
  </outline>
</glyph>
<glyph name="eogonek" format="1">
  <advance width="544"/>
  <unicode hex="0119"/>
  <outline>
    <contour>
      <point x="477" y="236" type="line"/>
      <point x="482" y="275" type="line" smooth="yes"/>
      <point x="502" y="430"/>
      <point x="450" y="541"/>
      <point x="289" y="541" type="curve" smooth="yes"/>
      <point x="139" y="541"/>
      <point x="58" y="429"/>
      <point x="37" y="277" type="curve" smooth="yes"/>
      <point x="34" y="255" type="line" smooth="yes"/>
      <point x="14" y="113"/>
      <point x="62" y="-2"/>
      <point x="225" y="-10" type="curve"/>
      <point x="190" y="-39"/>
      <point x="165" y="-78"/>
      <point x="165" y="-129" type="curve" smooth="yes"/>
      <point x="165" y="-184"/>
      <point x="204" y="-211"/>
      <point x="266" y="-211" type="curve" smooth="yes"/>
      <point x="294" y="-211"/>
      <point x="329" y="-204"/>
      <point x="351" y="-191" type="curve"/>
      <point x="339" y="-145" type="line"/>
      <point x="323" y="-153"/>
      <point x="302" y="-158"/>
      <point x="281" y="-158" type="curve" smooth="yes"/>
      <point x="245" y="-158"/>
      <point x="222" y="-143"/>
      <point x="222" y="-113" type="curve" smooth="yes"/>
      <point x="222" y="-56"/>
      <point x="278" y="-19"/>
      <point x="322" y="0" type="curve"/>
      <point x="410" y="26"/>
      <point x="456" y="96"/>
      <point x="466" y="157" type="curve" smooth="yes"/>
      <point x="468" y="170" type="line"/>
      <point x="401" y="170" type="line"/>
      <point x="393" y="113"/>
      <point x="351" y="52"/>
      <point x="245" y="52" type="curve" smooth="yes"/>
      <point x="130" y="52"/>
      <point x="91" y="121"/>
      <point x="103" y="236" type="curve"/>
    </contour>
    <contour>
      <point x="289" y="478" type="curve" smooth="yes"/>
      <point x="391" y="478"/>
      <point x="430" y="411"/>
      <point x="414" y="294" type="curve"/>
      <point x="110" y="294" type="line"/>
      <point x="125" y="402"/>
      <point x="192" y="478"/>
    </contour>
  </outline>
</glyph>
<glyph name="Ecaron" format="1">
  <advance width="549"/>
  <unicode hex="011A"/>
  <outline>
    <contour>
      <point x="237" y="950" type="line"/>
      <point x="328" y="840" type="line"/>
      <point x="392" y="840" type="line"/>
      <point x="513" y="950" type="line"/>
      <point x="439" y="950" type="line"/>
      <point x="361" y="881" type="line"/>
      <point x="304" y="950" type="line"/>
    </contour>
    <contour>
      <point x="127" y="780" type="line"/>
      <point x="25" y="0" type="line"/>
      <point x="460" y="0" type="line"/>
      <point x="468" y="65" type="line"/>
      <point x="105" y="65" type="line"/>
      <point x="144" y="366" type="line"/>
      <point x="457" y="366" type="line"/>
      <point x="466" y="430" type="line"/>
      <point x="153" y="430" type="line"/>
      <point x="190" y="715" type="line"/>
      <point x="554" y="715" type="line"/>
      <point x="562" y="780" type="line"/>
    </contour>
  </outline>
</glyph>
<glyph name="gcircumflex" format="1">
  <advance width="537"/>
  <unicode hex="011D"/>
  <outline>
    <contour>
      <point x="197" y="614" type="line"/>
      <point x="304" y="727" type="line"/>
      <point x="382" y="614" type="line"/>
      <point x="448" y="614" type="line"/>
      <point x="339" y="780" type="line"/>
      <point x="277" y="780" type="line"/>
      <point x="124" y="614" type="line"/>
    </contour>
    <contour>
      <point x="353" y="-3" type="line" smooth="yes"/>
      <point x="341" y="-98"/>
      <point x="303" y="-148"/>
      <point x="195" y="-148" type="curve" smooth="yes"/>
      <point x="98" y="-148"/>
      <point x="59" y="-100"/>
      <point x="75" y="0" type="curve"/>
      <point x="10" y="0" type="line"/>
      <point x="8" y="-13" type="line" smooth="yes"/>
      <point x="-9" y="-122"/>
      <point x="40" y="-211"/>
      <point x="195" y="-211" type="curve" smooth="yes"/>
      <point x="343" y="-211"/>
      <point x="407" y="-127"/>
      <point x="422" y="-8" type="curve" smooth="yes"/>
      <point x="473" y="380" type="line"/>
      <point x="498" y="530" type="line"/>
      <point x="440" y="530" type="line"/>
      <point x="421" y="453" type="line"/>
      <point x="403" y="492"/>
      <point x="350" y="541"/>
      <point x="269" y="541" type="curve" smooth="yes"/>
      <point x="126" y="541"/>
      <point x="57" y="440"/>
      <point x="38" y="297" type="curve" smooth="yes"/>
      <point x="35" y="275" type="line" smooth="yes"/>
      <point x="16" y="139"/>
      <point x="66" y="27"/>
      <point x="214" y="27" type="curve" smooth="yes"/>
      <point x="281" y="27"/>
      <point x="334" y="56"/>
      <point x="365" y="94" type="curve"/>
    </contour>
    <contour>
      <point x="375" y="167" type="line"/>
      <point x="344" y="126"/>
      <point x="300" y="90"/>
      <point x="232" y="90" type="curve" smooth="yes"/>
      <point x="130" y="90"/>
      <point x="90" y="162"/>
      <point x="106" y="277" type="curve" smooth="yes"/>
      <point x="109" y="299" type="line" smooth="yes"/>
      <point x="125" y="414"/>
      <point x="179" y="478"/>
      <point x="279" y="478" type="curve" smooth="yes"/>
      <point x="349" y="478"/>
      <point x="389" y="430"/>
      <point x="405" y="392" type="curve"/>
    </contour>
  </outline>
</glyph>
<glyph name="Gdotaccent" format="1">
  <advance width="648"/>
  <unicode hex="0120"/>
  <outline>
    <contour>
      <point x="442" y="930" type="line"/>
      <point x="363" y="930" type="line"/>
      <point x="354" y="860" type="line"/>
      <point x="433" y="860" type="line"/>
    </contour>
    <contour>
      <point x="293" y="-11" type="curve" smooth="yes"/>
      <point x="417" y="-11"/>
      <point x="491" y="35"/>
      <point x="539" y="79" type="curve"/>
      <point x="579" y="384" type="line"/>
      <point x="373" y="384" type="line"/>
      <point x="365" y="320" type="line"/>
      <point x="499" y="320" type="line"/>
      <point x="472" y="114" type="line"/>
      <point x="440" y="84"/>
      <point x="381" y="54"/>
      <point x="302" y="54" type="curve" smooth="yes"/>
      <point x="295" y="54" type="line" smooth="yes"/>
      <point x="164" y="54"/>
      <point x="102" y="148"/>
      <point x="130" y="370" type="curve" smooth="yes"/>
      <point x="135" y="410" type="line" smooth="yes"/>
      <point x="163" y="632"/>
      <point x="242" y="726"/>
      <point x="372" y="726" type="curve" smooth="yes"/>
      <point x="379" y="726" type="line" smooth="yes"/>
      <point x="496" y="726"/>
      <point x="541" y="657"/>
      <point x="520" y="496" type="curve"/>
      <point x="594" y="496" type="line"/>
      <point x="598" y="525" type="line" smooth="yes"/>
      <point x="622" y="701"/>
      <point x="544" y="791"/>
      <point x="378" y="791" type="curve" smooth="yes"/>
      <point x="199" y="791"/>
      <point x="95" y="680"/>
      <point x="61" y="410" type="curve" smooth="yes"/>
      <point x="56" y="370" type="line" smooth="yes"/>
      <point x="22" y="100"/>
      <point x="114" y="-11"/>
    </contour>
  </outline>
</glyph>
<glyph name="Hcircumflex" format="1">
  <advance width="639"/>
  <unicode hex="0124"/>
  <outline>
    <contour>
      <point x="546" y="780" type="line"/>
      <point x="500" y="430" type="line"/>
      <point x="153" y="430" type="line"/>
      <point x="199" y="780" type="line"/>
      <point x="127" y="780" type="line"/>
      <point x="25" y="0" type="line"/>
      <point x="97" y="0" type="line"/>
      <point x="145" y="366" type="line"/>
      <point x="492" y="366" type="line"/>
      <point x="444" y="0" type="line"/>
      <point x="516" y="0" type="line"/>
      <point x="618" y="780" type="line"/>
    </contour>
    <contour>
      <point x="518" y="840" type="line"/>
      <point x="427" y="950" type="line"/>
      <point x="363" y="950" type="line"/>
      <point x="242" y="840" type="line"/>
      <point x="316" y="840" type="line"/>
      <point x="394" y="909" type="line"/>
      <point x="451" y="840" type="line"/>
    </contour>
  </outline>
</glyph>
<glyph name="hcircumflex" format="1">
  <advance width="528"/>
  <unicode hex="0125"/>
  <outline>
    <contour>
      <point x="191" y="800" type="line"/>
      <point x="121" y="800" type="line"/>
      <point x="16" y="0" type="line"/>
      <point x="86" y="0" type="line"/>
      <point x="138" y="395" type="line"/>
      <point x="163" y="429"/>
      <point x="212" y="478"/>
      <point x="290" y="478" type="curve" smooth="yes"/>
      <point x="365" y="478"/>
      <point x="405" y="441"/>
      <point x="394" y="361" type="curve" smooth="yes"/>
      <point x="346" y="0" type="line"/>
      <point x="416" y="0" type="line"/>
      <point x="465" y="371" type="line" smooth="yes"/>
      <point x="478" y="471"/>
      <point x="429" y="541"/>
      <point x="314" y="541" type="curve" smooth="yes"/>
      <point x="239" y="541"/>
      <point x="180" y="507"/>
      <point x="147" y="465" type="curve"/>
    </contour>
    <contour>
      <point x="300" y="840" type="line"/>
      <point x="209" y="950" type="line"/>
      <point x="145" y="950" type="line"/>
      <point x="24" y="840" type="line"/>
      <point x="98" y="840" type="line"/>
      <point x="176" y="909" type="line"/>
      <point x="233" y="840" type="line"/>
    </contour>
  </outline>
</glyph>
<glyph name="Hbar" format="1">
  <advance width="639"/>
  <unicode hex="0126"/>
  <outline>
    <contour>
      <point x="546" y="780" type="line"/>
      <point x="527" y="639" type="line"/>
      <point x="180" y="639" type="line"/>
      <point x="199" y="780" type="line"/>
      <point x="127" y="780" type="line"/>
      <point x="25" y="0" type="line"/>
      <point x="97" y="0" type="line"/>
      <point x="145" y="366" type="line"/>
      <point x="492" y="366" type="line"/>
      <point x="444" y="0" type="line"/>
      <point x="516" y="0" type="line"/>
      <point x="618" y="780" type="line"/>
    </contour>
    <contour>
      <point x="153" y="430" type="line"/>
      <point x="172" y="575" type="line"/>
      <point x="519" y="575" type="line"/>
      <point x="500" y="430" type="line"/>
    </contour>
  </outline>
</glyph>
<glyph name="hbar" format="1">
  <advance width="528"/>
  <unicode hex="0127"/>
  <outline>
    <contour>
      <point x="303" y="633" type="line"/>
      <point x="312" y="697" type="line"/>
      <point x="177" y="697" type="line"/>
      <point x="191" y="800" type="line"/>
      <point x="121" y="800" type="line"/>
      <point x="107" y="697" type="line"/>
      <point x="16" y="697" type="line"/>
      <point x="7" y="633" type="line"/>
      <point x="99" y="633" type="line"/>
      <point x="16" y="0" type="line"/>
      <point x="86" y="0" type="line"/>
      <point x="138" y="395" type="line"/>
      <point x="163" y="429"/>
      <point x="212" y="478"/>
      <point x="290" y="478" type="curve" smooth="yes"/>
      <point x="365" y="478"/>
      <point x="405" y="441"/>
      <point x="394" y="361" type="curve" smooth="yes"/>
      <point x="346" y="0" type="line"/>
      <point x="416" y="0" type="line"/>
      <point x="465" y="371" type="line" smooth="yes"/>
      <point x="478" y="471"/>
      <point x="429" y="541"/>
      <point x="314" y="541" type="curve" smooth="yes"/>
      <point x="239" y="541"/>
      <point x="180" y="507"/>
      <point x="147" y="465" type="curve"/>
      <point x="169" y="633" type="line"/>
    </contour>
  </outline>
</glyph>
<glyph name="Itilde" format="1">
  <advance width="229"/>
  <unicode hex="0128"/>
  <outline>
    <contour>
      <point x="292" y="936" type="line"/>
      <point x="289" y="903"/>
      <point x="270" y="889"/>
      <point x="247" y="889" type="curve" smooth="yes"/>
      <point x="207" y="889"/>
      <point x="179" y="947"/>
      <point x="119" y="947" type="curve" smooth="yes"/>
      <point x="73" y="947"/>
      <point x="33" y="919"/>
      <point x="26" y="854" type="curve"/>
      <point x="74" y="854" type="line"/>
      <point x="77" y="887"/>
      <point x="96" y="901"/>
      <point x="119" y="901" type="curve" smooth="yes"/>
      <point x="159" y="901"/>
      <point x="187" y="843"/>
      <point x="247" y="843" type="curve" smooth="yes"/>
      <point x="293" y="843"/>
      <point x="333" y="871"/>
      <point x="340" y="936" type="curve"/>
    </contour>
    <contour>
      <point x="204" y="780" type="line"/>
      <point x="132" y="780" type="line"/>
      <point x="30" y="0" type="line"/>
      <point x="102" y="0" type="line"/>
    </contour>
  </outline>
</glyph>
<glyph name="itilde" format="1">
  <advance width="216"/>
  <unicode hex="0129"/>
  <outline>
    <contour>
      <point x="260" y="746" type="line"/>
      <point x="255" y="712"/>
      <point x="238" y="699"/>
      <point x="218" y="699" type="curve" smooth="yes"/>
      <point x="176" y="699"/>
      <point x="142" y="757"/>
      <point x="83" y="757" type="curve" smooth="yes"/>
      <point x="35" y="757"/>
      <point x="-2" y="725"/>
      <point x="-11" y="654" type="curve"/>
      <point x="42" y="654" type="line"/>
      <point x="46" y="688"/>
      <point x="63" y="701"/>
      <point x="83" y="701" type="curve" smooth="yes"/>
      <point x="125" y="701"/>
      <point x="159" y="643"/>
      <point x="218" y="643" type="curve" smooth="yes"/>
      <point x="266" y="643"/>
      <point x="303" y="675"/>
      <point x="313" y="746" type="curve"/>
    </contour>
    <contour>
      <point x="24" y="0" type="line"/>
      <point x="94" y="0" type="line"/>
      <point x="163" y="530" type="line"/>
      <point x="93" y="530" type="line"/>
    </contour>
  </outline>
</glyph>
<glyph name="Imacron" format="1">
  <advance width="229"/>
  <unicode hex="012A"/>
  <outline>
    <contour>
      <point x="67" y="868" type="line"/>
      <point x="293" y="868" type="line"/>
      <point x="300" y="922" type="line"/>
      <point x="74" y="922" type="line"/>
    </contour>
    <contour>
      <point x="204" y="780" type="line"/>
      <point x="132" y="780" type="line"/>
      <point x="30" y="0" type="line"/>
      <point x="102" y="0" type="line"/>
    </contour>
  </outline>
</glyph>
<glyph name="imacron" format="1">
  <advance width="216"/>
  <unicode hex="012B"/>
  <outline>
    <contour>
      <point x="29" y="664" type="line"/>
      <point x="263" y="664" type="line"/>
      <point x="271" y="730" type="line"/>
      <point x="38" y="730" type="line"/>
    </contour>
    <contour>
      <point x="24" y="0" type="line"/>
      <point x="94" y="0" type="line"/>
      <point x="163" y="530" type="line"/>
      <point x="93" y="530" type="line"/>
    </contour>
  </outline>
</glyph>
<glyph name="Ibreve" format="1">
  <advance width="229"/>
  <unicode hex="012C"/>
  <outline>
    <contour>
      <point x="176" y="829" type="curve" smooth="yes"/>
      <point x="277" y="829"/>
      <point x="327" y="881"/>
      <point x="336" y="950" type="curve"/>
      <point x="279" y="950" type="line"/>
      <point x="273" y="906"/>
      <point x="241" y="875"/>
      <point x="179" y="875" type="curve" smooth="yes"/>
      <point x="117" y="875"/>
      <point x="92" y="906"/>
      <point x="99" y="950" type="curve"/>
      <point x="46" y="950" type="line"/>
      <point x="36" y="881"/>
      <point x="76" y="829"/>
    </contour>
    <contour>
      <point x="204" y="780" type="line"/>
      <point x="132" y="780" type="line"/>
      <point x="30" y="0" type="line"/>
      <point x="102" y="0" type="line"/>
    </contour>
  </outline>
</glyph>
<glyph name="ibreve" format="1">
  <advance width="216"/>
  <unicode hex="012D"/>
  <outline>
    <contour>
      <point x="142" y="603" type="curve" smooth="yes"/>
      <point x="256" y="603"/>
      <point x="309" y="676"/>
      <point x="322" y="780" type="curve"/>
      <point x="264" y="780" type="line"/>
      <point x="255" y="707"/>
      <point x="216" y="658"/>
      <point x="142" y="658" type="curve" smooth="yes"/>
      <point x="68" y="658"/>
      <point x="45" y="707"/>
      <point x="54" y="780" type="curve"/>
      <point x="0" y="780" type="line"/>
      <point x="-14" y="676"/>
      <point x="27" y="603"/>
    </contour>
    <contour>
      <point x="24" y="0" type="line"/>
      <point x="94" y="0" type="line"/>
      <point x="163" y="530" type="line"/>
      <point x="93" y="530" type="line"/>
    </contour>
  </outline>
</glyph>
<glyph name="Iogonek" format="1">
  <advance width="229"/>
  <unicode hex="012E"/>
  <outline>
    <contour>
      <point x="204" y="780" type="line"/>
      <point x="132" y="780" type="line"/>
      <point x="31" y="8" type="line"/>
      <point x="-16" y="-22"/>
      <point x="-55" y="-66"/>
      <point x="-55" y="-129" type="curve" smooth="yes"/>
      <point x="-55" y="-184"/>
      <point x="-16" y="-211"/>
      <point x="46" y="-211" type="curve" smooth="yes"/>
      <point x="74" y="-211"/>
      <point x="109" y="-204"/>
      <point x="131" y="-191" type="curve"/>
      <point x="119" y="-145" type="line"/>
      <point x="103" y="-153"/>
      <point x="82" y="-158"/>
      <point x="61" y="-158" type="curve" smooth="yes"/>
      <point x="25" y="-158"/>
      <point x="2" y="-143"/>
      <point x="2" y="-113" type="curve" smooth="yes"/>
      <point x="2" y="-56"/>
      <point x="58" y="-19"/>
      <point x="102" y="0" type="curve"/>
    </contour>
  </outline>
</glyph>
<glyph name="iogonek" format="1">
  <advance width="216"/>
  <unicode hex="012F"/>
  <outline>
    <contour>
      <point x="94" y="0" type="curve"/>
      <point x="163" y="530" type="line"/>
      <point x="93" y="530" type="line"/>
      <point x="25" y="9" type="line"/>
      <point x="-23" y="-20"/>
      <point x="-63" y="-65"/>
      <point x="-63" y="-129" type="curve" smooth="yes"/>
      <point x="-63" y="-184"/>
      <point x="-24" y="-211"/>
      <point x="38" y="-211" type="curve" smooth="yes"/>
      <point x="66" y="-211"/>
      <point x="101" y="-204"/>
      <point x="123" y="-191" type="curve"/>
      <point x="111" y="-145" type="line"/>
      <point x="95" y="-153"/>
      <point x="74" y="-158"/>
      <point x="53" y="-158" type="curve" smooth="yes"/>
      <point x="17" y="-158"/>
      <point x="-6" y="-143"/>
      <point x="-6" y="-113" type="curve" smooth="yes"/>
      <point x="-6" y="-56"/>
      <point x="50" y="-19"/>
    </contour>
    <contour>
      <point x="202" y="745" type="line"/>
      <point x="112" y="745" type="line"/>
      <point x="100" y="655" type="line"/>
      <point x="190" y="655" type="line"/>
    </contour>
  </outline>
</glyph>
<glyph name="Idotaccent" format="1">
  <advance width="229"/>
  <unicode hex="0130"/>
  <outline>
    <contour>
      <point x="227" y="930" type="line"/>
      <point x="148" y="930" type="line"/>
      <point x="139" y="860" type="line"/>
      <point x="218" y="860" type="line"/>
    </contour>
    <contour>
      <point x="204" y="780" type="line"/>
      <point x="132" y="780" type="line"/>
      <point x="30" y="0" type="line"/>
      <point x="102" y="0" type="line"/>
    </contour>
  </outline>
</glyph>
<glyph name="IJ" format="1">
  <advance width="499"/>
  <unicode hex="0132"/>
  <outline>
    <contour>
      <point x="204" y="780" type="line"/>
      <point x="132" y="780" type="line"/>
      <point x="30" y="0" type="line"/>
      <point x="102" y="0" type="line"/>
    </contour>
    <contour>
      <point x="328" y="153" type="line" smooth="yes"/>
      <point x="318" y="76"/>
      <point x="285" y="54"/>
      <point x="224" y="54" type="curve" smooth="yes"/>
      <point x="201" y="54"/>
      <point x="175" y="60"/>
      <point x="166" y="64" type="curve"/>
      <point x="157" y="1" type="line"/>
      <point x="165" y="-3"/>
      <point x="190" y="-11"/>
      <point x="227" y="-11" type="curve" smooth="yes"/>
      <point x="322" y="-11"/>
      <point x="384" y="33"/>
      <point x="398" y="139" type="curve" smooth="yes"/>
      <point x="482" y="780" type="line"/>
      <point x="410" y="780" type="line"/>
    </contour>
  </outline>
</glyph>
<glyph name="ij" format="1">
  <advance width="383"/>
  <unicode hex="0133"/>
  <outline>
    <contour>
      <point x="24" y="0" type="line"/>
      <point x="94" y="0" type="line"/>
      <point x="163" y="530" type="line"/>
      <point x="93" y="530" type="line"/>
    </contour>
    <contour>
      <point x="202" y="745" type="line"/>
      <point x="112" y="745" type="line"/>
      <point x="100" y="655" type="line"/>
      <point x="190" y="655" type="line"/>
    </contour>
    <contour>
      <point x="185" y="-49" type="line" smooth="yes"/>
      <point x="175" y="-126"/>
      <point x="136" y="-148"/>
      <point x="75" y="-148" type="curve" smooth="yes"/>
      <point x="52" y="-148"/>
      <point x="24" y="-142"/>
      <point x="15" y="-138" type="curve"/>
      <point x="7" y="-199" type="line"/>
      <point x="15" y="-203"/>
      <point x="42" y="-211"/>
      <point x="79" y="-211" type="curve" smooth="yes"/>
      <point x="174" y="-211"/>
      <point x="239" y="-169"/>
      <point x="253" y="-63" type="curve" smooth="yes"/>
      <point x="330" y="530" type="line"/>
      <point x="260" y="530" type="line"/>
    </contour>
    <contour>
      <point x="369" y="745" type="line"/>
      <point x="279" y="745" type="line"/>
      <point x="267" y="655" type="line"/>
      <point x="357" y="655" type="line"/>
    </contour>
  </outline>
</glyph>
<glyph name="jcircumflex" format="1">
  <advance width="216"/>
  <unicode hex="0135"/>
  <outline>
    <contour>
      <point x="50" y="614" type="line"/>
      <point x="157" y="727" type="line"/>
      <point x="235" y="614" type="line"/>
      <point x="301" y="614" type="line"/>
      <point x="192" y="780" type="line"/>
      <point x="130" y="780" type="line"/>
      <point x="-23" y="614" type="line"/>
    </contour>
    <contour>
      <point x="18" y="-49" type="line" smooth="yes"/>
      <point x="8" y="-126"/>
      <point x="-31" y="-148"/>
      <point x="-92" y="-148" type="curve" smooth="yes"/>
      <point x="-115" y="-148"/>
      <point x="-143" y="-142"/>
      <point x="-152" y="-138" type="curve"/>
      <point x="-160" y="-199" type="line"/>
      <point x="-152" y="-203"/>
      <point x="-125" y="-211"/>
      <point x="-88" y="-211" type="curve" smooth="yes"/>
      <point x="7" y="-211"/>
      <point x="72" y="-169"/>
      <point x="86" y="-63" type="curve" smooth="yes"/>
      <point x="163" y="530" type="line"/>
      <point x="93" y="530" type="line"/>
    </contour>
  </outline>
</glyph>
<glyph name="Kcommaaccent" format="1">
  <advance width="562"/>
  <unicode hex="0136"/>
  <outline>
    <contour>
      <point x="199" y="780" type="line"/>
      <point x="127" y="780" type="line"/>
      <point x="25" y="0" type="line"/>
      <point x="97" y="0" type="line"/>
      <point x="128" y="240" type="line"/>
      <point x="252" y="387" type="line"/>
      <point x="399" y="0" type="line"/>
      <point x="479" y="0" type="line"/>
      <point x="305" y="451" type="line"/>
      <point x="581" y="780" type="line"/>
      <point x="492" y="780" type="line"/>
      <point x="143" y="357" type="line"/>
    </contour>
    <contour>
      <point x="262" y="-56" type="line"/>
      <point x="181" y="-56" type="line"/>
      <point x="172" y="-124" type="line"/>
      <point x="214" y="-124" type="line"/>
      <point x="203" y="-162"/>
      <point x="175" y="-178"/>
      <point x="141" y="-178" type="curve"/>
      <point x="136" y="-214" type="line"/>
      <point x="203" y="-214"/>
      <point x="246" y="-176"/>
      <point x="255" y="-107" type="curve" smooth="yes"/>
    </contour>
  </outline>
</glyph>
<glyph name="kcommaaccent" format="1">
  <advance width="501"/>
  <unicode hex="0137"/>
  <outline>
    <contour>
      <point x="16" y="0" type="line"/>
      <point x="86" y="0" type="line"/>
      <point x="106" y="158" type="line"/>
      <point x="232" y="280" type="line"/>
      <point x="349" y="0" type="line"/>
      <point x="425" y="0" type="line"/>
      <point x="285" y="330" type="line"/>
      <point x="494" y="530" type="line"/>
      <point x="405" y="530" type="line"/>
      <point x="119" y="254" type="line"/>
      <point x="191" y="800" type="line"/>
      <point x="121" y="800" type="line"/>
    </contour>
    <contour>
      <point x="239" y="-56" type="line"/>
      <point x="158" y="-56" type="line"/>
      <point x="149" y="-124" type="line"/>
      <point x="191" y="-124" type="line"/>
      <point x="180" y="-162"/>
      <point x="152" y="-178"/>
      <point x="118" y="-178" type="curve"/>
      <point x="113" y="-214" type="line"/>
      <point x="180" y="-214"/>
      <point x="223" y="-176"/>
      <point x="232" y="-107" type="curve" smooth="yes"/>
    </contour>
  </outline>
</glyph>
<glyph name="Lacute" format="1">
  <advance width="491"/>
  <unicode hex="0139"/>
  <outline>
    <contour>
      <point x="210" y="950" type="line"/>
      <point x="135" y="840" type="line"/>
      <point x="207" y="840" type="line"/>
      <point x="284" y="950" type="line"/>
    </contour>
    <contour>
      <point x="427" y="0" type="line"/>
      <point x="435" y="65" type="line"/>
      <point x="105" y="65" type="line"/>
      <point x="199" y="780" type="line"/>
      <point x="127" y="780" type="line"/>
      <point x="25" y="0" type="line"/>
    </contour>
  </outline>
</glyph>
<glyph name="lacute" format="1">
  <advance width="217"/>
  <unicode hex="013A"/>
  <outline>
    <contour>
      <point x="24" y="0" type="line"/>
      <point x="94" y="0" type="line"/>
      <point x="199" y="800" type="line"/>
      <point x="129" y="800" type="line"/>
    </contour>
    <contour>
      <point x="208" y="950" type="line"/>
      <point x="133" y="840" type="line"/>
      <point x="205" y="840" type="line"/>
      <point x="282" y="950" type="line"/>
    </contour>
  </outline>
</glyph>
<glyph name="Lcommaaccent" format="1">
  <advance width="491"/>
  <unicode hex="013B"/>
  <outline>
    <contour>
      <point x="427" y="0" type="line"/>
      <point x="435" y="65" type="line"/>
      <point x="105" y="65" type="line"/>
      <point x="199" y="780" type="line"/>
      <point x="127" y="780" type="line"/>
      <point x="25" y="0" type="line"/>
    </contour>
    <contour>
      <point x="260" y="-56" type="line"/>
      <point x="179" y="-56" type="line"/>
      <point x="170" y="-124" type="line"/>
      <point x="212" y="-124" type="line"/>
      <point x="201" y="-162"/>
      <point x="173" y="-178"/>
      <point x="139" y="-178" type="curve"/>
      <point x="134" y="-214" type="line"/>
      <point x="201" y="-214"/>
      <point x="244" y="-176"/>
      <point x="253" y="-107" type="curve" smooth="yes"/>
    </contour>
  </outline>
</glyph>
<glyph name="lcommaaccent" format="1">
  <advance width="217"/>
  <unicode hex="013C"/>
  <outline>
    <contour>
      <point x="24" y="0" type="line"/>
      <point x="94" y="0" type="line"/>
      <point x="199" y="800" type="line"/>
      <point x="129" y="800" type="line"/>
    </contour>
    <contour>
      <point x="93" y="-56" type="line"/>
      <point x="12" y="-56" type="line"/>
      <point x="3" y="-124" type="line"/>
      <point x="45" y="-124" type="line"/>
      <point x="34" y="-162"/>
      <point x="6" y="-178"/>
      <point x="-28" y="-178" type="curve"/>
      <point x="-33" y="-214" type="line"/>
      <point x="34" y="-214"/>
      <point x="77" y="-176"/>
      <point x="86" y="-107" type="curve" smooth="yes"/>
    </contour>
  </outline>
</glyph>
<glyph name="Lcaron" format="1">
  <advance width="491"/>
  <unicode hex="013D"/>
  <outline>
    <contour>
      <point x="349" y="800" type="line"/>
      <point x="324" y="614" type="line"/>
      <point x="364" y="614" type="line"/>
      <point x="406" y="800" type="line"/>
    </contour>
    <contour>
      <point x="427" y="0" type="line"/>
      <point x="435" y="65" type="line"/>
      <point x="105" y="65" type="line"/>
      <point x="199" y="780" type="line"/>
      <point x="127" y="780" type="line"/>
      <point x="25" y="0" type="line"/>
    </contour>
  </outline>
</glyph>
<glyph name="lcaron" format="1">
  <advance width="217"/>
  <unicode hex="013E"/>
  <outline>
    <contour>
      <point x="24" y="0" type="line"/>
      <point x="94" y="0" type="line"/>
      <point x="199" y="800" type="line"/>
      <point x="129" y="800" type="line"/>
    </contour>
    <contour>
      <point x="273" y="800" type="line"/>
      <point x="248" y="614" type="line"/>
      <point x="288" y="614" type="line"/>
      <point x="330" y="800" type="line"/>
    </contour>
  </outline>
</glyph>
